<svg width="508" height="282" viewBox="0 0 508 282" fill="none" xmlns="http://www.w3.org/2000/svg">
<path d="M11.2737 0H0V281.843H11.2737V0Z" fill="#EEEEEE"/>
<path d="M22.547 0H16.9102V281.843H22.547V0Z" fill="#EEEEEE"/>
<path d="M50.7314 0H33.8208V281.843H50.7314V0Z" fill="#EEEEEE"/>
<path d="M67.6427 0H62.0059V281.843H67.6427V0Z" fill="#EEEEEE"/>
<path d="M84.5525 0H73.2788V281.843H84.5525V0Z" fill="#EEEEEE"/>
<path d="M107.1 0H101.463V281.843H107.1V0Z" fill="#EEEEEE"/>
<path d="M129.648 0H124.011V281.843H129.648V0Z" fill="#EEEEEE"/>
<path d="M163.469 0H146.559V281.843H163.469V0Z" fill="#EEEEEE"/>
<path d="M180.379 0H169.105V281.843H180.379V0Z" fill="#EEEEEE"/>
<path d="M191.653 0H186.017V281.843H191.653V0Z" fill="#EEEEEE"/>
<path d="M225.474 0H214.201V281.843H225.474V0Z" fill="#EEEEEE"/>
<path d="M236.748 0H231.111V281.843H236.748V0Z" fill="#EEEEEE"/>
<path d="M259.295 0H248.021V281.843H259.295V0Z" fill="#EEEEEE"/>
<path d="M287.479 0H264.932V281.843H287.479V0Z" fill="#EEEEEE"/>
<path d="M304.39 0H293.117V281.843H304.39V0Z" fill="#EEEEEE"/>
<path d="M315.664 0H310.027V281.843H315.664V0Z" fill="#EEEEEE"/>
<path d="M332.574 0H326.938V281.843H332.574V0Z" fill="#EEEEEE"/>
<path d="M355.122 0H343.848V281.843H355.122V0Z" fill="#EEEEEE"/>
<path d="M377.669 0H372.032V281.843H377.669V0Z" fill="#EEEEEE"/>
<path d="M400.217 0H394.58V281.843H400.217V0Z" fill="#EEEEEE"/>
<path d="M422.764 0H411.49V281.843H422.764V0Z" fill="#EEEEEE"/>
<path d="M445.312 0H434.038V281.843H445.312V0Z" fill="#EEEEEE"/>
<path d="M479.133 0H462.222V281.843H479.133V0Z" fill="#EEEEEE"/>
<path d="M490.407 0H484.77V281.843H490.407V0Z" fill="#EEEEEE"/>
<path d="M507.317 0H496.043V281.843H507.317V0Z" fill="#EEEEEE"/>
</svg>
