<svg width="920" height="600" viewBox="0 0 920 600" fill="none" xmlns="http://www.w3.org/2000/svg">
<mask id="mask0_68_231" style="mask-type:alpha" maskUnits="userSpaceOnUse" x="0" y="0" width="920" height="600">
<rect width="920" height="600" rx="30" fill="#D9D9D9"/>
</mask>
<g mask="url(#mask0_68_231)">
<g style="mix-blend-mode:multiply">
<mask id="mask1_68_231" style="mask-type:luminance" maskUnits="userSpaceOnUse" x="-209" y="-41" width="1338" height="683">
<path d="M-178.727 641.312L1098.04 641.312C1114.61 641.312 1128.04 627.88 1128.04 611.312V-10.8196C1128.04 -27.3882 1114.61 -40.8196 1098.04 -40.8196L-178.727 -40.8196C-195.295 -40.8196 -208.727 -27.3882 -208.727 -10.8196V611.312C-208.727 627.88 -195.295 641.312 -178.727 641.312Z" fill="white"/>
</mask>
<g mask="url(#mask1_68_231)">
<g style="mix-blend-mode:soft-light">
<path d="M-178.728 641.312L1098.04 641.312C1114.61 641.312 1128.04 627.88 1128.04 611.312V-10.8196C1128.04 -27.3882 1114.61 -40.8196 1098.04 -40.8196L-178.728 -40.8196C-195.296 -40.8196 -208.728 -27.3882 -208.728 -10.8196V611.312C-208.728 627.88 -195.296 641.312 -178.728 641.312Z" fill="url(#paint0_radial_68_231)"/>
</g>
<path d="M256.944 -201.028C256.95 -201.039 256.938 -201.05 256.927 -201.045C78.9431 -111.532 -91.5669 -13.9001 -230.027 101.976C-368.495 217.859 -474.223 353.252 -510.22 498.726C-530.207 579.516 -527.979 664.319 -483.857 740.846C-418.754 853.729 -268.389 937.901 -102.906 990.115C97.9916 1053.49 329.675 1075.96 548.297 1047.67C766.919 1019.41 970.764 939.526 1105.91 822.988C1154.25 781.308 1194.39 734.215 1208.86 682.678C1224.05 628.548 1210.2 572.817 1192.4 519.048C1133.57 341.163 1031.99 169.977 982.66 -9.14856C971.587 -49.3401 963.222 -90.7721 975.084 -130.851C987.426 -172.486 1020.85 -210.039 1056.78 -245.268C1119.86 -307.089 1192.61 -364.648 1273.31 -416.838C1312.06 -441.9 1438.81 -491.693 1479.12 -531.917C1489.78 -542.544 1480.4 -555.716 1465.37 -556.451C1370.97 -561.063 1252.33 -536.152 1165.66 -520.497C1056.09 -500.717 949.646 -473.945 846.695 -442.392C636.348 -377.913 441.016 -293.59 256.961 -201.011C256.95 -201.006 256.939 -201.017 256.944 -201.028Z" fill="url(#paint1_linear_68_231)" style="mix-blend-mode:screen"/>
<path style="mix-blend-mode:screen" d="M1100.8 1026.98C1100.8 1026.98 1100.8 1026.98 1100.8 1026.98C1123.21 913.34 1130.08 793.288 1094.35 683.246C1058.64 573.218 974.161 474.872 863.744 447.706C839.783 441.805 815.119 439.298 790.473 438.531C657.164 434.404 521.114 484.763 428.276 582.495C412.836 598.747 398.449 616.465 388.925 636.912C364.362 689.709 376.51 755.159 409.745 802.755C442.98 850.351 494.379 881.985 548.1 902.227C601.822 922.469 658.617 932.462 714.528 945.184C768.282 957.411 821.452 972.23 874.589 987.016C904.065 995.218 933.758 1003.52 961.128 1017.37C997.137 1035.58 1027.01 1062.7 1054.9 1091.77C1070.12 1107.63 1077.94 1114.78 1087.08 1090.12C1094.3 1070.66 1096.78 1047.37 1100.8 1026.98C1100.8 1026.98 1100.8 1026.98 1100.8 1026.98Z" fill="url(#paint2_linear_68_231)"/>
<path style="mix-blend-mode:screen" d="M-491.862 928.216C-491.863 928.216 -491.863 928.214 -491.862 928.214C-346.692 893.647 -202.475 836.638 -93.1625 733.195C16.1348 629.75 85.2122 473.252 56.8727 323.899C50.7236 291.481 40.2468 260.052 27.7145 229.611C-40.0428 64.8938 -173.051 -73.4935 -337.958 -133.419C-365.395 -143.395 -393.935 -151.291 -423.06 -151.734C-498.22 -152.911 -568.183 -102.484 -605.779 -36.0617C-643.392 30.3268 -652.432 110.187 -646.835 186.688C-641.254 263.189 -622.038 337.849 -606.481 412.9C-591.526 485.087 -579.896 557.938 -568.283 630.756C-561.833 671.155 -555.383 711.844 -556.67 752.755C-558.374 806.558 -573.83 857.718 -592.662 907.547C-602.939 934.73 -607.032 948.151 -573.212 945.883C-546.513 944.093 -517.909 934.408 -491.861 928.218C-491.86 928.218 -491.86 928.216 -491.862 928.216Z" fill="url(#paint3_linear_68_231)"/>
<path style="mix-blend-mode:screen" d="M294.851 599.488C294.851 599.492 294.847 599.494 294.844 599.492C198.398 538.75 97.4745 483.858 -10.7508 449.547C-118.979 415.253 -235.328 402.19 -346.313 425.587C-407.954 438.582 -468.443 463.412 -515.447 506.147C-584.775 569.159 -618.061 665.254 -625.68 759.695C-634.921 874.344 -609.205 992.353 -549.418 1089.86C-489.631 1187.37 -395.439 1263.3 -287.328 1295.82C-248.662 1307.45 -207.59 1313.62 -167.955 1306.15C-126.331 1298.31 -88.8179 1276.02 -53.3936 1252.36C63.7573 1174.16 168.359 1077.21 288.1 1003.23C314.969 986.64 343.208 970.985 374.154 965.477C406.287 959.764 439.288 965.358 471.087 972.81C526.88 985.907 581.353 1004.85 633.42 1029.15C657.139 1040.22 711.14 1083.25 747.505 1094.61C761.145 1098.87 769.864 1085.67 764.95 1072.25C748.926 1028.5 713.35 982.84 688.428 948.202C654.424 900.913 615.975 857.069 574.736 816.261C490.438 732.872 394.595 662.307 294.858 599.484C294.855 599.482 294.851 599.484 294.851 599.488Z" fill="url(#paint4_linear_68_231)"/>
<path style="mix-blend-mode:screen" d="M-81.134 -94.6343C-81.1394 -94.6343 -81.1446 -94.6324 -81.1487 -94.6288C-132.027 -50.991 -180.549 -3.73804 -219.163 51.4611C-257.779 106.663 -286.319 170.374 -293.956 237.768C-298.2 275.183 -295.777 314.133 -281.106 348.7C-259.467 399.689 -213.165 436.285 -163.036 457.977C-102.18 484.307 -33.0688 491.419 31.1461 475.372C95.3443 459.324 154.095 419.761 191.725 364.304C205.176 344.471 216.104 322.267 219.313 298.358C222.688 273.256 217.424 247.83 211.041 223.358C189.921 142.406 156.251 65.1208 137.92 -16.5474C133.81 -34.8796 130.468 -53.7917 133.158 -72.3969C135.949 -91.7182 145.072 -109.437 154.997 -126.132C172.409 -155.429 192.761 -182.902 215.603 -208.022C224.564 -217.878 250.628 -236.163 265.908 -252.92C275.607 -263.557 266.976 -275.763 252.701 -273.916C228.492 -270.785 202.002 -260.95 181.549 -254.168C149.5 -243.544 118.504 -229.765 88.6438 -213.82C27.6395 -181.249 -28.4859 -139.761 -81.1193 -94.6397C-81.1234 -94.6362 -81.1286 -94.6343 -81.134 -94.6343Z" fill="url(#paint5_linear_68_231)"/>
<path style="mix-blend-mode:screen" d="M1169.65 112.498C1169.66 112.491 1169.65 112.484 1169.64 112.489C1082.89 180.169 999.788 253.988 932.304 341.6C864.814 429.22 813.281 531.591 795.736 641.585C785.994 702.669 787.081 766.79 808.586 824.652C840.317 910.003 913.606 973.646 994.263 1013.12C1092.18 1061.04 1205.1 1078.03 1311.66 1056.64C1418.22 1035.28 1517.57 974.874 1583.44 886.76C1607 855.245 1626.57 819.638 1633.62 780.671C1641.02 739.743 1634.27 697.605 1625.6 656.95C1596.93 522.451 1547.42 393.016 1523.37 257.579C1517.97 227.19 1513.9 195.863 1519.68 165.559C1525.69 134.079 1541.99 105.685 1559.5 79.0481C1590.24 32.3051 1625.7 -11.2149 1665.04 -50.6762C1682.84 -68.5356 1738.74 -103.006 1761.56 -132.374C1770.38 -143.727 1761.14 -156.682 1746.76 -156.661C1702.99 -156.596 1651.25 -139.891 1612.57 -129.053C1559.16 -114.097 1507.28 -93.855 1457.1 -69.9975C1354.58 -21.246 1259.38 42.51 1169.67 112.507C1169.66 112.512 1169.65 112.506 1169.65 112.498Z" fill="url(#paint6_linear_68_231)"/>
<path style="mix-blend-mode:screen" d="M1159.92 -541.845C1159.91 -541.845 1159.9 -541.842 1159.89 -541.837C1065.39 -486.023 973.706 -423.645 895.81 -345.545C817.91 -267.441 753.979 -172.624 722.799 -65.8198C705.488 -6.50848 698.537 57.2195 712.64 117.418C733.427 206.214 798.143 278.878 873.202 328.554C964.32 388.855 1074.18 420.42 1182.55 413.104C1290.91 405.806 1397.01 358.858 1473.38 280.038C1500.68 251.849 1524.56 219.089 1536.42 181.35C1548.89 141.719 1547.47 99.0513 1543.96 57.5948C1532.36 -79.5477 1499.46 -214.371 1492.58 -351.837C1491.04 -382.687 1490.91 -414.286 1500.43 -443.584C1510.34 -474.024 1530.04 -500.065 1550.76 -524.195C1587.1 -566.555 1627.71 -605.096 1671.67 -639.1C1691.58 -654.499 1751.41 -681.43 1777.69 -707.601C1787.84 -717.707 1780.35 -731.688 1766.15 -733.545C1722.7 -739.228 1669.22 -729.395 1629.46 -723.684C1574.62 -715.806 1520.63 -702.504 1467.88 -685.382C1360.09 -650.391 1257.68 -599.575 1159.95 -541.853C1159.94 -541.848 1159.93 -541.845 1159.92 -541.845Z" fill="url(#paint7_linear_68_231)"/>
<path style="mix-blend-mode:screen" d="M51.2159 -434.75C51.2115 -434.75 51.2082 -434.746 51.2089 -434.742C69.9068 -324.939 95.6227 -215.596 140.554 -114.012C185.486 -12.4429 250.603 81.5377 338.061 148.267C386.636 185.324 442.847 213.974 503.068 221.272C591.896 232.033 681.075 195.113 752.659 140.371C839.566 73.9149 906.521 -20.4238 937.216 -126.734C967.912 -233.044 961.379 -350.882 915.26 -451.224C898.768 -487.104 876.878 -521.279 846.283 -545.682C814.15 -571.296 774.415 -584.666 735.081 -595.631C604.963 -631.869 469.615 -646.893 340.818 -687.77C311.927 -696.944 282.819 -707.722 259.158 -726.975C234.578 -746.979 217.451 -774.844 202.396 -802.999C175.995 -852.436 154.573 -904.636 138.465 -958.491C131.217 -982.71 127.124 -1048.62 112.361 -1083.02C106.596 -1096.46 90.6928 -1094.33 84.074 -1081.3C63.9509 -1041.66 54.5532 -987.198 46.1111 -947.252C34.4311 -892.017 28.0146 -835.69 25.5416 -779.261C20.4954 -663.932 31.874 -548.297 51.2228 -434.759C51.2236 -434.754 51.2202 -434.75 51.2159 -434.75Z" fill="url(#paint8_linear_68_231)"/>
<path style="mix-blend-mode:screen" d="M51.2159 -102.3C51.2115 -102.3 51.2082 -102.296 51.2089 -102.292C69.9068 7.51135 95.6227 116.854 140.554 218.438C185.486 320.007 250.603 413.988 338.061 480.717C386.636 517.774 442.847 546.424 503.068 553.722C591.896 564.483 681.075 527.563 752.659 472.822C839.566 406.365 906.521 312.026 937.216 205.716C967.912 99.4061 961.378 -18.4321 915.26 -118.774C898.768 -154.654 876.878 -188.828 846.283 -213.232C814.15 -238.846 774.415 -252.216 735.081 -263.181C604.963 -299.419 469.615 -314.443 340.818 -355.32C311.927 -364.494 282.819 -375.272 259.158 -394.525C234.578 -414.529 217.451 -442.394 202.396 -470.549C175.995 -519.986 154.573 -572.186 138.465 -626.04C131.217 -650.26 127.124 -716.168 112.361 -750.571C106.596 -764.006 90.6928 -761.88 84.074 -748.845C63.9509 -709.215 54.5532 -654.748 46.1111 -614.802C34.4311 -559.567 28.0146 -503.24 25.5416 -446.81C20.4954 -331.482 31.874 -215.846 51.2228 -102.308C51.2236 -102.304 51.2202 -102.3 51.2159 -102.3Z" fill="url(#paint9_linear_68_231)"/>
</g>
</g>
</g>
<defs>
<radialGradient id="paint0_radial_68_231" cx="0" cy="0" r="1" gradientUnits="userSpaceOnUse" gradientTransform="translate(671.918 -332.448) rotate(180) scale(1054.36 1076.04)">
<stop stop-color="white"/>
<stop offset="1" stop-color="#FF721F"/>
</radialGradient>
<linearGradient id="paint1_linear_68_231" x1="299.965" y1="757.469" x2="344.983" y2="1132.76" gradientUnits="userSpaceOnUse">
<stop stop-color="#FF721F"/>
<stop offset="1" stop-color="#004B7F" stop-opacity="0"/>
</linearGradient>
<linearGradient id="paint2_linear_68_231" x1="460.1" y1="69.2414" x2="957.221" y2="1175.04" gradientUnits="userSpaceOnUse">
<stop stop-color="#FF721F"/>
<stop offset="1" stop-color="#004B7F" stop-opacity="0"/>
</linearGradient>
<linearGradient id="paint3_linear_68_231" x1="1317.35" y1="-638.796" x2="857.641" y2="-294.612" gradientUnits="userSpaceOnUse">
<stop stop-color="#FF721F"/>
<stop offset="1" stop-color="#004B7F" stop-opacity="0"/>
</linearGradient>
<linearGradient id="paint4_linear_68_231" x1="306.473" y1="582.079" x2="-321.676" y2="1315.85" gradientUnits="userSpaceOnUse">
<stop stop-color="#FF721F"/>
<stop offset="1" stop-color="#004B7F" stop-opacity="0"/>
</linearGradient>
<linearGradient id="paint5_linear_68_231" x1="-88.5904" y1="-104.208" x2="-441.804" y2="445.179" gradientUnits="userSpaceOnUse">
<stop stop-color="#FF721F"/>
<stop offset="1" stop-color="#004B7F" stop-opacity="0"/>
</linearGradient>
<linearGradient id="paint6_linear_68_231" x1="1217.47" y1="733.764" x2="763.953" y2="247.512" gradientUnits="userSpaceOnUse">
<stop stop-color="#FF721F"/>
<stop offset="0.992226" stop-color="#004B7F" stop-opacity="0"/>
</linearGradient>
<linearGradient id="paint7_linear_68_231" x1="1150.25" y1="-559.789" x2="1503.18" y2="307.009" gradientUnits="userSpaceOnUse">
<stop stop-color="#AD4000"/>
<stop offset="1" stop-color="#004B7F" stop-opacity="0"/>
</linearGradient>
<linearGradient id="paint8_linear_68_231" x1="694.839" y1="29.7047" x2="1131.21" y2="-780.808" gradientUnits="userSpaceOnUse">
<stop stop-color="#FF721F"/>
</linearGradient>
<linearGradient id="paint9_linear_68_231" x1="945.701" y1="-117.271" x2="951.122" y2="-124.366" gradientUnits="userSpaceOnUse">
<stop stop-color="#C04700"/>
</linearGradient>
</defs>
</svg>
