<svg width="880" height="615" viewBox="0 0 880 615" fill="none" xmlns="http://www.w3.org/2000/svg">
<mask id="mask0_71_1409" style="mask-type:alpha" maskUnits="userSpaceOnUse" x="0" y="0" width="880" height="615">
<rect width="880" height="615" rx="20" fill="white"/>
</mask>
<g mask="url(#mask0_71_1409)">
<mask id="mask1_71_1409" style="mask-type:luminance" maskUnits="userSpaceOnUse" x="-146" y="-470" width="1126" height="2171">
<path d="M979.925 1700.29L979.925 -470L-146 -470L-146 1700.29L979.925 1700.29Z" fill="white"/>
</mask>
<g mask="url(#mask1_71_1409)">
<path d="M979.925 1700.29L979.925 -469.999L-146 -469.999L-146 1700.29L979.925 1700.29Z" fill="url(#paint0_radial_71_1409)"/>
<path style="mix-blend-mode:screen" d="M-1035.09 -755.747C-739.222 -813.124 -426.609 -830.704 -140.145 -739.253C146.346 -647.802 402.382 -431.451 473.09 -148.689C488.43 -87.3236 494.989 -24.141 496.987 38.9332C507.74 380.348 376.626 728.734 122.167 966.489C79.8322 1006.04 33.7536 1042.88 -19.5308 1067.27C-157.006 1130.16 -327.387 1099.09 -451.323 1013.96C-575.259 928.862 -657.62 797.234 -710.285 659.637C-762.979 522.04 -789.016 376.604 -822.118 233.446C-853.953 95.7677 -892.517 -40.364 -931.051 -176.441C-952.416 -251.913 -974.005 -327.955 -1010.06 -398.056C-1057.49 -490.266 -1128.06 -566.769 -1203.78 -638.199C-1245.07 -677.155 -1263.68 -697.203 -1199.47 -720.643C-1148.81 -739.144 -1088.15 -745.465 -1035.06 -755.747L-1035.09 -755.747Z" fill="url(#paint1_linear_71_1409)"/>
<g style="mix-blend-mode:multiply">
<path d="M-590.946 538.791C-533.063 132.707 -437.6 -270.713 -264.381 -576.491C-91.1605 -882.223 170.897 -1075.45 420.989 -996.177C475.274 -978.976 527.902 -949.67 578.874 -914.614C854.696 -725.08 1086.43 -353.023 1186.77 108.262C1203.48 185.01 1216.7 264.843 1217.44 346.313C1219.41 556.553 1134.97 752.256 1023.75 857.423C912.521 962.59 778.794 987.877 650.692 972.219C522.591 956.608 397.573 902.856 271.899 859.34C151.022 817.507 29.031 784.975 -92.9025 752.49C-160.551 734.448 -228.686 716.407 -297.191 720.006C-387.285 724.773 -472.953 768.008 -556.393 820.685C-601.911 849.431 -624.384 860.882 -620.587 766.279C-617.588 691.587 -601.368 611.567 -591.003 538.698L-590.946 538.791Z" fill="url(#paint2_linear_71_1409)" style="mix-blend-mode:screen"/>
</g>
<path style="mix-blend-mode:screen" d="M114.509 -216.613C305.185 -226.109 497.802 -223.911 684.903 -187.287C872.004 -150.664 1054.23 -78.0944 1199.62 41.1361C1280.35 107.357 1350.01 189.232 1385.57 285.484C1437.98 427.503 1410.93 587.535 1347.26 725.186C1269.96 892.325 1138.34 1036.89 972.661 1126.26C806.981 1215.62 607.608 1248.06 422.112 1209.05C355.767 1195.11 290.21 1171.67 237.573 1130.3C182.318 1086.89 144.572 1026.5 111.019 965.871C0.0309627 765.363 -77.5733 548.496 -195.795 351.841C-222.311 307.729 -251.613 263.862 -292.963 232.04C-335.889 198.998 -389.089 181.039 -441.979 166.633C-534.812 141.349 -630.29 125.289 -726.5 118.561C-781.783 114.682 -948.645 144.171 -983.521 103.83C-929.73 40.8375 -819.53 -3.16506 -743.53 -37.3201C-655.792 -76.7651 -564.198 -107.936 -470.915 -132.65C-280.212 -183.191 -82.64 -206.847 114.509 -216.641L114.509 -216.613Z" fill="url(#paint3_linear_71_1409)"/>
<path style="mix-blend-mode:screen" d="M1138.5 -1170C1145.16 -990.346 1140.28 -808.597 1101.61 -631.32C1062.94 -454.043 988.923 -280.627 869.477 -140.962C803.14 -63.4013 721.569 4.05747 626.298 39.6097C485.754 92.0413 328.582 69.9104 193.941 12.761C30.4958 -56.6263 -109.985 -177.718 -195.62 -332.124C-281.276 -486.513 -310.371 -673.899 -269.368 -849.707C-254.705 -912.588 -230.694 -974.933 -189.26 -1025.44C-145.737 -1078.49 -85.7594 -1115.37 -25.614 -1148.3C173.348 -1257.23 387.947 -1335.03 583.2 -1450.68C627.012 -1476.63 670.608 -1505.21 702.515 -1544.86C735.652 -1586.06 754.072 -1636.63 769.001 -1686.81C795.182 -1774.9 812.347 -1865.34 820.33 -1956.2C824.918 -2008.43 798.266 -2165.21 838.457 -2198.98C899.725 -2149.57 941.474 -2046.56 974.032 -1975.59C1011.63 -1893.66 1041 -1807.93 1064.03 -1720.42C1111.09 -1541.62 1131.6 -1355.74 1138.47 -1169.94L1138.5 -1170Z" fill="url(#paint4_linear_71_1409)"/>
<path style="mix-blend-mode:screen" d="M1840.15 338.307C1658.9 307.95 1478.41 266.199 1310.74 193.25C1143.09 120.301 987.962 14.5806 877.818 -127.411C816.652 -206.274 769.363 -297.535 757.316 -395.306C739.555 -539.522 800.495 -684.308 890.851 -800.527C1000.54 -941.624 1156.26 -1050.33 1331.73 -1100.16C1507.21 -1150 1701.71 -1139.39 1867.34 -1064.52C1926.56 -1037.74 1982.97 -1002.2 2023.25 -952.529C2065.53 -900.361 2087.6 -835.849 2105.7 -771.988C2165.51 -560.737 2190.31 -340.995 2257.78 -131.887C2272.92 -84.9816 2290.71 -37.7234 2322.49 0.690769C2355.51 40.597 2401.5 68.4042 2447.98 92.847C2529.58 135.71 2615.74 170.489 2704.63 196.641C2755.69 211.67 2919.01 218.344 2942.85 263.432C2878.36 311.531 2765.04 330.168 2686.08 346.581C2594.91 365.544 2501.94 375.962 2408.79 379.977C2218.43 388.17 2027.56 369.695 1840.15 338.28L1840.15 338.307Z" fill="url(#paint5_linear_71_1409)"/>
</g>
</g>
<defs>
<radialGradient id="paint0_radial_71_1409" cx="0" cy="0" r="1" gradientUnits="userSpaceOnUse" gradientTransform="translate(1461.29 270.533) rotate(90) scale(1711.79 1776.12)">
<stop stop-color="#889EF4"/>
<stop offset="1" stop-color="#103CE9"/>
</radialGradient>
<linearGradient id="paint1_linear_71_1409" x1="1530.02" y1="1487.91" x2="67.5846" y2="632.538" gradientUnits="userSpaceOnUse">
<stop stop-color="#889EF4"/>
<stop offset="1" stop-color="#103CE9"/>
</linearGradient>
<linearGradient id="paint2_linear_71_1409" x1="1590.02" y1="-1620.28" x2="-1172.12" y2="-115.902" gradientUnits="userSpaceOnUse">
<stop stop-color="#889EF4"/>
<stop offset="1" stop-color="#103CE9"/>
</linearGradient>
<linearGradient id="paint3_linear_71_1409" x1="111.42" y1="-249.76" x2="117.338" y2="-185.615" gradientUnits="userSpaceOnUse">
<stop offset="1" stop-color="#103CE9"/>
</linearGradient>
<linearGradient id="paint4_linear_71_1409" x1="824.172" y1="-863.821" x2="617.822" y2="99.7392" gradientUnits="userSpaceOnUse">
<stop stop-color="#889EF4"/>
<stop offset="0.0001" stop-color="#103CE9"/>
<stop offset="1" stop-color="#103CE9"/>
</linearGradient>
<linearGradient id="paint5_linear_71_1409" x1="1835.12" y1="370.146" x2="1874.05" y2="-1122.57" gradientUnits="userSpaceOnUse">
<stop stop-color="#74BBEA"/>
<stop offset="1" stop-color="#103CE9"/>
</linearGradient>
</defs>
</svg>
