<svg width="920" height="600" viewBox="0 0 920 600" fill="none" xmlns="http://www.w3.org/2000/svg">
<mask id="mask0_68_213" style="mask-type:alpha" maskUnits="userSpaceOnUse" x="0" y="0" width="920" height="600">
<rect width="920" height="600" rx="30" fill="#D9D9D9"/>
</mask>
<g mask="url(#mask0_68_213)">
<mask id="mask1_68_213" style="mask-type:luminance" maskUnits="userSpaceOnUse" x="-314" y="-65" width="1350" height="689">
<path d="M1005.3 -64.918H-284C-300.569 -64.918 -314 -51.4866 -314 -34.918V593.607C-314 610.175 -300.569 623.607 -284 623.607H1005.3C1021.86 623.607 1035.3 610.175 1035.3 593.607V-34.918C1035.3 -51.4865 1021.86 -64.918 1005.3 -64.918Z" fill="white"/>
</mask>
<g mask="url(#mask1_68_213)">
<path d="M1005.3 -64.918H-284C-300.568 -64.918 -314 -51.4866 -314 -34.918V593.607C-314 610.175 -300.568 623.607 -284 623.607H1005.3C1021.86 623.607 1035.3 610.175 1035.3 593.607V-34.918C1035.3 -51.4865 1021.86 -64.918 1005.3 -64.918Z" fill="url(#paint0_radial_68_213)"/>
<path style="mix-blend-mode:screen" d="M-491.652 1167.29C-491.652 1167.29 -491.653 1167.29 -491.653 1167.29C-527.324 986.367 -538.252 795.201 -481.397 620.026C-424.541 444.831 -290.033 288.26 -114.237 245.021C-76.0852 235.64 -36.8039 231.629 2.41003 230.407C214.671 223.832 431.267 304.01 579.082 459.617C603.673 485.505 626.577 513.683 641.74 546.268C680.836 630.337 661.524 734.528 608.598 810.317C555.689 886.106 473.854 936.472 388.309 968.678C302.763 1000.9 212.344 1016.82 123.341 1037.07C37.7448 1056.53 -46.8899 1080.12 -131.491 1103.68C-178.413 1116.74 -225.688 1129.95 -269.271 1152C-326.599 1181 -374.162 1224.15 -418.57 1270.46C-442.79 1295.71 -455.254 1307.09 -469.827 1267.82C-481.328 1236.84 -485.259 1199.75 -491.65 1167.29C-491.65 1167.29 -491.652 1167.29 -491.652 1167.29Z" fill="url(#paint1_linear_68_213)"/>
<g style="mix-blend-mode:multiply">
<path d="M649.297 854.098C649.306 854.092 649.303 854.077 649.292 854.076C396.836 818.679 146.039 760.302 -44.058 654.38C-234.135 548.452 -354.266 388.199 -304.981 235.263C-294.288 202.067 -276.068 169.884 -254.273 138.713C-136.438 -29.9569 94.8745 -171.665 381.661 -233.028C429.376 -243.243 479.009 -251.329 529.659 -251.783C660.368 -252.987 782.039 -201.351 847.423 -133.335C912.806 -65.3184 928.527 16.4583 918.792 94.7949C909.087 173.132 875.668 249.582 848.614 326.435C822.606 400.353 802.381 474.953 782.185 549.518C770.968 590.886 759.751 632.552 761.989 674.444C764.953 729.538 791.832 781.926 824.582 832.951C842.454 860.786 849.573 874.529 790.757 872.206C744.332 870.373 694.595 860.459 649.301 854.12C649.29 854.119 649.287 854.104 649.297 854.098Z" fill="url(#paint2_linear_68_213)" style="mix-blend-mode:screen"/>
</g>
<path style="mix-blend-mode:screen" d="M936.452 -230.233C936.457 -230.233 936.462 -230.231 936.466 -230.227C987.822 -186.18 1036.8 -138.484 1075.77 -82.7679C1114.77 -27.0491 1143.56 37.2592 1151.27 105.285C1155.55 143.051 1153.11 182.366 1138.3 217.257C1116.46 268.724 1069.72 305.663 1019.12 327.558C957.695 354.135 887.936 361.313 823.119 345.116C758.319 328.918 699.018 288.984 661.035 233.007C647.458 212.988 636.427 190.576 633.189 166.444C629.782 141.106 635.095 115.441 641.538 90.7403C662.857 9.0296 696.842 -68.9802 715.344 -151.414C719.493 -169.901 722.867 -189.007 720.151 -207.787C717.334 -227.289 708.126 -245.174 698.107 -262.025C680.532 -291.597 659.989 -319.328 636.933 -344.683C627.858 -354.665 601.404 -373.211 586.002 -390.172C576.325 -400.828 584.979 -413.048 599.257 -411.225C623.755 -408.096 650.597 -398.129 671.307 -391.261C703.656 -380.538 734.96 -366.629 765.083 -350.535C826.659 -317.659 883.31 -275.782 936.437 -230.238C936.441 -230.235 936.446 -230.233 936.452 -230.233Z" fill="url(#paint3_linear_68_213)"/>
<path style="mix-blend-mode:screen" d="M78.0354 -309.748C78.0333 -309.752 78.0383 -309.756 78.0421 -309.753C165.606 -241.438 249.493 -166.925 317.611 -78.4895C385.734 9.95154 437.749 113.282 455.459 224.306C465.292 285.964 464.195 350.685 442.489 409.089C410.46 495.241 336.485 559.48 255.071 599.328C156.236 647.697 42.2538 664.842 -65.302 643.256C-172.858 621.688 -273.144 560.719 -339.631 471.779C-363.412 439.969 -383.162 404.029 -390.28 364.697C-397.752 323.385 -390.938 280.852 -382.184 239.815C-353.242 104.056 -303.267 -26.592 -278.997 -163.299C-273.549 -193.972 -269.434 -225.593 -275.269 -256.181C-281.341 -287.956 -297.786 -316.616 -315.461 -343.503C-346.495 -390.684 -382.285 -434.612 -421.988 -474.443C-439.996 -492.509 -496.624 -527.414 -519.564 -557.107C-528.355 -568.486 -519.093 -581.441 -504.715 -581.439C-460.478 -581.432 -408.137 -564.53 -369.029 -553.572C-315.124 -538.476 -262.755 -518.044 -212.105 -493.963C-108.62 -444.753 -12.5215 -380.398 78.0287 -309.742C78.0324 -309.739 78.0374 -309.744 78.0354 -309.748Z" fill="url(#paint4_linear_68_213)"/>
<path style="mix-blend-mode:screen" d="M314.756 228.703C314.764 228.695 314.778 228.697 314.783 228.708C363.828 339.518 420.141 447.918 494.702 542.774C569.267 637.635 663.128 718.829 773.331 765.047C834.539 790.711 901.565 805.377 967.141 796.357C1063.87 783.052 1148.25 719.277 1209.29 641.56C1283.4 547.198 1328.99 428.926 1333.07 308.073C1337.15 187.202 1298.83 64.5244 1223.34 -28.7018C1196.35 -62.0436 1164.1 -92.0633 1125.26 -109.345C1084.48 -127.488 1038.92 -130.569 994.43 -131.223C847.29 -133.375 700.267 -111.669 553.278 -119.071C520.305 -120.74 486.673 -124.045 456.534 -137.816C425.23 -152.12 399.694 -176.803 376.284 -202.382C335.198 -247.291 298.649 -296.486 267.278 -348.917C252.885 -372.965 230.398 -443.71 205.025 -475.114C195.882 -486.431 181.024 -480.234 177.639 -466.085C166.193 -418.242 170.927 -356.743 172.675 -311.393C175.054 -249.787 183.301 -188.491 195.732 -128.176C221.147 -4.92117 264.017 114.1 314.73 228.698C314.734 228.709 314.748 228.711 314.756 228.703Z" fill="url(#paint5_linear_68_213)"/>
</g>
</g>
<defs>
<radialGradient id="paint0_radial_68_213" cx="0" cy="0" r="1" gradientUnits="userSpaceOnUse" gradientTransform="translate(146.397 -359.279) scale(1064.24 1086.13)">
<stop stop-color="#889EF4"/>
<stop offset="1" stop-color="#103CE9"/>
</radialGradient>
<linearGradient id="paint1_linear_68_213" x1="903.258" y1="-401.312" x2="384.454" y2="500.47" gradientUnits="userSpaceOnUse">
<stop stop-color="#889EF4"/>
<stop offset="1" stop-color="#103CE9"/>
</linearGradient>
<linearGradient id="paint2_linear_68_213" x1="-692.991" y1="-479.62" x2="218.663" y2="1222.14" gradientUnits="userSpaceOnUse">
<stop stop-color="#889EF4"/>
<stop offset="1" stop-color="#103CE9"/>
</linearGradient>
<linearGradient id="paint3_linear_68_213" x1="944.014" y1="-239.98" x2="638.019" y2="244.913" gradientUnits="userSpaceOnUse">
<stop stop-color="#889EF4"/>
<stop offset="1" stop-color="#103CE9"/>
</linearGradient>
<linearGradient id="paint4_linear_68_213" x1="90.1994" y1="-60.9839" x2="454.295" y2="423.741" gradientUnits="userSpaceOnUse">
<stop stop-color="#889EF4"/>
<stop offset="0.0001" stop-color="#103CE9"/>
<stop offset="1" stop-color="#103CE9"/>
</linearGradient>
<linearGradient id="paint5_linear_68_213" x1="294.829" y1="236.961" x2="315.522" y2="226.571" gradientUnits="userSpaceOnUse">
<stop offset="1" stop-color="#103CE9"/>
</linearGradient>
</defs>
</svg>
