<svg width="625" height="399" viewBox="0 0 625 399" fill="none" xmlns="http://www.w3.org/2000/svg">
<rect width="625" height="399" rx="20" fill="white"/>
<path d="M0 20C0 8.95431 8.95431 0 20 0H605C616.046 0 625 8.95431 625 20V92H0V20Z" fill="#FF721F"/>
<path d="M84.7829 184H79V261.481H84.7829V184Z" fill="#414141"/>
<path d="M95.5231 184H86.8486V261.481H95.5231V184Z" fill="#414141"/>
<path d="M100.067 184H97.1753V261.481H100.067V184Z" fill="#414141"/>
<path d="M105.436 184H102.958V261.481H105.436V184Z" fill="#414141"/>
<path d="M114.111 184H108.328V261.481H114.111V184Z" fill="#414141"/>
<path d="M124.851 184H116.177V261.481H124.851V184Z" fill="#414141"/>
<path d="M129.395 184H126.503V261.481H129.395V184Z" fill="#414141"/>
<path d="M134.765 184H132.286V261.481H134.765V184Z" fill="#414141"/>
<path d="M164.506 184H159.136V261.481H164.506V184Z" fill="#414141"/>
<path d="M156.657 184H147.983V261.481H156.657V184Z" fill="#414141"/>
<path d="M146.33 184H143.852V261.481H146.33V184Z" fill="#414141"/>
<path d="M140.547 184H138.069V261.481H140.547V184Z" fill="#414141"/>
<path d="M173.18 184H167.397V261.481H173.18V184Z" fill="#414141"/>
<path d="M183.92 184H175.245V261.481H183.92V184Z" fill="#414141"/>
<path d="M188.463 184H185.985V261.481H188.463V184Z" fill="#414141"/>
<path d="M193.833 184H191.354V261.481H193.833V184Z" fill="#414141"/>
<path d="M202.508 184H196.725V261.481H202.508V184Z" fill="#414141"/>
<path d="M213.248 184H204.573V261.481H213.248V184Z" fill="#414141"/>
<path d="M217.791 184H215.312V261.481H217.791V184Z" fill="#414141"/>
<path d="M223.161 184H220.683V261.481H223.161V184Z" fill="#414141"/>
<path d="M234.727 184H232.249V261.481H234.727V184Z" fill="#414141"/>
<path d="M228.944 184H226.465V261.481H228.944V184Z" fill="#414141"/>
<path d="M540.944 261.481L546.727 261.481L546.727 184.001L540.944 184.001L540.944 261.481Z" fill="#414141"/>
<path d="M530.204 261.481L538.878 261.481L538.878 184.001L530.204 184.001L530.204 261.481Z" fill="#414141"/>
<path d="M525.66 261.481L528.552 261.481L528.552 184.001L525.66 184.001L525.66 261.481Z" fill="#414141"/>
<path d="M520.291 261.481L522.769 261.481L522.769 184.001L520.291 184.001L520.291 261.481Z" fill="#414141"/>
<path d="M511.616 261.481L517.399 261.481L517.399 184.001L511.616 184.001L511.616 261.481Z" fill="#414141"/>
<path d="M500.876 261.481L509.55 261.481L509.55 184.001L500.876 184.001L500.876 261.481Z" fill="#414141"/>
<path d="M496.332 261.481L499.224 261.481L499.224 184.001L496.332 184.001L496.332 261.481Z" fill="#414141"/>
<path d="M490.963 261.481L493.441 261.481L493.441 184.001L490.963 184.001L490.963 261.481Z" fill="#414141"/>
<path d="M461.221 261.481L466.591 261.481L466.591 184.001L461.221 184.001L461.221 261.481Z" fill="#414141"/>
<path d="M469.07 261.481L477.744 261.481L477.744 184.001L469.07 184.001L469.07 261.481Z" fill="#414141"/>
<path d="M479.397 261.481L481.875 261.481L481.875 184.001L479.397 184.001L479.397 261.481Z" fill="#414141"/>
<path d="M485.18 261.481L487.658 261.481L487.658 184.001L485.18 184.001L485.18 261.481Z" fill="#414141"/>
<path d="M452.547 261.481L458.33 261.481L458.33 184.001L452.547 184.001L452.547 261.481Z" fill="#414141"/>
<path d="M441.808 261.481L450.482 261.481L450.482 184.001L441.808 184.001L441.808 261.481Z" fill="#414141"/>
<path d="M437.264 261.481L439.742 261.481L439.742 184.001L437.264 184.001L437.264 261.481Z" fill="#414141"/>
<path d="M431.894 261.481L434.373 261.481L434.373 184.001L431.894 184.001L431.894 261.481Z" fill="#414141"/>
<path d="M423.219 261.481L429.002 261.481L429.002 184.001L423.219 184.001L423.219 261.481Z" fill="#414141"/>
<path d="M412.479 261.481L421.154 261.481L421.154 184.001L412.479 184.001L412.479 261.481Z" fill="#414141"/>
<path d="M407.936 261.481L410.415 261.481L410.415 184.001L407.936 184.001L407.936 261.481Z" fill="#414141"/>
<path d="M402.566 261.481L405.044 261.481L405.044 184.001L402.566 184.001L402.566 261.481Z" fill="#414141"/>
<path d="M391 261.481L393.479 261.481L393.479 184.001L391 184.001L391 261.481Z" fill="#414141"/>
<path d="M396.783 261.481L399.262 261.481L399.262 184.001L396.783 184.001L396.783 261.481Z" fill="#414141"/>
<path d="M384.944 261.48L390.727 261.48L390.727 184L384.944 184L384.944 261.48Z" fill="#414141"/>
<path d="M374.204 261.48L382.878 261.48L382.878 184L374.204 184L374.204 261.48Z" fill="#414141"/>
<path d="M369.66 261.48L372.551 261.48L372.551 184L369.66 184L369.66 261.48Z" fill="#414141"/>
<path d="M364.29 261.48L366.769 261.48L366.769 184L364.29 184L364.29 261.48Z" fill="#414141"/>
<path d="M355.615 261.48L361.398 261.48L361.398 184L355.615 184L355.615 261.48Z" fill="#414141"/>
<path d="M344.875 261.48L353.55 261.48L353.55 184L344.875 184L344.875 261.48Z" fill="#414141"/>
<path d="M340.332 261.48L343.223 261.48L343.223 184L340.332 184L340.332 261.48Z" fill="#414141"/>
<path d="M334.962 261.48L337.44 261.48L337.44 184L334.962 184L334.962 261.48Z" fill="#414141"/>
<path d="M305.221 261.48L310.591 261.48L310.591 184L305.221 184L305.221 261.48Z" fill="#414141"/>
<path d="M313.069 261.48L321.744 261.48L321.744 184L313.069 184L313.069 261.48Z" fill="#414141"/>
<path d="M323.396 261.48L325.875 261.48L325.875 184L323.396 184L323.396 261.48Z" fill="#414141"/>
<path d="M329.179 261.48L331.658 261.48L331.658 184L329.179 184L329.179 261.48Z" fill="#414141"/>
<path d="M296.547 261.48L302.33 261.48L302.33 184L296.547 184L296.547 261.48Z" fill="#414141"/>
<path d="M285.807 261.48L294.481 261.48L294.481 184L285.807 184L285.807 261.48Z" fill="#414141"/>
<path d="M281.263 261.48L283.742 261.48L283.742 184L281.263 184L281.263 261.48Z" fill="#414141"/>
<path d="M275.894 261.48L278.372 261.48L278.372 184L275.894 184L275.894 261.48Z" fill="#414141"/>
<path d="M267.219 261.48L273.002 261.48L273.002 184L267.219 184L267.219 261.48Z" fill="#414141"/>
<path d="M256.479 261.48L265.153 261.48L265.153 184L256.479 184L256.479 261.48Z" fill="#414141"/>
<path d="M251.936 261.48L254.414 261.48L254.414 184L251.936 184L251.936 261.48Z" fill="#414141"/>
<path d="M246.566 261.48L249.044 261.48L249.044 184L246.566 184L246.566 261.48Z" fill="#414141"/>
<path d="M235 261.48L237.478 261.48L237.478 184L235 184L235 261.48Z" fill="#414141"/>
<path d="M240.783 261.48L243.261 261.48L243.261 184L240.783 184L240.783 261.48Z" fill="#414141"/>
<rect x="499" y="65" width="82" height="82" fill="#414141"/>
<line x1="44" y1="128.5" x2="167" y2="128.5" stroke="#414141" stroke-width="11"/>
<line x1="51" y1="315" x2="575" y2="315" stroke="#414141" stroke-width="10"/>
<line x1="51" y1="341" x2="575" y2="341" stroke="#414141" stroke-width="10"/>
<line x1="51" y1="368" x2="575" y2="368" stroke="#414141" stroke-width="10"/>
<rect x="45" y="161" width="535" height="127" stroke="#414141" stroke-width="2"/>
</svg>
