<svg width="1080" height="1920" viewBox="0 0 1080 1920" fill="none" xmlns="http://www.w3.org/2000/svg">
<g clip-path="url(#clip0_71_1416)">
<rect width="1080" height="1920" fill="#EEEEEE"/>
<mask id="mask0_71_1416" style="mask-type:luminance" maskUnits="userSpaceOnUse" x="0" y="-81" width="1080" height="2082">
<path d="M1080 2000.77L1080 -81L-0.00012207 -81L-0.000213067 2000.77L1080 2000.77Z" fill="white"/>
</mask>
<g mask="url(#mask0_71_1416)">
<path d="M1080 2000.77L1080 -80.9985L0.00183105 -80.9986L0.00174006 2000.77L1080 2000.77Z" fill="url(#paint0_radial_71_1416)"/>
<path style="mix-blend-mode:screen" d="M-852.821 -355.09C-569.024 -410.127 -269.162 -426.989 5.61731 -339.269C280.423 -251.548 526.015 -44.0215 593.839 227.207C608.554 286.069 614.845 346.675 616.762 407.176C627.076 734.665 501.31 1068.84 257.23 1296.9C216.622 1334.84 172.423 1370.18 121.312 1393.57C-10.5558 1453.89 -173.987 1424.1 -292.868 1342.44C-411.749 1260.81 -490.751 1134.55 -541.268 1002.56C-591.812 870.578 -616.787 731.074 -648.539 593.755C-679.076 461.693 -716.066 331.113 -753.029 200.586C-773.522 128.193 -794.231 55.2528 -828.818 -11.9884C-874.313 -100.438 -942.002 -173.82 -1014.63 -242.336C-1054.24 -279.704 -1072.09 -298.934 -1010.5 -321.417C-961.901 -339.165 -903.716 -345.228 -852.794 -355.09L-852.821 -355.09Z" fill="url(#paint1_linear_71_1416)"/>
<g style="mix-blend-mode:multiply">
<path d="M-454.084 1698.42C-398.562 1308.9 -306.994 921.932 -140.839 628.625C25.3152 335.364 276.684 150.019 516.575 226.058C568.646 242.557 619.127 270.668 668.021 304.294C932.591 486.097 1154.87 842.979 1251.12 1285.45C1267.15 1359.07 1279.83 1435.64 1280.54 1513.79C1282.43 1715.45 1201.44 1903.18 1094.75 2004.05C988.058 2104.93 859.786 2129.19 736.909 2114.17C614.033 2099.19 494.114 2047.63 373.566 2005.89C257.619 1965.76 140.604 1934.56 23.6442 1903.4C-41.2453 1886.09 -106.601 1868.79 -172.312 1872.24C-258.731 1876.81 -340.904 1918.28 -420.941 1968.81C-464.602 1996.39 -486.159 2007.37 -482.516 1916.63C-479.64 1844.98 -464.082 1768.22 -454.139 1698.33L-454.084 1698.42Z" fill="url(#paint2_linear_71_1416)" style="mix-blend-mode:screen"/>
</g>
<path style="mix-blend-mode:screen" d="M1339.31 1993.13C1270.22 2072.37 1195.4 2147.94 1108 2208.07C1020.6 2268.24 919.73 2312.66 813.026 2324.55C753.788 2331.16 692.12 2327.38 637.391 2304.54C556.661 2270.84 498.719 2198.73 464.375 2120.66C422.687 2025.89 411.428 1918.26 436.835 1818.26C462.242 1718.28 524.882 1626.79 612.686 1568.19C644.087 1547.24 679.241 1530.22 717.095 1525.23C756.839 1519.97 797.096 1528.17 835.841 1538.11C964.01 1571 1086.37 1623.43 1215.68 1651.98C1244.67 1658.38 1274.64 1663.59 1304.1 1659.4C1334.69 1655.05 1362.75 1640.84 1389.18 1625.39C1435.56 1598.27 1479.06 1566.58 1518.83 1531C1541.67 1510.58 1593.11 1433.08 1623.7 1434.72C1629.96 1480.21 1606.47 1540.79 1591.89 1584.04C1575.07 1633.95 1553.26 1682.24 1528.01 1728.72C1476.44 1823.73 1410.75 1911.13 1339.31 1993.1L1339.31 1993.13Z" fill="url(#paint3_linear_71_1416)"/>
<path style="mix-blend-mode:screen" d="M1762.92 -54.6789C1674.55 92.5023 1575.78 235.286 1452.12 356.601C1328.46 477.916 1178.34 577.477 1009.24 626.034C915.334 652.993 814.435 663.818 719.125 641.856C578.536 609.484 463.489 508.7 384.838 391.809C289.366 249.91 239.389 78.8146 250.972 -89.9389C262.528 -258.692 336.859 -423.933 461.653 -542.854C506.284 -585.374 558.151 -622.56 617.902 -641.036C680.65 -660.448 748.204 -658.236 813.841 -652.772C1030.98 -634.712 1244.44 -583.475 1462.08 -572.754C1510.93 -570.36 1560.96 -570.151 1607.34 -584.984C1655.54 -600.415 1696.77 -631.095 1734.97 -663.363C1802.04 -719.961 1863.06 -783.195 1916.9 -851.659C1947.84 -891.004 2008.19 -1030.48 2058.16 -1036.23C2081.73 -964.335 2061.62 -859.882 2050.82 -785.927C2038.35 -700.522 2017.29 -616.445 1990.18 -534.293C1934.77 -366.424 1854.31 -206.934 1762.92 -54.731L1762.92 -54.6789Z" fill="url(#paint4_linear_71_1416)"/>
<path style="mix-blend-mode:screen" d="M619.462 893.904C445.635 969.576 275.59 1056.46 126.793 1171.51C-22.0044 1286.55 -149.364 1431.36 -221.859 1601.39C-262.116 1695.83 -285.119 1799.24 -270.971 1900.41C-250.101 2049.65 -150.066 2179.84 -28.1606 2274.01C119.853 2388.35 305.371 2458.69 494.938 2464.99C684.532 2471.29 876.961 2412.16 1023.19 2295.69C1075.49 2254.05 1122.58 2204.3 1149.69 2144.37C1178.15 2081.45 1182.98 2011.16 1184 1942.52C1187.38 1715.5 1153.33 1488.67 1164.94 1261.88C1167.56 1211.01 1172.75 1159.12 1194.35 1112.62C1216.78 1064.32 1255.5 1024.93 1295.62 988.806C1366.07 925.416 1443.23 869.026 1525.47 820.625C1572.72 792.808 1734.91 745.395 1746.77 694.184C1669.09 661.942 1550.31 671.493 1466.61 674.667C1369.98 678.336 1273.83 691.061 1179.23 710.239C985.879 749.455 799.174 815.603 619.407 893.852L619.462 893.904Z" fill="url(#paint5_linear_71_1416)"/>
</g>
<path d="M457.387 175.1H421.787V191.9H449.887V203H421.787V230H407.987V164H457.387V175.1ZM491.63 198.1C491.63 195.233 490.796 193 489.13 191.4C487.53 189.8 485.396 189 482.73 189C480.263 189 478.096 189.633 476.23 190.9C474.363 192.167 472.996 194.267 472.13 197.2L460.43 193.6C461.563 189.2 464.03 185.667 467.83 183C471.696 180.333 476.863 179 483.33 179C487.73 179 491.563 179.7 494.83 181.1C498.096 182.433 500.63 184.467 502.43 187.2C504.296 189.933 505.23 193.367 505.23 197.5V217.8C505.23 220.333 506.43 221.6 508.83 221.6C509.963 221.6 511.03 221.433 512.03 221.1L511.23 229.6C509.496 230.467 507.33 230.9 504.73 230.9C502.396 230.9 500.296 230.5 498.43 229.7C496.563 228.9 495.096 227.7 494.03 226.1C492.963 224.433 492.43 222.367 492.43 219.9V219.5L494.83 219.1C494.43 221.633 493.33 223.8 491.53 225.6C489.73 227.333 487.53 228.667 484.93 229.6C482.396 230.533 479.763 231 477.03 231C473.63 231 470.696 230.5 468.23 229.5C465.763 228.433 463.863 226.9 462.53 224.9C461.196 222.9 460.53 220.433 460.53 217.5C460.53 213.767 461.73 210.733 464.13 208.4C466.53 206 469.963 204.367 474.43 203.5L493.23 199.7L493.13 208.2L481.13 210.6C478.863 211.067 477.13 211.7 475.93 212.5C474.796 213.233 474.23 214.467 474.23 216.2C474.23 217.867 474.83 219.133 476.03 220C477.296 220.867 478.796 221.3 480.53 221.3C481.93 221.3 483.296 221.133 484.63 220.8C485.963 220.467 487.163 219.933 488.23 219.2C489.296 218.467 490.13 217.467 490.73 216.2C491.33 214.933 491.63 213.4 491.63 211.6V198.1ZM536.298 164.7V213.7C536.298 216.1 536.898 217.867 538.098 219C539.365 220.067 541.065 220.6 543.198 220.6C544.865 220.6 546.332 220.367 547.598 219.9C548.865 219.367 549.998 218.667 550.998 217.8L553.198 226.9C551.598 228.167 549.598 229.167 547.198 229.9C544.798 230.633 542.265 231 539.598 231C536.265 231 533.298 230.5 530.698 229.5C528.165 228.5 526.165 226.9 524.698 224.7C523.298 222.5 522.598 219.567 522.598 215.9V168.5L536.298 164.7ZM552.298 180V190.2H513.398V180H552.298ZM574.58 164.7V213.7C574.58 216.1 575.18 217.867 576.38 219C577.646 220.067 579.346 220.6 581.48 220.6C583.146 220.6 584.613 220.367 585.88 219.9C587.146 219.367 588.28 218.667 589.28 217.8L591.48 226.9C589.88 228.167 587.88 229.167 585.48 229.9C583.08 230.633 580.546 231 577.88 231C574.546 231 571.58 230.5 568.98 229.5C566.446 228.5 564.446 226.9 562.98 224.7C561.58 222.5 560.88 219.567 560.88 215.9V168.5L574.58 164.7ZM590.58 180V190.2H551.68V180H590.58ZM622.648 179C627.715 179 632.148 180.033 635.948 182.1C639.815 184.167 642.815 187.133 644.948 191C647.148 194.867 648.248 199.533 648.248 205C648.248 210.4 647.148 215.067 644.948 219C642.815 222.867 639.815 225.833 635.948 227.9C632.148 229.967 627.715 231 622.648 231C617.648 231 613.215 229.967 609.348 227.9C605.482 225.833 602.448 222.867 600.248 219C598.115 215.067 597.048 210.4 597.048 205C597.048 199.533 598.115 194.867 600.248 191C602.448 187.133 605.482 184.167 609.348 182.1C613.215 180.033 617.648 179 622.648 179ZM622.648 189.2C620.115 189.2 617.948 189.8 616.148 191C614.415 192.133 613.082 193.867 612.148 196.2C611.215 198.533 610.748 201.467 610.748 205C610.748 208.533 611.215 211.467 612.148 213.8C613.082 216.133 614.415 217.9 616.148 219.1C617.948 220.233 620.115 220.8 622.648 220.8C625.115 220.8 627.215 220.233 628.948 219.1C630.748 217.9 632.115 216.133 633.048 213.8C633.982 211.467 634.448 208.533 634.448 205C634.448 201.467 633.982 198.533 633.048 196.2C632.115 193.867 630.748 192.133 628.948 191C627.215 189.8 625.115 189.2 622.648 189.2ZM674.212 164V188L672.512 208.7H661.512L659.812 188V164H674.212ZM667.012 215.5C669.612 215.5 671.678 216.2 673.212 217.6C674.745 219 675.512 220.867 675.512 223.2C675.512 225.6 674.745 227.5 673.212 228.9C671.678 230.233 669.612 230.9 667.012 230.9C664.412 230.9 662.345 230.233 660.812 228.9C659.278 227.5 658.512 225.6 658.512 223.2C658.512 220.867 659.278 219 660.812 217.6C662.345 216.2 664.412 215.5 667.012 215.5Z" fill="white"/>
<path d="M353.569 303.32V307.736H342.721V335H337.585V307.736H326.737V303.32H353.569ZM364.4 310.52C366.736 310.52 368.8 311.016 370.592 312.008C372.384 313 373.776 314.44 374.768 316.328C375.792 318.184 376.304 320.408 376.304 323C376.304 325.592 375.792 327.832 374.768 329.72C373.776 331.576 372.384 333 370.592 333.992C368.8 334.984 366.736 335.48 364.4 335.48C362.064 335.48 360 334.984 358.208 333.992C356.416 333 355.008 331.576 353.984 329.72C352.96 327.832 352.448 325.592 352.448 323C352.448 320.408 352.96 318.184 353.984 316.328C355.008 314.44 356.416 313 358.208 312.008C360 311.016 362.064 310.52 364.4 310.52ZM364.4 314.552C362.96 314.552 361.728 314.888 360.704 315.56C359.712 316.2 358.944 317.144 358.4 318.392C357.856 319.64 357.584 321.176 357.584 323C357.584 324.792 357.856 326.328 358.4 327.608C358.944 328.856 359.712 329.816 360.704 330.488C361.728 331.128 362.96 331.448 364.4 331.448C365.84 331.448 367.056 331.128 368.048 330.488C369.04 329.816 369.808 328.856 370.352 327.608C370.896 326.328 371.168 324.792 371.168 323C371.168 321.176 370.896 319.64 370.352 318.392C369.808 317.144 369.04 316.2 368.048 315.56C367.056 314.888 365.84 314.552 364.4 314.552ZM382.765 335V311H387.133L387.613 315.32C388.253 313.752 389.197 312.568 390.445 311.768C391.725 310.936 393.293 310.52 395.149 310.52C395.629 310.52 396.109 310.568 396.589 310.664C397.069 310.728 397.469 310.84 397.789 311L397.069 315.512C396.717 315.384 396.317 315.288 395.869 315.224C395.453 315.128 394.877 315.08 394.141 315.08C393.149 315.08 392.173 315.352 391.213 315.896C390.253 316.408 389.453 317.192 388.813 318.248C388.205 319.304 387.901 320.648 387.901 322.28V335H382.765ZM402.64 335V311H407.2L407.536 317.24L406.864 316.568C407.312 315.192 407.952 314.056 408.784 313.16C409.648 312.232 410.656 311.56 411.808 311.144C412.992 310.728 414.24 310.52 415.552 310.52C417.248 310.52 418.768 310.856 420.112 311.528C421.488 312.168 422.576 313.144 423.376 314.456C424.176 315.768 424.576 317.432 424.576 319.448V335H419.44V321.032C419.44 318.664 418.944 317.032 417.952 316.136C416.992 315.208 415.776 314.744 414.304 314.744C413.248 314.744 412.224 315 411.232 315.512C410.24 315.992 409.408 316.776 408.736 317.864C408.096 318.952 407.776 320.408 407.776 322.232V335H402.64ZM446.231 319.592C446.231 317.992 445.783 316.76 444.887 315.896C444.023 315 442.823 314.552 441.287 314.552C439.847 314.552 438.615 314.888 437.591 315.56C436.567 316.232 435.815 317.32 435.335 318.824L431.015 317C431.623 315.048 432.807 313.48 434.567 312.296C436.359 311.112 438.663 310.52 441.479 310.52C443.399 310.52 445.095 310.84 446.567 311.48C448.039 312.088 449.191 313.016 450.023 314.264C450.887 315.512 451.319 317.112 451.319 319.064V329.768C451.319 330.952 451.911 331.544 453.095 331.544C453.671 331.544 454.231 331.464 454.775 331.304L454.487 334.856C453.751 335.208 452.823 335.384 451.703 335.384C450.679 335.384 449.751 335.208 448.919 334.856C448.119 334.472 447.479 333.912 446.999 333.176C446.551 332.408 446.327 331.464 446.327 330.344V330.008L447.383 329.96C447.095 331.208 446.503 332.248 445.607 333.08C444.711 333.88 443.671 334.488 442.487 334.904C441.303 335.288 440.103 335.48 438.887 335.48C437.383 335.48 436.023 335.24 434.807 334.76C433.623 334.28 432.679 333.56 431.975 332.6C431.303 331.608 430.967 330.392 430.967 328.952C430.967 327.16 431.543 325.688 432.695 324.536C433.879 323.384 435.543 322.6 437.687 322.184L446.999 320.36L446.951 323.96L440.183 325.352C438.839 325.608 437.831 325.976 437.159 326.456C436.487 326.936 436.151 327.64 436.151 328.568C436.151 329.464 436.487 330.184 437.159 330.728C437.863 331.24 438.791 331.496 439.943 331.496C440.743 331.496 441.511 331.4 442.247 331.208C443.015 331.016 443.703 330.712 444.311 330.296C444.919 329.848 445.383 329.288 445.703 328.616C446.055 327.912 446.231 327.08 446.231 326.12V319.592ZM488.278 319.592C488.278 317.992 487.83 316.76 486.934 315.896C486.07 315 484.87 314.552 483.334 314.552C481.894 314.552 480.662 314.888 479.638 315.56C478.614 316.232 477.862 317.32 477.382 318.824L473.062 317C473.67 315.048 474.854 313.48 476.614 312.296C478.406 311.112 480.71 310.52 483.526 310.52C485.446 310.52 487.142 310.84 488.614 311.48C490.086 312.088 491.238 313.016 492.07 314.264C492.934 315.512 493.366 317.112 493.366 319.064V329.768C493.366 330.952 493.958 331.544 495.142 331.544C495.718 331.544 496.278 331.464 496.822 331.304L496.534 334.856C495.798 335.208 494.87 335.384 493.75 335.384C492.726 335.384 491.798 335.208 490.966 334.856C490.166 334.472 489.526 333.912 489.046 333.176C488.598 332.408 488.374 331.464 488.374 330.344V330.008L489.43 329.96C489.142 331.208 488.55 332.248 487.654 333.08C486.758 333.88 485.718 334.488 484.534 334.904C483.35 335.288 482.15 335.48 480.934 335.48C479.43 335.48 478.07 335.24 476.854 334.76C475.67 334.28 474.726 333.56 474.022 332.6C473.35 331.608 473.014 330.392 473.014 328.952C473.014 327.16 473.59 325.688 474.742 324.536C475.926 323.384 477.59 322.6 479.734 322.184L489.046 320.36L488.998 323.96L482.23 325.352C480.886 325.608 479.878 325.976 479.206 326.456C478.534 326.936 478.198 327.64 478.198 328.568C478.198 329.464 478.534 330.184 479.206 330.728C479.91 331.24 480.838 331.496 481.99 331.496C482.79 331.496 483.558 331.4 484.294 331.208C485.062 331.016 485.75 330.712 486.358 330.296C486.966 329.848 487.43 329.288 487.75 328.616C488.102 327.912 488.278 327.08 488.278 326.12V319.592ZM506.773 300.2V328.28C506.773 329.464 506.981 330.28 507.397 330.728C507.813 331.176 508.501 331.4 509.461 331.4C510.037 331.4 510.517 331.368 510.901 331.304C511.317 331.208 511.829 331.048 512.437 330.824L511.861 334.664C511.317 334.92 510.693 335.112 509.989 335.24C509.285 335.4 508.581 335.48 507.877 335.48C505.733 335.48 504.149 334.936 503.125 333.848C502.133 332.728 501.637 331.016 501.637 328.712V300.2H506.773ZM521.726 300.2V328.28C521.726 329.464 521.934 330.28 522.35 330.728C522.766 331.176 523.454 331.4 524.414 331.4C524.99 331.4 525.47 331.368 525.854 331.304C526.27 331.208 526.782 331.048 527.39 330.824L526.814 334.664C526.27 334.92 525.646 335.112 524.942 335.24C524.238 335.4 523.534 335.48 522.83 335.48C520.686 335.48 519.102 334.936 518.078 333.848C517.086 332.728 516.59 331.016 516.59 328.712V300.2H521.726ZM532.732 301.592C533.628 301.592 534.364 301.816 534.94 302.264C535.548 302.68 536.012 303.272 536.332 304.04C536.652 304.776 536.812 305.624 536.812 306.584C536.812 307.768 536.588 308.92 536.14 310.04C535.692 311.128 535.036 312.136 534.172 313.064C533.34 313.96 532.332 314.696 531.148 315.272L528.748 313.208C529.612 312.888 530.38 312.472 531.052 311.96C531.724 311.448 532.284 310.872 532.732 310.232C533.212 309.592 533.548 308.936 533.74 308.264L533.548 308.168C533.388 308.264 533.196 308.344 532.972 308.408C532.78 308.472 532.492 308.504 532.108 308.504C531.66 308.504 531.196 308.392 530.716 308.168C530.268 307.912 529.884 307.544 529.564 307.064C529.244 306.584 529.084 305.96 529.084 305.192C529.084 304.488 529.244 303.864 529.564 303.32C529.916 302.776 530.364 302.36 530.908 302.072C531.452 301.752 532.06 301.592 532.732 301.592ZM545.529 306.968C544.409 306.968 543.545 306.696 542.937 306.152C542.361 305.576 542.073 304.776 542.073 303.752C542.073 302.728 542.361 301.944 542.937 301.4C543.545 300.856 544.409 300.584 545.529 300.584C546.617 300.584 547.449 300.856 548.025 301.4C548.633 301.944 548.937 302.728 548.937 303.752C548.937 304.776 548.633 305.576 548.025 306.152C547.449 306.696 546.617 306.968 545.529 306.968ZM548.073 311V335H542.937V311H548.073ZM556.109 335V311H560.669L561.005 317.24L560.333 316.568C560.781 315.192 561.421 314.056 562.253 313.16C563.117 312.232 564.125 311.56 565.277 311.144C566.461 310.728 567.709 310.52 569.021 310.52C570.717 310.52 572.237 310.856 573.581 311.528C574.957 312.168 576.045 313.144 576.845 314.456C577.645 315.768 578.045 317.432 578.045 319.448V335H572.909V321.032C572.909 318.664 572.413 317.032 571.421 316.136C570.461 315.208 569.245 314.744 567.773 314.744C566.717 314.744 565.693 315 564.701 315.512C563.709 315.992 562.877 316.776 562.205 317.864C561.565 318.952 561.245 320.408 561.245 322.232V335H556.109ZM588.42 306.968C587.3 306.968 586.436 306.696 585.828 306.152C585.252 305.576 584.964 304.776 584.964 303.752C584.964 302.728 585.252 301.944 585.828 301.4C586.436 300.856 587.3 300.584 588.42 300.584C589.508 300.584 590.34 300.856 590.916 301.4C591.524 301.944 591.828 302.728 591.828 303.752C591.828 304.776 591.524 305.576 590.916 306.152C590.34 306.696 589.508 306.968 588.42 306.968ZM590.964 311V335H585.828V311H590.964ZM597.464 335V331.448L609.08 317.912L612.008 314.936L607.832 315.032H597.56V311H617.672V314.552L606.056 328.088L603.176 331.064L607.736 330.968H618.104V335H597.464ZM626.998 306.968C625.878 306.968 625.014 306.696 624.406 306.152C623.83 305.576 623.542 304.776 623.542 303.752C623.542 302.728 623.83 301.944 624.406 301.4C625.014 300.856 625.878 300.584 626.998 300.584C628.086 300.584 628.918 300.856 629.494 301.4C630.102 301.944 630.406 302.728 630.406 303.752C630.406 304.776 630.102 305.576 629.494 306.152C628.918 306.696 628.086 306.968 626.998 306.968ZM629.542 311V335H624.406V311H629.542ZM647.994 310.52C650.33 310.52 652.394 311.016 654.186 312.008C655.978 313 657.37 314.44 658.362 316.328C659.386 318.184 659.898 320.408 659.898 323C659.898 325.592 659.386 327.832 658.362 329.72C657.37 331.576 655.978 333 654.186 333.992C652.394 334.984 650.33 335.48 647.994 335.48C645.658 335.48 643.594 334.984 641.802 333.992C640.01 333 638.602 331.576 637.578 329.72C636.554 327.832 636.042 325.592 636.042 323C636.042 320.408 636.554 318.184 637.578 316.328C638.602 314.44 640.01 313 641.802 312.008C643.594 311.016 645.658 310.52 647.994 310.52ZM647.994 314.552C646.554 314.552 645.322 314.888 644.298 315.56C643.306 316.2 642.538 317.144 641.994 318.392C641.45 319.64 641.178 321.176 641.178 323C641.178 324.792 641.45 326.328 641.994 327.608C642.538 328.856 643.306 329.816 644.298 330.488C645.322 331.128 646.554 331.448 647.994 331.448C649.434 331.448 650.65 331.128 651.642 330.488C652.634 329.816 653.402 328.856 653.946 327.608C654.49 326.328 654.762 324.792 654.762 323C654.762 321.176 654.49 319.64 653.946 318.392C653.402 317.144 652.634 316.2 651.642 315.56C650.65 314.888 649.434 314.552 647.994 314.552ZM681.968 345.08V311H686.528L686.912 317.72L686.24 316.904C686.624 315.656 687.216 314.552 688.016 313.592C688.816 312.632 689.808 311.88 690.992 311.336C692.208 310.792 693.536 310.52 694.976 310.52C696.928 310.52 698.704 311.016 700.304 312.008C701.904 313 703.168 314.424 704.096 316.28C705.024 318.104 705.488 320.328 705.488 322.952C705.488 325.576 705.008 327.832 704.048 329.72C703.12 331.576 701.84 333 700.208 333.992C698.608 334.984 696.816 335.48 694.832 335.48C692.784 335.48 691.04 334.952 689.6 333.896C688.16 332.808 687.136 331.432 686.528 329.768L687.104 328.952V345.08H681.968ZM693.728 331.304C695.808 331.304 697.424 330.568 698.576 329.096C699.76 327.624 700.352 325.592 700.352 323C700.352 320.408 699.776 318.376 698.624 316.904C697.472 315.4 695.872 314.648 693.824 314.648C692.48 314.648 691.296 315 690.272 315.704C689.28 316.376 688.496 317.336 687.92 318.584C687.376 319.8 687.104 321.272 687.104 323C687.104 324.696 687.376 326.168 687.92 327.416C688.464 328.664 689.232 329.624 690.224 330.296C691.216 330.968 692.384 331.304 693.728 331.304ZM722.622 335.48C720.222 335.48 718.11 334.984 716.286 333.992C714.462 333 713.038 331.576 712.014 329.72C711.022 327.832 710.526 325.592 710.526 323C710.526 320.408 711.022 318.184 712.014 316.328C713.038 314.44 714.446 313 716.238 312.008C718.03 311.016 720.062 310.52 722.334 310.52C724.67 310.52 726.654 311 728.286 311.96C729.918 312.92 731.166 314.232 732.03 315.896C732.894 317.56 733.326 319.448 733.326 321.56C733.326 322.136 733.31 322.68 733.278 323.192C733.246 323.704 733.198 324.152 733.134 324.536H713.838V320.6H730.878L728.334 321.368C728.334 319.192 727.79 317.528 726.702 316.376C725.614 315.192 724.126 314.6 722.238 314.6C720.862 314.6 719.662 314.92 718.638 315.56C717.614 316.2 716.83 317.16 716.286 318.44C715.742 319.688 715.47 321.224 715.47 323.048C715.47 324.84 715.758 326.36 716.334 327.608C716.91 328.856 717.726 329.8 718.782 330.44C719.838 331.08 721.086 331.4 722.526 331.4C724.126 331.4 725.422 331.096 726.414 330.488C727.406 329.88 728.19 329.032 728.766 327.944L732.846 329.864C732.27 331.016 731.486 332.024 730.494 332.888C729.534 333.72 728.382 334.36 727.038 334.808C725.694 335.256 724.222 335.48 722.622 335.48ZM739.812 335V311H744.18L744.66 315.32C745.3 313.752 746.244 312.568 747.492 311.768C748.772 310.936 750.34 310.52 752.196 310.52C752.676 310.52 753.156 310.568 753.636 310.664C754.116 310.728 754.516 310.84 754.836 311L754.116 315.512C753.764 315.384 753.364 315.288 752.916 315.224C752.5 315.128 751.924 315.08 751.188 315.08C750.196 315.08 749.22 315.352 748.26 315.896C747.3 316.408 746.5 317.192 745.86 318.248C745.252 319.304 744.948 320.648 744.948 322.28V335H739.812ZM302.703 391V367H307.071L307.551 371.32C308.191 369.752 309.135 368.568 310.383 367.768C311.663 366.936 313.231 366.52 315.087 366.52C315.567 366.52 316.047 366.568 316.527 366.664C317.007 366.728 317.407 366.84 317.727 367L317.007 371.512C316.655 371.384 316.255 371.288 315.807 371.224C315.391 371.128 314.815 371.08 314.079 371.08C313.087 371.08 312.111 371.352 311.151 371.896C310.191 372.408 309.391 373.192 308.751 374.248C308.143 375.304 307.839 376.648 307.839 378.28V391H302.703ZM325.17 362.968C324.05 362.968 323.186 362.696 322.578 362.152C322.002 361.576 321.714 360.776 321.714 359.752C321.714 358.728 322.002 357.944 322.578 357.4C323.186 356.856 324.05 356.584 325.17 356.584C326.258 356.584 327.09 356.856 327.666 357.4C328.274 357.944 328.578 358.728 328.578 359.752C328.578 360.776 328.274 361.576 327.666 362.152C327.09 362.696 326.258 362.968 325.17 362.968ZM327.714 367V391H322.578V367H327.714ZM335.75 401.08V367H340.31L340.694 373.72L340.022 372.904C340.406 371.656 340.998 370.552 341.798 369.592C342.598 368.632 343.59 367.88 344.774 367.336C345.99 366.792 347.318 366.52 348.758 366.52C350.71 366.52 352.486 367.016 354.086 368.008C355.686 369 356.95 370.424 357.878 372.28C358.806 374.104 359.27 376.328 359.27 378.952C359.27 381.576 358.79 383.832 357.83 385.72C356.902 387.576 355.622 389 353.99 389.992C352.39 390.984 350.598 391.48 348.614 391.48C346.566 391.48 344.822 390.952 343.382 389.896C341.942 388.808 340.918 387.432 340.31 385.768L340.886 384.952V401.08H335.75ZM347.51 387.304C349.59 387.304 351.206 386.568 352.358 385.096C353.542 383.624 354.134 381.592 354.134 379C354.134 376.408 353.558 374.376 352.406 372.904C351.254 371.4 349.654 370.648 347.606 370.648C346.262 370.648 345.078 371 344.054 371.704C343.062 372.376 342.278 373.336 341.702 374.584C341.158 375.8 340.886 377.272 340.886 379C340.886 380.696 341.158 382.168 341.702 383.416C342.246 384.664 343.014 385.624 344.006 386.296C344.998 386.968 346.166 387.304 347.51 387.304ZM376.403 391.48C374.003 391.48 371.891 390.984 370.067 389.992C368.243 389 366.819 387.576 365.795 385.72C364.803 383.832 364.307 381.592 364.307 379C364.307 376.408 364.803 374.184 365.795 372.328C366.819 370.44 368.227 369 370.019 368.008C371.811 367.016 373.843 366.52 376.115 366.52C378.451 366.52 380.435 367 382.067 367.96C383.699 368.92 384.947 370.232 385.811 371.896C386.675 373.56 387.107 375.448 387.107 377.56C387.107 378.136 387.091 378.68 387.059 379.192C387.027 379.704 386.979 380.152 386.915 380.536H367.619V376.6H384.659L382.115 377.368C382.115 375.192 381.571 373.528 380.483 372.376C379.395 371.192 377.907 370.6 376.019 370.6C374.643 370.6 373.443 370.92 372.419 371.56C371.395 372.2 370.611 373.16 370.067 374.44C369.523 375.688 369.251 377.224 369.251 379.048C369.251 380.84 369.539 382.36 370.115 383.608C370.691 384.856 371.507 385.8 372.563 386.44C373.619 387.08 374.867 387.4 376.307 387.4C377.907 387.4 379.203 387.096 380.195 386.488C381.187 385.88 381.971 385.032 382.547 383.944L386.627 385.864C386.051 387.016 385.267 388.024 384.275 388.888C383.315 389.72 382.163 390.36 380.819 390.808C379.475 391.256 378.003 391.48 376.403 391.48ZM400.039 359.944V383.8C400.039 384.984 400.343 385.848 400.951 386.392C401.591 386.936 402.439 387.208 403.495 387.208C404.359 387.208 405.111 387.08 405.751 386.824C406.391 386.536 406.983 386.152 407.527 385.672L408.679 389.416C407.943 390.056 407.031 390.568 405.943 390.952C404.887 391.304 403.703 391.48 402.391 391.48C401.015 391.48 399.751 391.256 398.599 390.808C397.447 390.36 396.551 389.64 395.911 388.648C395.271 387.624 394.935 386.296 394.903 384.664V361.384L400.039 359.944ZM408.295 367V371.032H390.295V367H408.295ZM423.935 391.48C421.535 391.48 419.423 390.984 417.599 389.992C415.775 389 414.351 387.576 413.327 385.72C412.335 383.832 411.839 381.592 411.839 379C411.839 376.408 412.335 374.184 413.327 372.328C414.351 370.44 415.759 369 417.551 368.008C419.343 367.016 421.375 366.52 423.647 366.52C425.983 366.52 427.967 367 429.599 367.96C431.231 368.92 432.479 370.232 433.343 371.896C434.207 373.56 434.639 375.448 434.639 377.56C434.639 378.136 434.623 378.68 434.591 379.192C434.559 379.704 434.511 380.152 434.447 380.536H415.151V376.6H432.191L429.647 377.368C429.647 375.192 429.103 373.528 428.015 372.376C426.927 371.192 425.439 370.6 423.551 370.6C422.175 370.6 420.975 370.92 419.951 371.56C418.927 372.2 418.143 373.16 417.599 374.44C417.055 375.688 416.783 377.224 416.783 379.048C416.783 380.84 417.071 382.36 417.647 383.608C418.223 384.856 419.039 385.8 420.095 386.44C421.151 387.08 422.399 387.4 423.839 387.4C425.439 387.4 426.735 387.096 427.727 386.488C428.719 385.88 429.503 385.032 430.079 383.944L434.159 385.864C433.583 387.016 432.799 388.024 431.807 388.888C430.847 389.72 429.695 390.36 428.351 390.808C427.007 391.256 425.535 391.48 423.935 391.48ZM441.125 391V367H445.493L445.973 371.32C446.613 369.752 447.557 368.568 448.805 367.768C450.085 366.936 451.653 366.52 453.509 366.52C453.989 366.52 454.469 366.568 454.949 366.664C455.429 366.728 455.829 366.84 456.149 367L455.429 371.512C455.077 371.384 454.677 371.288 454.229 371.224C453.813 371.128 453.237 371.08 452.501 371.08C451.509 371.08 450.533 371.352 449.573 371.896C448.613 372.408 447.813 373.192 447.173 374.248C446.565 375.304 446.261 376.648 446.261 378.28V391H441.125ZM470.95 391.48C468.55 391.48 466.438 390.984 464.614 389.992C462.79 389 461.366 387.576 460.342 385.72C459.35 383.832 458.854 381.592 458.854 379C458.854 376.408 459.35 374.184 460.342 372.328C461.366 370.44 462.774 369 464.566 368.008C466.358 367.016 468.39 366.52 470.662 366.52C472.998 366.52 474.982 367 476.614 367.96C478.246 368.92 479.494 370.232 480.358 371.896C481.222 373.56 481.654 375.448 481.654 377.56C481.654 378.136 481.638 378.68 481.606 379.192C481.574 379.704 481.526 380.152 481.462 380.536H462.166V376.6H479.206L476.662 377.368C476.662 375.192 476.118 373.528 475.03 372.376C473.942 371.192 472.454 370.6 470.566 370.6C469.19 370.6 467.99 370.92 466.966 371.56C465.942 372.2 465.158 373.16 464.614 374.44C464.07 375.688 463.798 377.224 463.798 379.048C463.798 380.84 464.086 382.36 464.662 383.608C465.238 384.856 466.054 385.8 467.11 386.44C468.166 387.08 469.414 387.4 470.854 387.4C472.454 387.4 473.75 387.096 474.742 386.488C475.734 385.88 476.518 385.032 477.094 383.944L481.174 385.864C480.598 387.016 479.814 388.024 478.822 388.888C477.862 389.72 476.71 390.36 475.366 390.808C474.022 391.256 472.55 391.48 470.95 391.48ZM508.742 356.2V384.28C508.742 385.464 508.95 386.28 509.366 386.728C509.782 387.176 510.47 387.4 511.43 387.4C512.006 387.4 512.486 387.368 512.87 387.304C513.286 387.208 513.798 387.048 514.406 386.824L513.83 390.664C513.286 390.92 512.662 391.112 511.958 391.24C511.254 391.4 510.55 391.48 509.846 391.48C507.702 391.48 506.118 390.936 505.094 389.848C504.102 388.728 503.606 387.016 503.606 384.712V356.2H508.742ZM519.748 357.592C520.644 357.592 521.38 357.816 521.956 358.264C522.564 358.68 523.028 359.272 523.348 360.04C523.668 360.776 523.828 361.624 523.828 362.584C523.828 363.768 523.604 364.92 523.156 366.04C522.708 367.128 522.052 368.136 521.188 369.064C520.356 369.96 519.348 370.696 518.164 371.272L515.764 369.208C516.628 368.888 517.396 368.472 518.068 367.96C518.74 367.448 519.3 366.872 519.748 366.232C520.228 365.592 520.564 364.936 520.756 364.264L520.564 364.168C520.404 364.264 520.212 364.344 519.988 364.408C519.796 364.472 519.508 364.504 519.124 364.504C518.676 364.504 518.212 364.392 517.732 364.168C517.284 363.912 516.9 363.544 516.58 363.064C516.26 362.584 516.1 361.96 516.1 361.192C516.1 360.488 516.26 359.864 516.58 359.32C516.932 358.776 517.38 358.36 517.924 358.072C518.468 357.752 519.076 357.592 519.748 357.592ZM538.494 366.52C540.83 366.52 542.894 367.016 544.686 368.008C546.478 369 547.87 370.44 548.862 372.328C549.886 374.184 550.398 376.408 550.398 379C550.398 381.592 549.886 383.832 548.862 385.72C547.87 387.576 546.478 389 544.686 389.992C542.894 390.984 540.83 391.48 538.494 391.48C536.158 391.48 534.094 390.984 532.302 389.992C530.51 389 529.102 387.576 528.078 385.72C527.054 383.832 526.542 381.592 526.542 379C526.542 376.408 527.054 374.184 528.078 372.328C529.102 370.44 530.51 369 532.302 368.008C534.094 367.016 536.158 366.52 538.494 366.52ZM538.494 370.552C537.054 370.552 535.822 370.888 534.798 371.56C533.806 372.2 533.038 373.144 532.494 374.392C531.95 375.64 531.678 377.176 531.678 379C531.678 380.792 531.95 382.328 532.494 383.608C533.038 384.856 533.806 385.816 534.798 386.488C535.822 387.128 537.054 387.448 538.494 387.448C539.934 387.448 541.15 387.128 542.142 386.488C543.134 385.816 543.902 384.856 544.446 383.608C544.99 382.328 545.262 380.792 545.262 379C545.262 377.176 544.99 375.64 544.446 374.392C543.902 373.144 543.134 372.2 542.142 371.56C541.15 370.888 539.934 370.552 538.494 370.552ZM556.859 401.08V367H561.419L561.803 373.72L561.131 372.904C561.515 371.656 562.107 370.552 562.907 369.592C563.707 368.632 564.699 367.88 565.883 367.336C567.099 366.792 568.427 366.52 569.867 366.52C571.819 366.52 573.595 367.016 575.195 368.008C576.795 369 578.059 370.424 578.987 372.28C579.915 374.104 580.379 376.328 580.379 378.952C580.379 381.576 579.899 383.832 578.939 385.72C578.011 387.576 576.731 389 575.099 389.992C573.499 390.984 571.707 391.48 569.723 391.48C567.675 391.48 565.931 390.952 564.491 389.896C563.051 388.808 562.027 387.432 561.419 385.768L561.995 384.952V401.08H556.859ZM568.619 387.304C570.699 387.304 572.315 386.568 573.467 385.096C574.651 383.624 575.243 381.592 575.243 379C575.243 376.408 574.667 374.376 573.515 372.904C572.363 371.4 570.763 370.648 568.715 370.648C567.371 370.648 566.187 371 565.163 371.704C564.171 372.376 563.387 373.336 562.811 374.584C562.267 375.8 561.995 377.272 561.995 379C561.995 380.696 562.267 382.168 562.811 383.416C563.355 384.664 564.123 385.624 565.115 386.296C566.107 386.968 567.275 387.304 568.619 387.304ZM597.513 391.48C595.113 391.48 593.001 390.984 591.177 389.992C589.353 389 587.929 387.576 586.905 385.72C585.913 383.832 585.417 381.592 585.417 379C585.417 376.408 585.913 374.184 586.905 372.328C587.929 370.44 589.337 369 591.129 368.008C592.921 367.016 594.953 366.52 597.225 366.52C599.561 366.52 601.545 367 603.177 367.96C604.809 368.92 606.057 370.232 606.921 371.896C607.785 373.56 608.217 375.448 608.217 377.56C608.217 378.136 608.201 378.68 608.169 379.192C608.137 379.704 608.089 380.152 608.025 380.536H588.729V376.6H605.769L603.225 377.368C603.225 375.192 602.681 373.528 601.593 372.376C600.505 371.192 599.017 370.6 597.129 370.6C595.753 370.6 594.553 370.92 593.529 371.56C592.505 372.2 591.721 373.16 591.177 374.44C590.633 375.688 590.361 377.224 590.361 379.048C590.361 380.84 590.649 382.36 591.225 383.608C591.801 384.856 592.617 385.8 593.673 386.44C594.729 387.08 595.977 387.4 597.417 387.4C599.017 387.4 600.313 387.096 601.305 386.488C602.297 385.88 603.081 385.032 603.657 383.944L607.737 385.864C607.161 387.016 606.377 388.024 605.385 388.888C604.425 389.72 603.273 390.36 601.929 390.808C600.585 391.256 599.113 391.48 597.513 391.48ZM614.703 391V367H619.071L619.551 371.32C620.191 369.752 621.135 368.568 622.383 367.768C623.663 366.936 625.231 366.52 627.087 366.52C627.567 366.52 628.047 366.568 628.527 366.664C629.007 366.728 629.407 366.84 629.727 367L629.007 371.512C628.655 371.384 628.255 371.288 627.807 371.224C627.391 371.128 626.815 371.08 626.079 371.08C625.087 371.08 624.111 371.352 623.151 371.896C622.191 372.408 621.391 373.192 620.751 374.248C620.143 375.304 619.839 376.648 619.839 378.28V391H614.703ZM647.934 375.592C647.934 373.992 647.486 372.76 646.59 371.896C645.726 371 644.526 370.552 642.99 370.552C641.55 370.552 640.318 370.888 639.294 371.56C638.27 372.232 637.518 373.32 637.038 374.824L632.718 373C633.326 371.048 634.51 369.48 636.27 368.296C638.062 367.112 640.366 366.52 643.182 366.52C645.102 366.52 646.798 366.84 648.27 367.48C649.742 368.088 650.894 369.016 651.726 370.264C652.59 371.512 653.022 373.112 653.022 375.064V385.768C653.022 386.952 653.614 387.544 654.798 387.544C655.374 387.544 655.934 387.464 656.478 387.304L656.19 390.856C655.454 391.208 654.526 391.384 653.406 391.384C652.382 391.384 651.454 391.208 650.622 390.856C649.822 390.472 649.182 389.912 648.702 389.176C648.254 388.408 648.03 387.464 648.03 386.344V386.008L649.086 385.96C648.798 387.208 648.206 388.248 647.31 389.08C646.414 389.88 645.374 390.488 644.19 390.904C643.006 391.288 641.806 391.48 640.59 391.48C639.086 391.48 637.726 391.24 636.51 390.76C635.326 390.28 634.382 389.56 633.678 388.6C633.006 387.608 632.67 386.392 632.67 384.952C632.67 383.16 633.246 381.688 634.398 380.536C635.582 379.384 637.246 378.6 639.39 378.184L648.702 376.36L648.654 379.96L641.886 381.352C640.542 381.608 639.534 381.976 638.862 382.456C638.19 382.936 637.854 383.64 637.854 384.568C637.854 385.464 638.19 386.184 638.862 386.728C639.566 387.24 640.494 387.496 641.646 387.496C642.446 387.496 643.214 387.4 643.95 387.208C644.718 387.016 645.406 386.712 646.014 386.296C646.622 385.848 647.086 385.288 647.406 384.616C647.758 383.912 647.934 383.08 647.934 382.12V375.592ZM659.901 391V387.448L671.517 373.912L674.445 370.936L670.269 371.032H659.997V367H680.109V370.552L668.493 384.088L665.613 387.064L670.173 386.968H680.541V391H659.901ZM689.435 362.968C688.315 362.968 687.451 362.696 686.843 362.152C686.267 361.576 685.979 360.776 685.979 359.752C685.979 358.728 686.267 357.944 686.843 357.4C687.451 356.856 688.315 356.584 689.435 356.584C690.523 356.584 691.355 356.856 691.931 357.4C692.539 357.944 692.843 358.728 692.843 359.752C692.843 360.776 692.539 361.576 691.931 362.152C691.355 362.696 690.523 362.968 689.435 362.968ZM691.979 367V391H686.843V367H691.979ZM710.431 366.52C712.767 366.52 714.831 367.016 716.623 368.008C718.415 369 719.807 370.44 720.799 372.328C721.823 374.184 722.335 376.408 722.335 379C722.335 381.592 721.823 383.832 720.799 385.72C719.807 387.576 718.415 389 716.623 389.992C714.831 390.984 712.767 391.48 710.431 391.48C708.095 391.48 706.031 390.984 704.239 389.992C702.447 389 701.039 387.576 700.015 385.72C698.991 383.832 698.479 381.592 698.479 379C698.479 376.408 698.991 374.184 700.015 372.328C701.039 370.44 702.447 369 704.239 368.008C706.031 367.016 708.095 366.52 710.431 366.52ZM710.431 370.552C708.991 370.552 707.759 370.888 706.735 371.56C705.743 372.2 704.975 373.144 704.431 374.392C703.887 375.64 703.615 377.176 703.615 379C703.615 380.792 703.887 382.328 704.431 383.608C704.975 384.856 705.743 385.816 706.735 386.488C707.759 387.128 708.991 387.448 710.431 387.448C711.871 387.448 713.087 387.128 714.079 386.488C715.071 385.816 715.839 384.856 716.383 383.608C716.927 382.328 717.199 380.792 717.199 379C717.199 377.176 716.927 375.64 716.383 374.392C715.839 373.144 715.071 372.2 714.079 371.56C713.087 370.888 711.871 370.552 710.431 370.552ZM728.797 391V367H733.357L733.693 373.24L733.021 372.568C733.469 371.192 734.109 370.056 734.941 369.16C735.805 368.232 736.813 367.56 737.965 367.144C739.149 366.728 740.397 366.52 741.709 366.52C743.405 366.52 744.925 366.856 746.269 367.528C747.645 368.168 748.733 369.144 749.533 370.456C750.333 371.768 750.733 373.432 750.733 375.448V391H745.597V377.032C745.597 374.664 745.101 373.032 744.109 372.136C743.149 371.208 741.933 370.744 740.461 370.744C739.405 370.744 738.381 371 737.389 371.512C736.397 371.992 735.565 372.776 734.893 373.864C734.253 374.952 733.933 376.408 733.933 378.232V391H728.797ZM769.075 391.48C766.675 391.48 764.563 390.984 762.739 389.992C760.915 389 759.491 387.576 758.467 385.72C757.475 383.832 756.979 381.592 756.979 379C756.979 376.408 757.475 374.184 758.467 372.328C759.491 370.44 760.899 369 762.691 368.008C764.483 367.016 766.515 366.52 768.787 366.52C771.123 366.52 773.107 367 774.739 367.96C776.371 368.92 777.619 370.232 778.483 371.896C779.347 373.56 779.779 375.448 779.779 377.56C779.779 378.136 779.763 378.68 779.731 379.192C779.699 379.704 779.651 380.152 779.587 380.536H760.291V376.6H777.331L774.787 377.368C774.787 375.192 774.243 373.528 773.155 372.376C772.067 371.192 770.579 370.6 768.691 370.6C767.315 370.6 766.115 370.92 765.091 371.56C764.067 372.2 763.283 373.16 762.739 374.44C762.195 375.688 761.923 377.224 761.923 379.048C761.923 380.84 762.211 382.36 762.787 383.608C763.363 384.856 764.179 385.8 765.235 386.44C766.291 387.08 767.539 387.4 768.979 387.4C770.579 387.4 771.875 387.096 772.867 386.488C773.859 385.88 774.643 385.032 775.219 383.944L779.299 385.864C778.723 387.016 777.939 388.024 776.947 388.888C775.987 389.72 774.835 390.36 773.491 390.808C772.147 391.256 770.675 391.48 769.075 391.48Z" fill="white"/>
<circle cx="199.16" cy="932.924" r="17.5159" stroke="#FF721F" stroke-width="5"/>
<path fill-rule="evenodd" clip-rule="evenodd" d="M827.862 1071.31C835.665 1071.31 841.99 1064.98 841.99 1057.18C841.99 1049.38 835.665 1043.05 827.862 1043.05C820.058 1043.05 813.733 1049.38 813.733 1057.18C813.733 1064.98 820.058 1071.31 827.862 1071.31ZM827.862 1077.2C838.916 1077.2 847.877 1068.23 847.877 1057.18C847.877 1046.13 838.916 1037.16 827.862 1037.16C816.807 1037.16 807.846 1046.13 807.846 1057.18C807.846 1068.23 816.807 1077.2 827.862 1077.2Z" fill="#FF721F"/>
<path fill-rule="evenodd" clip-rule="evenodd" d="M864.361 691.423C876.296 691.423 885.97 681.748 885.97 669.814C885.97 657.88 876.296 648.205 864.361 648.205C852.427 648.205 842.753 657.88 842.753 669.814C842.753 681.748 852.427 691.423 864.361 691.423ZM864.361 700.427C881.268 700.427 894.974 686.721 894.974 669.814C894.974 652.907 881.268 639.202 864.361 639.202C847.455 639.202 833.749 652.907 833.749 669.814C833.749 686.721 847.455 700.427 864.361 700.427Z" fill="#FF721F"/>
<circle cx="160.306" cy="971.778" r="15.3062" fill="#FF721F"/>
<circle cx="787.831" cy="711.023" r="11.774" fill="#FF721F"/>
<circle cx="844.597" cy="1004.6" r="10.5966" fill="#FF721F"/>
<circle cx="229.597" cy="997.597" r="10.5966" fill="#FF721F"/>
<ellipse cx="540.232" cy="1180.93" rx="144.232" ry="35.3221" fill="white" fill-opacity="0.5"/>
<circle cx="369.207" cy="788.391" r="21.1933" fill="#FF721F"/>
<path d="M587.054 855.252C536.339 901.767 478.125 938.056 425.19 959.183C371.946 980.433 325.568 985.809 296.83 972.67C268.093 959.532 260.394 929.432 273.498 889.83C286.525 850.458 319.85 802.79 370.566 756.274C421.282 709.759 479.495 673.47 532.43 652.344C585.674 631.093 632.052 625.717 660.79 638.856C689.527 651.994 697.226 682.094 684.122 721.697C671.095 761.068 637.77 808.736 587.054 855.252Z" stroke="white" stroke-width="8"/>
<path d="M398.524 1025.94V1090.52C398.524 1093.78 402.223 1095.67 404.868 1093.76L430.33 1075.36C431.729 1074.34 433.618 1074.34 435.017 1075.36L464.479 1096.65C465.878 1097.66 467.767 1097.66 469.166 1096.65L498.628 1075.36C500.027 1074.34 501.916 1074.34 503.315 1075.36L532.777 1096.65C534.176 1097.66 536.065 1097.66 537.464 1096.65L566.926 1075.36C568.325 1074.34 570.214 1074.34 571.613 1075.36L601.075 1096.65C602.474 1097.66 604.364 1097.66 605.762 1096.65L635.224 1075.36C636.623 1074.34 638.513 1074.34 639.911 1075.36L665.374 1093.76C668.019 1095.67 671.717 1093.78 671.717 1090.52V842.321C671.717 840.112 669.926 838.321 667.717 838.321H402.524C400.315 838.321 398.524 840.112 398.524 842.321V1025.94Z" fill="#FF721F"/>
<path d="M410.867 824.915H361.494C354.672 824.915 349.151 819.394 349.151 812.572V763.2C349.151 742.781 365.762 726.17 386.18 726.17H410.867C417.689 726.17 423.21 731.691 423.21 738.513V812.572C423.21 819.394 417.689 824.915 410.867 824.915Z" fill="#9F9F9F"/>
<path d="M721.087 812.572C721.087 819.394 715.566 824.915 708.744 824.915H659.372C652.549 824.915 647.029 819.394 647.029 812.572L622.343 738.513C622.343 731.691 627.863 726.17 634.686 726.17H684.058C704.477 726.17 721.087 742.781 721.087 763.2V812.572Z" fill="#9F9F9F"/>
<path d="M671.717 750.856V812.572C671.717 819.483 666.287 824.915 659.374 824.915H410.867C403.955 824.915 398.524 819.483 398.524 812.572V664.455C398.524 657.542 403.955 652.112 410.867 652.112H572.973L597.659 726.17L671.717 750.856Z" fill="white"/>
<path d="M708.745 800.229H361.494C341.004 800.229 324.465 816.767 324.465 837.258V987.02C324.465 1007.51 341.004 1024.05 361.494 1024.05H708.745C729.235 1024.05 745.774 1007.51 745.774 987.02V837.258C745.774 816.767 729.235 800.229 708.745 800.229Z" fill="#889EF4"/>
<path d="M572.971 738.513C572.971 745.425 578.401 750.856 585.314 750.856H671.715L572.971 652.112V738.513Z" fill="#D4D4D4"/>
<path d="M410.867 874.287H386.181C379.359 874.287 373.838 868.766 373.838 861.944C373.838 855.121 379.359 849.601 386.181 849.601H410.867C417.689 849.601 423.21 855.121 423.21 861.944C423.21 868.766 417.689 874.287 410.867 874.287Z" fill="#414141"/>
<path d="M671.717 915.429V1061.08C671.717 1067.99 666.287 1073.42 659.374 1073.42H410.867C403.955 1073.42 398.524 1067.99 398.524 1061.08V915.429H671.717Z" fill="#FF721F"/>
<path d="M696.403 912.962C696.403 919.873 690.972 925.305 684.059 925.305H386.181C379.268 925.305 373.838 919.873 373.838 912.962C373.838 906.049 379.268 900.619 386.181 900.619H684.059C690.972 900.619 696.403 906.049 696.403 912.962Z" fill="#414141"/>
<path d="M494.203 1033.92C488.388 1033.92 483.533 1032.8 479.638 1030.55C475.798 1028.25 473.137 1024.9 471.656 1020.51L484.658 1014.91C484.932 1016.89 485.426 1018.48 486.139 1019.69C486.907 1020.84 487.922 1021.69 489.183 1022.24C490.445 1022.73 491.926 1022.98 493.627 1022.98C495.163 1022.98 496.452 1022.73 497.494 1022.24C498.591 1021.69 499.442 1020.92 500.045 1019.93C500.649 1018.95 500.95 1017.77 500.95 1016.4C500.95 1014.97 500.649 1013.82 500.045 1012.94C499.497 1012.06 498.674 1011.43 497.577 1011.05C496.534 1010.66 495.245 1010.47 493.709 1010.47C492.996 1010.47 492.338 1010.5 491.734 1010.55C491.131 1010.55 490.445 1010.61 489.677 1010.72V1001.5C490.116 1001.56 490.555 1001.61 490.994 1001.67C491.433 1001.67 491.954 1001.67 492.557 1001.67C495.135 1001.67 496.973 1001.15 498.07 1000.1C499.222 999.006 499.798 997.305 499.798 995.001C499.798 993.027 499.222 991.518 498.07 990.476C496.973 989.433 495.41 988.912 493.38 988.912C491.241 988.912 489.485 989.488 488.114 990.64C486.742 991.737 485.864 993.63 485.48 996.318L473.055 992.039C473.659 989.022 474.948 986.471 476.923 984.386C478.897 982.302 481.366 980.711 484.328 979.614C487.346 978.517 490.665 977.968 494.285 977.968C498.454 977.968 501.965 978.571 504.818 979.778C507.67 980.985 509.837 982.713 511.319 984.962C512.8 987.212 513.54 989.845 513.54 992.862C513.54 995.221 513.156 997.196 512.388 998.787C511.675 1000.38 510.743 1001.67 509.591 1002.65C508.493 1003.64 507.369 1004.38 506.217 1004.88C505.065 1005.31 504.105 1005.59 503.337 1005.7V1005.95C504.324 1005.95 505.449 1006.14 506.71 1006.52C507.972 1006.91 509.207 1007.54 510.413 1008.41C511.62 1009.24 512.608 1010.39 513.376 1011.87C514.199 1013.35 514.61 1015.19 514.61 1017.38C514.61 1020.78 513.705 1023.72 511.895 1026.19C510.139 1028.66 507.725 1030.58 504.653 1031.95C501.581 1033.26 498.098 1033.92 494.203 1033.92Z" fill="white"/>
<path d="M533.929 1033.1V1001.83C533.929 1000.4 533.929 998.951 533.929 997.47C533.984 995.934 534.011 994.371 534.011 992.78C532.201 994.425 530.198 995.879 528.004 997.141C525.81 998.348 523.506 999.171 521.092 999.609L519.775 987.925C521.202 987.815 522.71 987.458 524.301 986.855C525.947 986.252 527.565 985.511 529.156 984.633C530.747 983.756 532.173 982.823 533.435 981.836C534.697 980.793 535.657 979.778 536.315 978.791H547.588V1033.1H533.929Z" fill="white"/>
<path d="M577.184 1033.92C572.466 1033.92 568.352 1033.02 564.841 1031.21C561.385 1029.34 558.478 1026.33 556.119 1022.16L568.544 1015.98C569.147 1018.18 570.107 1019.93 571.424 1021.25C572.795 1022.57 574.825 1023.23 577.513 1023.23C579.214 1023.23 580.668 1022.92 581.874 1022.32C583.081 1021.72 584.014 1020.84 584.672 1019.69C585.385 1018.48 585.742 1017.03 585.742 1015.33C585.742 1013.68 585.413 1012.31 584.754 1011.21C584.151 1010.11 583.246 1009.29 582.039 1008.74C580.832 1008.14 579.324 1007.84 577.513 1007.84C576.197 1007.84 575.017 1007.98 573.975 1008.25C572.933 1008.47 571.973 1008.83 571.095 1009.32C570.272 1009.76 569.504 1010.33 568.791 1011.05L558.093 1009.07L561.55 978.791H595.781V989.735H571.835L570.437 1000.6L570.19 1001.91H570.272C571.369 1000.65 572.905 999.692 574.88 999.033C576.855 998.375 579.049 998.046 581.463 998.046C585.029 998.046 588.073 998.759 590.597 1000.19C593.12 1001.61 595.068 1003.56 596.439 1006.03C597.811 1008.5 598.496 1011.32 598.496 1014.5C598.496 1017.85 597.92 1020.76 596.768 1023.23C595.671 1025.64 594.108 1027.64 592.078 1029.23C590.103 1030.82 587.826 1032 585.248 1032.77C582.725 1033.54 580.037 1033.92 577.184 1033.92Z" fill="white"/>
<path d="M682.983 723.345C604.686 908.197 360.964 1005.92 299.15 972.956" stroke="white" stroke-width="8"/>
<circle cx="540" cy="1590" r="85" transform="rotate(-180 540 1590)" fill="#FF721F"/>
<path fill-rule="evenodd" clip-rule="evenodd" d="M549.307 1629.51L510.071 1590.6L549.307 1551.69L557.958 1560.27L527.372 1590.6L557.958 1620.93L549.307 1629.51Z" fill="white"/>
</g>
<defs>
<radialGradient id="paint0_radial_71_1416" cx="0" cy="0" r="1" gradientUnits="userSpaceOnUse" gradientTransform="translate(1541.73 629.328) rotate(90) scale(1641.97 1703.67)">
<stop stop-color="#889EF4"/>
<stop offset="1" stop-color="#103CE9"/>
</radialGradient>
<linearGradient id="paint1_linear_71_1416" x1="1607.66" y1="1797.06" x2="204.874" y2="976.569" gradientUnits="userSpaceOnUse">
<stop stop-color="#889EF4"/>
<stop offset="1" stop-color="#103CE9"/>
</linearGradient>
<linearGradient id="paint2_linear_71_1416" x1="1637.92" y1="-372.585" x2="-1011.55" y2="1070.43" gradientUnits="userSpaceOnUse">
<stop stop-color="#889EF4"/>
<stop offset="1" stop-color="#103CE9"/>
</linearGradient>
<linearGradient id="paint3_linear_71_1416" x1="1354.6" y1="2004.78" x2="601.222" y2="1521.44" gradientUnits="userSpaceOnUse">
<stop stop-color="#889EF4"/>
<stop offset="1" stop-color="#103CE9"/>
</linearGradient>
<linearGradient id="paint4_linear_71_1416" x1="1791.4" y1="-39.7772" x2="425.523" y2="-605.183" gradientUnits="userSpaceOnUse">
<stop stop-color="#74BBEA"/>
<stop offset="1" stop-color="#103CE9"/>
</linearGradient>
<linearGradient id="paint5_linear_71_1416" x1="606.482" y1="863.133" x2="622.353" y2="895.27" gradientUnits="userSpaceOnUse">
<stop stop-color="#74BBEA"/>
<stop offset="1" stop-color="#103CE9"/>
</linearGradient>
<clipPath id="clip0_71_1416">
<rect width="1080" height="1920" fill="white"/>
</clipPath>
</defs>
</svg>
