<svg width="291" height="200" viewBox="0 0 291 200" fill="none" xmlns="http://www.w3.org/2000/svg">
<path fill-rule="evenodd" clip-rule="evenodd" d="M173.403 72.1024C173.403 75.7799 172.474 80.0519 169.762 83.8037H177.377V24.9626H153.009V48.9968C166.159 53.083 173.365 61.5154 173.365 72.1024H173.403Z" fill="#414141"/>
<path d="M131.315 46.9168C136.813 46.9168 141.939 48.217 145.84 49.22C137.556 47.7712 124.703 49.8886 118.054 55.0892V83.804H142.422V51.1516C147.697 52.1174 151.672 54.2348 154.123 55.9065V83.804H159.436C154.458 89.4132 145.134 92.8679 137.11 91.6049V92.7936C160.29 94.6138 170.06 83.6554 170.06 71.2854C170.06 56.7237 156.427 48.217 142.459 46.4711V25H118.091V46.7311C102.34 49.8886 86.8871 59.2868 86.8871 74.8143C86.8871 98.7 120.282 113.522 149.369 113.522C193.537 113.522 227.526 92.1992 227.526 62.2215C227.452 25.8916 178.381 0 139.859 0C95.691 0 63.1873 28.0461 63.1873 58.0238C63.1873 73.5513 71.9168 86.5528 82.8752 95.6168L83.6925 95.0595C75.0001 87.8158 67.162 76.5603 67.162 61.0699C69.4651 28.269 109.881 9.80685 145.84 9.80685C171.285 9.80685 216.976 15.6761 216.976 58.2096C216.976 80.3864 193.277 109.25 143.462 109.25C117.979 109.25 98.1427 95.5796 98.1427 75.9659C98.1427 58.9897 111.441 46.8797 131.278 46.8797L131.315 46.9168Z" fill="#414141"/>
<path d="M36.9614 198.812V195.469H45.5053V166.494H22.6969V195.469H31.4636V198.812H0V195.469H7.98664V136.442H0V133.099H31.4636V136.442H22.6969V162.593H45.5053V136.442H36.9614V133.099H68.0907V136.442H60.1041V195.469H68.0907V198.812H36.9614Z" fill="#414141"/>
<path d="M80.1631 140.9V133.099H94.4276V140.9H80.1631ZM73.1423 198.849V195.506H80.8318V155.09H73.1423V151.746H94.9849V195.506H102.117V198.849H73.1423Z" fill="#414141"/>
<path d="M105.164 198.812V195.468H113.039V127.823H105.164V124.48H127.304V195.506H134.77V198.849H105.164V198.812Z" fill="#414141"/>
<path d="M157.021 198.812C149.22 198.812 145.022 194.8 145.022 188.633V155.015H137.333V151.672H145.022V132.987C149.332 132.987 153.901 133.099 158.321 132.987V151.672H169.354V155.015H158.321V195.431H169.577V198.775H157.021V198.812Z" fill="#414141"/>
<path d="M223.031 184.658C221.397 189.079 214.711 200 198.403 200C180.238 200 170.951 187.556 170.951 174.926C170.951 157.429 186.516 150.186 198.069 150.186C208.321 150.186 223.254 156.352 224.443 174.183C224.666 177.638 224.332 181.427 223.031 184.658ZM207.578 159.25C205.758 155.126 202.378 153.306 197.957 153.306C186.813 153.306 186.627 164.747 186.627 174.703C186.627 188.113 187.816 190.49 188.67 192.088C190.082 194.8 193.091 197.288 198.069 197.288C209.213 197.288 209.213 185.29 209.101 174.257C208.99 162.259 208.247 160.736 207.578 159.25Z" fill="#414141"/>
<path d="M262.519 198.811V195.468H268.797V167.682C268.797 161.404 268.797 155.238 261.888 155.238C257.987 155.238 251.598 159.138 250.112 165.49C249.555 167.422 249.666 169.502 249.666 174.666V195.431H256.798V198.774H227.824V195.431H235.513V155.015H227.824V151.672H249.666V158.804C252.044 155.795 253.975 153.603 258.619 151.783C261.962 150.371 265.008 150.037 267.163 150.037C268.017 150.037 270.617 150.037 273.663 150.891C282.727 153.603 283.173 160.513 283.173 165.49V195.431H290.64V198.774H262.519V198.811Z" fill="#414141"/>
</svg>
