<svg width="293" height="190" viewBox="0 0 293 190" fill="none" xmlns="http://www.w3.org/2000/svg">
<path fill-rule="evenodd" clip-rule="evenodd" d="M51.2605 120.719C121.148 163.156 191.457 88.3661 285.436 129.403C179.832 80.5239 128.712 135.846 51.2605 120.719Z" fill="#414141"/>
<path fill-rule="evenodd" clip-rule="evenodd" d="M0 65.2578C34.0332 183.326 177.453 51.1117 293 126.042C166.528 21.9795 68.7678 163.718 0 65.2578Z" fill="#414141"/>
<path d="M23.2251 66.2641L86.389 3.10016L89.4892 0L92.8576 2.82018L163.329 61.8063L157.179 69.1557L90.0768 12.9883L30.0131 73.052L23.2251 66.2641Z" fill="#414141"/>
<path fill-rule="evenodd" clip-rule="evenodd" d="M105.042 63.9761V72.877C105.042 74.3206 103.861 75.5003 102.419 75.5003H93.5181V63.9746H105.042V63.9761ZM93.5181 48.8909H102.419C103.863 48.8909 105.042 50.072 105.042 51.5142V60.4151H93.5181V48.8894V48.8909ZM89.9571 63.9761V75.5018H81.0562C79.6125 75.5018 78.4329 74.3206 78.4329 72.8785V63.9775H89.9586L89.9571 63.9761ZM81.0562 48.8909H89.9571V60.4166H78.4314V51.5156C78.4314 50.072 79.6125 48.8923 81.0547 48.8923L81.0562 48.8909Z" fill="#414141"/>
<path fill-rule="evenodd" clip-rule="evenodd" d="M259.019 161.914H268.257L273.703 170.977L279.124 161.914H288.312L277.858 177.563V188.838H269.51V177.563L259.018 161.914H259.019ZM217.937 161.914H225.702L235.799 176.78V161.914H243.657V188.838H235.799L225.757 174.054V188.838H217.937V161.914ZM190.874 178.573L187.934 168.896L184.981 178.573H190.873H190.874ZM192.636 184.401H183.21L181.856 188.838H173.365L183.498 161.914H192.605L202.696 188.838H193.984L192.637 184.401H192.636ZM144.682 173.421H146.733C148.35 173.421 149.484 173.139 150.136 172.581C150.788 172.022 151.114 171.308 151.114 170.437C151.114 169.567 150.833 168.877 150.261 168.288C149.697 167.699 148.633 167.404 147.065 167.404H144.684V173.421H144.682ZM136.334 161.914H150.172C153.187 161.914 155.444 162.628 156.947 164.063C158.445 165.498 159.197 167.541 159.197 170.194C159.197 172.846 158.376 175.045 156.74 176.573C155.104 178.109 152.605 178.873 149.245 178.873H144.682V188.838H136.334V161.914ZM88.2626 161.914H99.2371L103.418 178.297L107.61 161.914H118.534V188.838H111.727V168.313L106.474 188.838H100.307L95.0681 168.313V188.838H88.2611V161.914H88.2626ZM51.73 175.414C51.73 178.128 52.2375 180.083 53.2466 181.267C54.2615 182.451 55.6409 183.048 57.3835 183.048C59.1261 183.048 60.5609 182.465 61.5394 181.305C62.5237 180.139 63.0122 178.059 63.0122 175.044C63.0122 172.512 62.4989 170.663 61.4767 169.497C60.4487 168.324 59.0634 167.741 57.3091 167.741C55.5549 167.741 54.2761 168.336 53.2597 169.521C52.2375 170.707 51.73 172.674 51.73 175.413V175.414ZM43.4197 175.395C43.4197 171.002 44.6416 167.581 47.0929 165.135C49.5442 162.685 52.9535 161.462 57.3281 161.462C61.7027 161.462 65.2637 162.665 67.6887 165.065C70.1137 167.471 71.324 170.844 71.324 175.175C71.324 178.322 70.7976 180.897 69.7375 182.909C68.6788 184.922 67.1433 186.488 65.1441 187.611C63.1391 188.732 60.6441 189.29 57.6547 189.29C54.6654 189.29 52.1077 188.808 50.1143 187.842C48.1282 186.871 46.5111 185.342 45.276 183.249C44.0409 181.162 43.4211 178.542 43.4211 175.395H43.4197ZM20.6191 177.82L27.9145 180.019C27.426 182.062 26.6546 183.774 25.5959 185.14C24.5431 186.513 23.2395 187.548 21.6734 188.243C20.1131 188.939 18.1255 189.29 15.7136 189.29C12.7797 189.29 10.3926 188.865 8.53049 188.017C6.67564 187.164 5.07744 185.667 3.73005 183.53C2.38267 181.393 1.70605 178.648 1.70605 175.313C1.70605 170.864 2.89012 167.442 5.25972 165.048C7.63514 162.659 10.9876 161.462 15.3258 161.462C18.7161 161.462 21.3861 162.144 23.3284 163.518C25.2649 164.89 26.7129 166.997 27.6535 169.842L20.3201 171.465C20.0635 170.65 19.7937 170.055 19.5123 169.679C19.0427 169.046 18.4711 168.558 17.8018 168.219C17.1252 167.875 16.3728 167.706 15.5387 167.706C13.6459 167.706 12.1993 168.464 11.1961 169.975C10.4378 171.098 10.0558 172.864 10.0558 175.265C10.0558 178.249 10.5078 180.286 11.4163 181.394C12.3248 182.498 13.5978 183.049 15.2397 183.049C16.8817 183.049 18.0351 182.605 18.8503 181.708C19.6654 180.818 20.2545 179.52 20.6234 177.822L20.6191 177.82Z" fill="#414141"/>
</svg>
