<svg width="476" height="199" viewBox="0 0 476 199" fill="none" xmlns="http://www.w3.org/2000/svg">
<path d="M7.91085 11.8767V114.909C5.30417 115.239 2.73814 115.565 0.19244 115.89C-0.0819474 117.053 -0.0565412 120.554 0.228008 121.469H38.8556V115.93C36.2185 115.468 33.5915 115.356 31.061 114.863V69.4522C32.6413 69.1829 80.1814 69.2591 81.0249 69.5234V114.914C78.4131 115.244 75.8471 115.57 73.2048 115.905V121.459H111.97V115.905C109.343 115.57 106.782 115.244 104.261 114.924C103.982 113.42 104.048 12.7811 104.322 11.8563C106.853 11.5311 109.414 11.2059 112.046 10.8706C112.046 9.33095 112.046 7.91328 112.046 6.49561C112.046 6.13485 112.046 5.77408 112.046 5.33201H73.1947V10.8807C75.8522 11.2212 78.4436 11.5515 80.9944 11.8767C81.2586 14.7018 81.1367 56.5459 80.8775 57.4402H31.0559V11.8767C33.7083 11.5362 36.2947 11.2008 38.8658 10.8706V5.40315C37.6463 5.15417 1.05625 5.18465 0.0958961 5.43363V10.8858C2.74322 11.2212 5.30417 11.5464 7.90577 11.8767H7.91085Z" fill="white"/>
<path d="M468.002 115.021C468.002 114.401 468.002 113.918 468.002 113.441C468.002 97.3939 468.002 81.3474 468.002 65.3008C468.002 63.7155 468.007 62.1301 467.931 60.5498C467.733 56.5611 467.148 52.6333 465.766 48.8579C463.444 42.5216 459.181 38.2229 452.596 36.4241C448.424 35.2808 444.171 35.1741 439.903 35.7127C434.827 36.353 430.172 38.1924 425.807 40.8194C422.423 42.857 419.283 45.2299 416.173 47.6536C415.802 47.9433 415.416 48.2126 414.801 48.6699V37.3997H385.981C385.955 39.295 385.96 41.0938 385.97 42.9332C388.511 43.2584 390.879 43.5632 393.262 43.8732V115.026C390.828 115.326 388.465 115.62 386.047 115.92V121.398C387.703 121.662 421.26 121.576 422.129 121.311V115.925C419.669 115.615 417.281 115.315 414.817 115.006V113.42C414.817 94.2842 414.817 75.1533 414.817 56.0174C414.817 55.7328 414.847 55.4432 414.812 55.1637C414.74 54.5997 415.01 54.2796 415.462 53.9798C418.485 51.9829 421.646 50.2451 425.005 48.8782C427.876 47.7095 430.828 47.237 433.943 47.5368C440.126 48.1364 444.044 51.2918 445.812 57.242C446.686 60.1942 446.89 63.2327 446.895 66.2815C446.92 82.1655 446.905 98.0494 446.905 113.933C446.905 114.284 446.854 114.635 446.823 115.016C444.329 115.326 441.93 115.625 439.486 115.935C439.486 116.982 439.486 117.876 439.486 118.766C439.486 119.655 439.486 120.519 439.486 121.454H475.217V115.9C472.819 115.605 470.492 115.315 468.002 115.006V115.021Z" fill="white"/>
<path d="M239.727 39.3969H224.275C224.041 41.2008 224.102 45.9518 224.362 46.8765C225.556 46.8765 226.77 46.8765 227.984 46.8765H231.516C232.735 46.8765 233.955 46.8664 235.169 46.8765C236.368 46.8867 237.573 46.8257 238.843 46.9223C238.843 47.6032 238.843 48.1265 238.843 48.6499C238.843 66.5206 238.833 84.3914 238.868 102.262C238.868 104.488 239.051 106.729 239.321 108.939C239.869 113.456 242.085 116.911 246.094 119.198C249.788 121.302 253.787 122.211 257.979 122.348C264.62 122.567 271.078 121.398 277.435 119.609C280.011 118.883 282.532 117.973 285.093 117.186C285.804 116.967 286.048 116.596 286.012 115.865C285.956 114.691 286.007 113.512 285.992 112.333C285.992 112.069 285.916 111.805 285.865 111.469C285.311 111.581 284.844 111.683 284.371 111.769C279.833 112.587 275.27 112.933 270.677 112.379C264.976 111.693 261.927 108.908 260.987 103.283C260.576 100.814 260.382 98.2784 260.372 95.7733C260.316 79.8538 260.342 63.9343 260.347 48.0097C260.347 47.659 260.403 47.3084 260.443 46.841H280.077C280.321 45.4131 280.281 40.3675 280.001 39.3563H260.327V15.0222C253.355 17.2529 246.572 19.4226 239.722 21.6177V39.402L239.727 39.3969Z" fill="white"/>
<path d="M187.446 11.2925V114.975C184.982 115.3 182.583 115.61 180.155 115.931V121.357C181.389 121.642 215.159 121.596 216.043 121.322V115.941C213.62 115.626 211.267 115.321 208.813 115.001V5.4084C208.584 5.33219 208.467 5.26105 208.355 5.26105C199.255 5.25089 190.16 5.2458 181.059 5.24072C180.82 5.24072 180.576 5.28645 180.337 5.32202C180.302 5.32202 180.266 5.36267 180.241 5.39316C180.21 5.41857 180.19 5.45413 180.18 5.4643V10.1289C182.634 10.5252 185.027 10.9063 187.446 11.2925Z" fill="white"/>
<path d="M128.479 115.9V121.454H164.433V115.895C161.999 115.585 159.637 115.285 157.152 114.97V38.843H128.499V43.9039C130.958 44.3054 133.382 44.6966 135.75 45.0828V114.985C133.306 115.295 130.943 115.595 128.479 115.905V115.9Z" fill="white"/>
<path d="M159.87 13.9854C159.901 7.41538 157.116 3.02518 152.376 1.07907C147.67 -0.851805 142.045 -0.282705 138.229 3.52823C135.521 6.23653 134.378 9.57491 134.464 13.3604C134.693 23.716 145.14 28.5737 153.234 24.3562C157.863 21.9427 159.759 17.7964 159.87 13.9854Z" fill="white"/>
<path d="M50.1459 168.486V172.485C50.1459 173.826 50.1612 175.163 50.1459 176.504C50.1307 177.779 50.2323 179.065 50.0748 180.31H36.3199C36.3199 178.293 36.3199 176.352 36.3199 174.411C36.3199 172.439 36.3351 170.468 36.3097 168.435C34.45 168.42 32.7732 168.405 31.1218 168.435C30.8525 170.513 30.949 197.525 31.2285 198.45C32.0516 198.45 32.9002 198.455 33.7488 198.45C34.5821 198.445 35.4154 198.425 36.3554 198.404V185.325H50.1815V198.384H55.4609V168.486H50.151H50.1459Z" fill="white"/>
<path d="M293.731 193.796V185.239C297.526 185.117 301.236 185.305 305.052 185.127C304.782 183.501 304.544 182.038 304.284 180.462H293.705V173.069H306.891V168.511C304.721 168.257 289.198 168.359 288.36 168.623V198.369H307.277V193.785H293.731V193.796Z" fill="white"/>
<path d="M128.636 180.452C128.403 178.094 128.489 174.014 128.804 173.049H141.751V168.496H123.291V198.363H142.173V193.811C137.589 193.745 133.103 193.851 128.646 193.75C128.397 191.6 128.489 186.082 128.804 185.147H139.947C139.678 183.511 139.429 182.017 139.17 180.452H128.631H128.636Z" fill="white"/>
<path d="M332.348 174.624C332.612 172.947 332.856 171.402 333.1 169.848C332.892 169.726 332.76 169.629 332.617 169.568C329.599 168.338 326.454 167.805 323.207 168.044C321.195 168.191 319.34 168.841 317.653 170.015C313.67 172.785 312.526 180.086 318.319 183.099C319.325 183.623 320.351 184.116 321.398 184.558C322.445 185 323.537 185.33 324.589 185.757C325.641 186.179 326.693 186.616 327.709 187.119C328.517 187.525 329.172 188.125 329.498 189.024C330.138 190.798 329.533 192.535 327.851 193.521C326.241 194.461 324.472 194.603 322.663 194.426C320.011 194.166 317.501 193.389 315.077 192.302C314.798 192.175 314.508 192.068 314.086 191.9C313.832 193.552 313.593 195.091 313.354 196.631C316.83 198.069 320.285 198.902 323.908 198.877C326.124 198.861 328.268 198.435 330.234 197.337C332.572 196.031 334.086 194.085 334.508 191.433C335.087 187.795 334.157 185.183 331.088 183.247C330.234 182.708 329.33 182.225 328.395 181.844C326.52 181.077 324.589 180.432 322.719 179.654C321.866 179.304 321.012 178.857 320.295 178.287C319.066 177.312 318.857 175.584 319.848 174.36C320.336 173.755 321.047 173.262 321.754 172.927C322.831 172.414 324.025 172.378 325.214 172.475C327.303 172.647 329.274 173.237 331.169 174.111C331.53 174.273 331.891 174.426 332.358 174.629L332.348 174.624Z" fill="white"/>
<path d="M427.358 196.621C431.087 198.155 434.776 199.06 438.648 198.826C440.086 198.739 441.56 198.419 442.911 197.926C446.087 196.768 448.094 194.492 448.587 191.077C449.065 187.769 448.038 185.066 445.122 183.237C444.471 182.83 443.8 182.429 443.089 182.139C441.214 181.372 439.298 180.701 437.423 179.929C436.417 179.512 435.386 179.075 434.502 178.455C432.937 177.352 432.8 175.188 434.222 173.912C434.863 173.338 435.716 172.901 436.544 172.683C437.424 172.449 438.394 172.459 439.319 172.505C441.372 172.607 443.292 173.257 445.157 174.095C445.513 174.258 445.884 174.4 446.377 174.614C446.631 172.922 446.87 171.346 447.108 169.761C443.811 168.374 440.518 167.779 437.103 168.054C435.091 168.216 433.247 168.897 431.575 170.086C427.779 172.774 426.534 179.959 432.22 183.043C432.789 183.353 433.348 183.694 433.948 183.938C435.676 184.634 437.434 185.264 439.161 185.97C440.137 186.367 441.097 186.809 442.017 187.312C442.738 187.708 443.287 188.308 443.546 189.131C444.126 190.945 443.47 192.632 441.763 193.582C440.213 194.441 438.526 194.603 436.804 194.441C434.192 194.197 431.712 193.475 429.324 192.408C428.968 192.251 428.602 192.103 428.105 191.895C427.845 193.511 427.607 195.01 427.347 196.621H427.358Z" fill="white"/>
<path d="M190.536 169.766C187.228 168.374 183.94 167.8 180.521 168.049C179.098 168.151 177.726 168.532 176.44 169.187C173.204 170.833 171.502 173.842 171.791 177.459C171.999 180.051 173.422 181.88 175.638 183.013C177.69 184.06 179.875 184.842 181.994 185.757C183.148 186.255 184.322 186.717 185.424 187.312C186.532 187.912 187.106 188.918 187.142 190.208C187.187 191.88 186.354 193.13 184.631 193.862C183.178 194.476 181.649 194.593 180.089 194.441C177.563 194.187 175.16 193.47 172.838 192.459C172.436 192.286 172.03 192.124 171.502 191.9C171.242 193.536 170.993 195.076 170.75 196.626C174.413 198.145 178.067 199.014 181.898 198.857C184.327 198.755 186.603 198.115 188.651 196.712C192.782 193.877 193.864 186.062 188.107 182.998C186.999 182.409 185.861 181.86 184.703 181.382C183.204 180.767 181.649 180.285 180.145 179.67C179.327 179.334 178.519 178.913 177.807 178.394C176.684 177.571 176.369 176.138 176.913 174.904C177.33 173.953 178.077 173.354 179.007 172.968C180.196 172.475 181.44 172.373 182.711 172.485C184.758 172.663 186.689 173.252 188.549 174.101C188.91 174.263 189.276 174.416 189.764 174.629C190.028 172.968 190.277 171.423 190.536 169.777V169.766Z" fill="white"/>
<path d="M409.207 173.125C409.207 174.919 409.207 176.57 409.207 178.222V188.328C409.207 190.03 409.207 191.738 409.207 193.44C409.207 195.086 409.222 196.728 409.232 198.369H414.588V180.3C414.588 179.121 414.578 177.947 414.588 176.768C414.603 175.574 414.517 174.37 414.654 173.09H424.41C424.171 171.474 423.953 169.98 423.729 168.476H399.822V173.12H409.197L409.207 173.125Z" fill="white"/>
<path d="M117.269 173.11C117.01 171.438 116.787 169.969 116.563 168.536C114.637 168.272 93.4941 168.369 92.6049 168.648C92.5897 170.107 92.5592 171.585 92.6252 173.104C95.8518 173.176 98.9209 173.069 102.046 173.165V181.732C102.046 184.492 102.046 187.251 102.046 190.01C102.046 192.794 102.036 195.574 102.056 198.373H107.432V181.539C107.432 180.157 107.417 178.78 107.432 177.398C107.452 176.001 107.335 174.593 107.513 173.104H117.264L117.269 173.11Z" fill="white"/>
<path d="M154.875 193.841V168.501H149.657V198.384H167.014C166.76 196.834 166.521 195.376 166.272 193.841H154.875Z" fill="white"/>
<path d="M7.91085 11.8768C5.30925 11.5465 2.74831 11.2213 0.100977 10.886V5.43381C1.05625 5.18991 37.6514 5.15434 38.8709 5.40332V10.8707C36.2998 11.201 33.7083 11.5364 31.061 11.8768V57.4353H80.8978C81.157 56.5359 81.2738 14.6969 81.0147 11.8717C78.4639 11.5465 75.8725 11.2112 73.215 10.8758V5.3271H112.066C112.066 5.77425 112.066 6.13502 112.066 6.49071C112.066 7.90838 112.066 9.32604 112.066 10.8657C109.434 11.201 106.878 11.5262 104.343 11.8514C104.068 12.7711 104.002 113.415 104.282 114.919C106.802 115.24 109.363 115.565 111.99 115.9V121.454H73.2252V115.9C75.8674 115.565 78.4334 115.24 81.0452 114.909V69.5185C80.2017 69.2593 32.6616 69.178 31.0813 69.4473V114.858C33.6118 115.351 36.2388 115.463 38.876 115.925V121.464H0.228008C-0.0565412 120.554 -0.0819474 117.048 0.19244 115.885C2.73814 115.56 5.30417 115.234 7.91085 114.904V11.8768Z" fill="#EEEEEE"/>
<path d="M468.002 115.021C470.492 115.331 472.819 115.615 475.217 115.915V121.469H439.486C439.486 120.539 439.486 119.66 439.486 118.781C439.486 117.902 439.486 116.997 439.486 115.951C441.93 115.646 444.329 115.346 446.823 115.031C446.854 114.65 446.905 114.299 446.905 113.949C446.905 98.0647 446.92 82.1807 446.895 66.2968C446.895 63.248 446.691 60.2094 445.812 57.2572C444.044 51.3071 440.131 48.1517 433.943 47.5521C430.828 47.2472 427.881 47.7248 425.005 48.8935C421.646 50.2604 418.485 51.9982 415.462 53.9951C415.01 54.2949 414.746 54.615 414.812 55.179C414.847 55.4585 414.817 55.7481 414.817 56.0327C414.817 75.1686 414.817 94.2995 414.817 113.435V115.021C417.276 115.331 419.669 115.631 422.129 115.941V121.327C421.26 121.591 387.698 121.677 386.047 121.413V115.935C388.465 115.636 390.828 115.341 393.262 115.041V43.8783C390.879 43.5735 388.511 43.2686 385.97 42.9383C385.96 41.0989 385.955 39.295 385.981 37.4048H414.801V48.675C415.416 48.2177 415.802 47.9484 416.173 47.6588C419.278 45.235 422.423 42.8621 425.807 40.8245C430.172 38.1924 434.827 36.3581 439.903 35.7178C444.171 35.1792 448.424 35.2859 452.596 36.4292C459.181 38.228 463.444 42.5267 465.766 48.863C467.148 52.6384 467.733 56.5611 467.931 60.555C468.007 62.1352 468.002 63.7206 468.002 65.3059C468.002 81.3525 468.002 97.3991 468.002 113.446C468.002 113.928 468.002 114.411 468.002 115.026V115.021Z" fill="#EEEEEE"/>
<path d="M330.732 122.892C325.066 122.856 319.457 122.368 313.959 120.935C309.31 119.721 304.985 117.826 301.18 114.858C296.876 111.51 293.837 107.206 291.764 102.196C289.808 97.4601 288.827 92.4958 288.329 87.4196C287.953 83.6138 287.857 79.7927 288.08 75.9767C288.568 67.6739 290.758 59.8996 295.473 52.9535C300.29 45.855 306.84 40.9872 314.858 38.0655C322.399 35.3165 330.193 34.6357 338.14 35.3165C343.405 35.7688 348.471 37.0086 353.272 39.2443C362.429 43.5024 368.816 50.3926 372.662 59.6913C374.797 64.8487 375.869 70.2501 376.209 75.7937C376.595 82.0843 376.123 88.2987 374.202 94.3403C370.457 106.129 362.851 114.411 351.458 119.182C344.838 121.957 337.876 122.958 330.737 122.892H330.732ZM352.419 79.3049C352.419 71.4696 351.809 65.1536 350.427 59.4779C349.472 55.545 348.034 51.8255 345.757 48.4363C339.365 38.9141 324.685 39.0258 318.512 48.5074C316.921 50.9464 315.712 53.5379 314.843 56.3021C313.08 61.927 312.399 67.7247 312.175 73.5834C311.891 80.941 312.053 88.2834 313.395 95.5547C314.147 99.6044 315.255 103.542 317.221 107.191C320.651 113.552 325.798 116.998 333.222 116.571C338.461 116.271 342.632 114.01 345.717 109.777C348.349 106.159 349.751 102.023 350.706 97.7091C352.043 91.6472 352.404 85.4938 352.414 79.3099L352.419 79.3049Z" fill="#EEEEEE"/>
<path d="M239.727 39.3967V21.6123C246.577 19.4223 253.36 17.2475 260.332 15.0168V39.3611H280.006C280.281 40.3672 280.321 45.4179 280.082 46.8458H260.449C260.408 47.3132 260.352 47.6638 260.352 48.0144C260.352 63.934 260.322 79.8535 260.377 95.7781C260.388 98.2832 260.581 100.819 260.992 103.288C261.932 108.913 264.981 111.698 270.682 112.384C275.276 112.938 279.839 112.592 284.376 111.774C284.849 111.688 285.316 111.586 285.87 111.474C285.921 111.809 285.997 112.074 285.997 112.338C286.012 113.517 285.961 114.696 286.017 115.869C286.053 116.596 285.809 116.972 285.098 117.191C282.537 117.973 280.016 118.888 277.44 119.614C271.084 121.403 264.62 122.566 257.984 122.353C253.792 122.216 249.793 121.306 246.099 119.203C242.09 116.921 239.875 113.461 239.326 108.944C239.057 106.733 238.879 104.492 238.874 102.267C238.838 84.3961 238.848 66.5254 238.848 48.6547C238.848 48.1313 238.848 47.6029 238.848 46.9271C237.578 46.8305 236.374 46.8915 235.174 46.8813C233.955 46.8712 232.735 46.8813 231.521 46.8813H227.99C226.775 46.8813 225.561 46.8813 224.367 46.8813C224.107 45.9565 224.047 41.2107 224.28 39.4017H239.732L239.727 39.3967Z" fill="#EEEEEE"/>
<path d="M187.446 11.2925C185.027 10.9063 182.639 10.5201 180.18 10.1289V5.4643C180.18 5.4643 180.21 5.41857 180.241 5.39316C180.271 5.36775 180.302 5.3271 180.337 5.32202C180.576 5.29154 180.815 5.24072 181.059 5.24072C190.16 5.24072 199.255 5.25089 208.355 5.26105C208.467 5.26105 208.584 5.33219 208.813 5.4084V115.001C211.267 115.321 213.62 115.626 216.043 115.941V121.322C215.159 121.596 181.389 121.637 180.155 121.357V115.931C182.583 115.61 184.982 115.3 187.446 114.975V11.2925Z" fill="#EEEEEE"/>
<path d="M128.479 115.9C130.938 115.59 133.306 115.29 135.75 114.98V45.0777C133.382 44.6915 130.958 44.3002 128.499 43.8988V38.8379H157.152V114.965C159.637 115.28 161.999 115.58 164.433 115.89V121.449H128.479V115.895V115.9Z" fill="#EEEEEE"/>
<path d="M159.87 13.9854C159.764 17.7964 157.868 21.9427 153.234 24.3562C145.135 28.5737 134.693 23.716 134.464 13.3604C134.378 9.57491 135.521 6.23653 138.229 3.52823C142.045 -0.282705 147.675 -0.851805 152.376 1.07907C157.116 3.02518 159.896 7.41538 159.87 13.9854Z" fill="#EEEEEE"/>
<path d="M368.354 183.409C368.293 187.174 367.394 190.675 365.031 193.653C362.089 197.357 358.212 199.11 353.451 198.983C348.928 198.861 345.316 197.027 342.562 193.48C340.824 191.244 339.919 188.653 339.604 185.863C339.162 181.941 339.63 178.145 341.718 174.715C344.579 170.01 348.873 167.723 354.325 167.856C361.499 168.033 366.997 173.043 368.034 180.147C368.191 181.229 368.257 182.322 368.364 183.409H368.354ZM344.609 183.262C344.65 186.097 345.229 188.805 346.987 191.143C350.712 196.087 357.912 195.604 360.956 190.218C361.936 188.485 362.414 186.605 362.546 184.644C362.754 181.565 362.241 178.638 360.458 176.052C356.911 170.904 349.477 171.194 346.306 176.58C345.097 178.633 344.691 180.894 344.609 183.267V183.262Z" fill="#EEEEEE"/>
<path d="M90.2116 183.323C90.1507 187.535 89.0582 191.377 86.1568 194.527C83.4993 197.408 80.1914 198.887 76.2281 198.994C72.2444 199.1 68.7891 197.896 65.903 195.157C63.718 193.084 62.3817 190.518 61.7668 187.576C60.9284 183.567 61.1977 179.66 62.9355 175.91C65.3643 170.671 70.7911 167.531 76.5532 167.846C83.1894 168.206 88.7279 172.835 89.8966 180.178C90.0643 181.219 90.11 182.276 90.2167 183.323H90.2116ZM84.7391 183.42C84.6883 181.143 84.2767 178.847 83.0471 176.758C81.3093 173.811 78.7483 172.246 75.3033 172.409C71.8582 172.571 69.4497 174.365 67.9812 177.449C67.2901 178.897 66.9446 180.442 66.8176 182.032C66.5686 185.152 67.0666 188.125 68.8501 190.762C72.5035 196.174 80.1559 195.757 83.2148 190C84.2869 187.978 84.6883 185.803 84.7391 183.425V183.42Z" fill="#EEEEEE"/>
<path d="M264.671 198.404H259.422V168.511C259.656 168.48 259.885 168.425 260.113 168.425C263.279 168.425 266.445 168.425 269.61 168.45C271.287 168.465 272.913 168.801 274.473 169.426C279.066 171.265 280.352 175.279 279.895 179.004C279.503 182.19 277.705 184.334 274.885 185.706C274.564 185.863 274.234 186.006 273.741 186.229C276.541 189.994 279.285 193.689 282.151 197.545C280.936 197.83 279.9 198.104 278.848 198.318C276.185 198.861 277.003 199.232 275.347 196.991C273.076 193.927 270.83 190.838 268.619 187.728C268.142 187.057 267.634 186.737 266.811 186.819C266.14 186.885 265.454 186.834 264.676 186.834V198.404H264.671ZM264.717 182.677C266.79 182.632 268.762 182.815 270.723 182.449C270.962 182.403 271.196 182.342 271.429 182.266C273.624 181.529 274.758 179.812 274.646 177.408C274.549 175.33 273.314 173.887 271.114 173.343C270.53 173.201 269.92 173.109 269.316 173.089C268.06 173.043 266.805 173.054 265.55 173.059C265.286 173.059 265.017 173.13 264.722 173.17V182.677H264.717Z" fill="#EEEEEE"/>
<path d="M397.378 197.566C395.625 197.967 394.085 198.297 392.556 198.683C391.885 198.851 391.616 198.465 391.291 198.018C388.887 194.695 386.433 191.407 384.08 188.053C383.42 187.113 382.724 186.641 381.575 186.819C381.072 186.895 380.544 186.834 379.919 186.834V198.358H374.761C374.528 197.499 374.431 170.671 374.665 168.526C374.873 168.496 375.102 168.43 375.33 168.43C378.537 168.43 381.743 168.43 384.954 168.46C386.509 168.475 388.018 168.79 389.472 169.349C393.359 170.838 395.386 174.014 395.178 178.176C395 181.788 393.201 184.258 389.975 185.767C389.685 185.899 389.395 186.036 388.958 186.239C391.753 190 394.502 193.699 397.383 197.576L397.378 197.566ZM379.985 182.617C381.677 182.617 383.252 182.637 384.827 182.606C385.346 182.596 385.874 182.479 386.382 182.337C388.699 181.687 389.944 179.954 389.863 177.54C389.792 175.32 388.542 173.851 386.204 173.318C384.167 172.85 382.109 173.099 379.985 173.079V182.622V182.617Z" fill="#EEEEEE"/>
<path d="M217.659 181.799C217.299 181.351 217.029 181.001 216.745 180.66C215.144 178.73 214.59 176.499 214.931 174.05C215.256 171.712 216.547 170.02 218.605 168.902C219.728 168.293 220.942 167.983 222.212 167.881C225.327 167.632 228.254 168.293 231.165 169.705C230.922 171.23 230.688 172.729 230.419 174.4C229.88 174.111 229.463 173.882 229.047 173.664C227.263 172.729 225.419 172.007 223.361 172.119C222.842 172.149 222.304 172.236 221.816 172.414C220.739 172.815 220.119 173.623 219.977 174.781C219.85 175.828 220.053 176.819 220.652 177.683C221.14 178.379 221.669 179.055 222.258 179.67C224.707 182.215 227.187 184.736 229.656 187.261C229.824 187.434 230.012 187.581 230.322 187.85C231.45 185.635 231.76 183.282 232.166 180.874C233.625 181.194 234.956 181.489 236.267 181.778C236.374 183.567 235.551 186.336 233.488 191.229C235.525 193.287 237.598 195.386 239.778 197.586C239.382 197.733 239.113 197.866 238.828 197.937C237.883 198.17 236.917 198.338 235.982 198.607C235.083 198.867 234.397 198.765 233.731 198.003C232.802 196.941 231.735 195.996 230.678 194.954C230.352 195.244 230.083 195.477 229.814 195.711C227.375 197.845 224.621 199.171 221.293 198.973C220.002 198.897 218.671 198.958 217.426 198.673C211.293 197.286 208.945 190.447 212.858 185.503C213.884 184.207 215.19 183.257 216.598 182.419C216.907 182.236 217.223 182.053 217.654 181.799H217.659ZM220.215 184.705C218.691 185.549 217.238 186.656 216.557 188.531C215.683 190.94 216.618 193.404 218.798 194.426C221.775 195.823 225.993 194.669 227.72 192.19C225.246 189.725 222.781 187.266 220.215 184.705Z" fill="#EEEEEE"/>
<path d="M50.1461 168.486H55.456V198.384H50.1766V185.325H36.3506V198.404C35.4105 198.419 34.5772 198.44 33.7439 198.45C32.8953 198.455 32.0467 198.45 31.2236 198.45C30.9441 197.53 30.8476 170.513 31.1169 168.435C32.7683 168.399 34.4451 168.415 36.3048 168.435C36.3302 170.467 36.315 172.439 36.315 174.41C36.315 176.351 36.315 178.287 36.315 180.31H50.0699C50.2224 179.07 50.1207 177.784 50.1411 176.504C50.1614 175.162 50.1411 173.826 50.1411 172.485V168.486H50.1461Z" fill="#EEEEEE"/>
<path d="M293.731 193.796H307.277V198.379H288.36C288.36 188.415 288.36 178.521 288.36 168.633C289.198 168.374 304.721 168.267 306.891 168.522V173.079H293.705V180.473H304.284C304.544 182.048 304.782 183.511 305.052 185.137C301.236 185.315 297.521 185.127 293.731 185.249V193.806V193.796Z" fill="#EEEEEE"/>
<path d="M128.636 180.452H139.175C139.434 182.017 139.683 183.511 139.952 185.147H128.809C128.494 186.087 128.397 191.6 128.651 193.75C133.108 193.851 137.594 193.745 142.178 193.811V198.363H123.296V168.496H141.756V173.049H128.809C128.494 174.014 128.407 178.099 128.641 180.452H128.636Z" fill="#EEEEEE"/>
<path d="M332.348 174.624C331.881 174.421 331.515 174.268 331.159 174.106C329.264 173.237 327.293 172.642 325.204 172.469C324.01 172.373 322.816 172.408 321.744 172.922C321.038 173.257 320.326 173.755 319.838 174.355C318.853 175.574 319.056 177.302 320.285 178.282C321.002 178.851 321.856 179.299 322.709 179.649C324.584 180.422 326.51 181.067 328.385 181.839C329.32 182.22 330.224 182.703 331.078 183.242C334.152 185.178 335.077 187.789 334.498 191.428C334.076 194.075 332.562 196.026 330.224 197.332C328.258 198.43 326.119 198.851 323.898 198.872C320.275 198.902 316.82 198.069 313.344 196.626C313.583 195.091 313.822 193.546 314.076 191.895C314.498 192.068 314.788 192.174 315.067 192.296C317.491 193.384 320.001 194.161 322.653 194.42C324.462 194.598 326.236 194.456 327.841 193.516C329.523 192.53 330.133 190.792 329.488 189.019C329.162 188.12 328.507 187.515 327.699 187.114C326.683 186.605 325.631 186.174 324.579 185.752C323.527 185.33 322.435 184.995 321.388 184.553C320.341 184.111 319.315 183.618 318.309 183.094C312.516 180.081 313.66 172.779 317.643 170.01C319.33 168.836 321.185 168.186 323.197 168.039C326.444 167.8 329.589 168.333 332.607 169.563C332.755 169.624 332.882 169.72 333.09 169.842C332.846 171.397 332.602 172.942 332.338 174.619L332.348 174.624Z" fill="#EEEEEE"/>
<path d="M427.357 196.621C427.616 195.01 427.855 193.506 428.114 191.895C428.612 192.103 428.978 192.251 429.334 192.408C431.722 193.475 434.207 194.197 436.813 194.441C438.541 194.598 440.228 194.441 441.773 193.582C443.48 192.632 444.13 190.945 443.556 189.131C443.292 188.308 442.748 187.708 442.027 187.312C441.107 186.809 440.142 186.367 439.171 185.97C437.443 185.269 435.685 184.639 433.958 183.938C433.358 183.694 432.799 183.353 432.23 183.043C426.544 179.959 427.784 172.774 431.585 170.086C433.262 168.902 435.101 168.216 437.113 168.054C440.528 167.779 443.815 168.374 447.118 169.761C446.879 171.346 446.641 172.922 446.386 174.614C445.888 174.405 445.523 174.258 445.167 174.095C443.307 173.252 441.381 172.607 439.329 172.505C438.404 172.459 437.433 172.449 436.554 172.683C435.726 172.906 434.872 173.343 434.232 173.912C432.809 175.188 432.941 177.352 434.512 178.455C435.396 179.075 436.422 179.512 437.433 179.929C439.308 180.701 441.224 181.377 443.099 182.139C443.805 182.429 444.476 182.83 445.131 183.237C448.043 185.066 449.074 187.769 448.597 191.077C448.104 194.486 446.102 196.763 442.921 197.926C441.569 198.419 440.096 198.739 438.658 198.826C434.786 199.06 431.097 198.155 427.367 196.621H427.357Z" fill="#EEEEEE"/>
<path d="M190.536 169.766C190.272 171.412 190.028 172.957 189.764 174.619C189.281 174.41 188.91 174.253 188.549 174.09C186.689 173.242 184.758 172.652 182.711 172.474C181.435 172.363 180.196 172.464 179.007 172.957C178.082 173.343 177.33 173.943 176.913 174.893C176.374 176.128 176.684 177.561 177.807 178.384C178.519 178.902 179.327 179.324 180.145 179.659C181.644 180.274 183.199 180.757 184.703 181.372C185.861 181.849 186.999 182.398 188.107 182.987C193.864 186.046 192.782 193.866 188.651 196.702C186.603 198.109 184.327 198.749 181.898 198.846C178.061 199.004 174.413 198.135 170.75 196.615C170.998 195.066 171.242 193.521 171.502 191.89C172.03 192.113 172.436 192.276 172.838 192.449C175.16 193.46 177.558 194.176 180.089 194.43C181.649 194.588 183.173 194.471 184.631 193.851C186.354 193.119 187.182 191.869 187.142 190.198C187.106 188.907 186.532 187.901 185.424 187.301C184.322 186.707 183.148 186.245 181.994 185.747C179.875 184.832 177.685 184.049 175.638 183.003C173.427 181.875 171.999 180.04 171.791 177.449C171.502 173.836 173.204 170.823 176.44 169.177C177.726 168.521 179.098 168.145 180.521 168.038C183.935 167.789 187.228 168.364 190.536 169.756V169.766Z" fill="#EEEEEE"/>
<path d="M409.207 173.125H399.832V168.481H423.739C423.963 169.985 424.181 171.479 424.42 173.094H414.664C414.522 174.375 414.613 175.579 414.598 176.773C414.583 177.952 414.598 179.126 414.598 180.305V198.374H409.243C409.232 196.732 409.222 195.086 409.217 193.445C409.217 191.743 409.217 190.035 409.217 188.333V178.227C409.217 176.575 409.217 174.924 409.217 173.13L409.207 173.125Z" fill="#EEEEEE"/>
<path d="M117.269 173.11H107.518C107.34 174.599 107.457 176.006 107.437 177.403C107.417 178.781 107.437 180.163 107.437 181.545V198.379H102.061C102.041 195.579 102.056 192.795 102.051 190.015C102.051 187.256 102.051 184.497 102.051 181.738V173.171C98.9257 173.074 95.8567 173.176 92.6301 173.11C92.564 171.585 92.5996 170.112 92.6098 168.654C93.499 168.374 114.637 168.278 116.568 168.542C116.786 169.975 117.015 171.443 117.274 173.115L117.269 173.11Z" fill="#EEEEEE"/>
<path d="M154.875 193.841H166.272C166.521 195.376 166.76 196.834 167.014 198.384H149.657V168.501H154.875V193.841Z" fill="#EEEEEE"/>
</svg>
