<svg width="1080" height="1920" viewBox="0 0 1080 1920" fill="none" xmlns="http://www.w3.org/2000/svg">
<g clip-path="url(#clip0_117_314)">
<rect width="1080" height="1920" fill="#EEEEEE"/>
<mask id="mask0_117_314" style="mask-type:luminance" maskUnits="userSpaceOnUse" x="0" y="-81" width="1080" height="2082">
<path d="M1080 2000.77L1080 -81L-0.00012207 -81L-0.000213067 2000.77L1080 2000.77Z" fill="white"/>
</mask>
<g mask="url(#mask0_117_314)">
<path d="M1080 2000.77L1080 -80.9986L0.000366211 -80.9986L0.000275214 2000.77L1080 2000.77Z" fill="url(#paint0_radial_117_314)"/>
<path style="mix-blend-mode:screen" d="M-852.822 -355.09C-569.025 -410.127 -269.163 -426.989 5.61586 -339.269C280.422 -251.548 526.014 -44.0214 593.838 227.207C608.553 286.069 614.844 346.675 616.761 407.176C627.075 734.665 501.309 1068.84 257.229 1296.9C216.621 1334.84 172.422 1370.18 121.311 1393.57C-10.5573 1453.89 -173.988 1424.1 -292.869 1342.44C-411.75 1260.81 -490.752 1134.55 -541.269 1002.56C-591.813 870.578 -616.788 731.074 -648.54 593.755C-679.077 461.693 -716.067 331.114 -753.03 200.587C-773.523 128.193 -794.232 55.2529 -828.819 -11.9883C-874.314 -100.438 -942.003 -173.82 -1014.63 -242.336C-1054.24 -279.704 -1072.09 -298.934 -1010.5 -321.417C-961.902 -339.165 -903.717 -345.228 -852.795 -355.09L-852.822 -355.09Z" fill="url(#paint1_linear_117_314)"/>
<g style="mix-blend-mode:multiply">
<path d="M-454.086 1698.42C-398.564 1308.9 -306.995 921.932 -140.841 628.626C25.3137 335.364 276.682 150.019 516.574 226.058C568.644 242.557 619.126 270.668 668.019 304.294C932.59 486.097 1154.87 842.979 1251.12 1285.45C1267.15 1359.07 1279.83 1435.64 1280.54 1513.79C1282.43 1715.45 1201.43 1903.18 1094.75 2004.05C988.057 2104.93 859.784 2129.19 736.908 2114.17C614.031 2099.19 494.113 2047.63 373.564 2005.89C257.618 1965.76 140.603 1934.56 23.6428 1903.4C-41.2468 1886.09 -106.602 1868.79 -172.313 1872.24C-258.732 1876.81 -340.906 1918.28 -420.943 1968.81C-464.604 1996.39 -486.161 2007.37 -482.518 1916.63C-479.642 1844.98 -464.084 1768.22 -454.141 1698.33L-454.086 1698.42Z" fill="url(#paint2_linear_117_314)" style="mix-blend-mode:screen"/>
</g>
<path style="mix-blend-mode:screen" d="M1339.31 1993.13C1270.22 2072.37 1195.4 2147.94 1108 2208.07C1020.6 2268.24 919.728 2312.66 813.024 2324.55C753.786 2331.16 692.118 2327.38 637.389 2304.54C556.659 2270.84 498.717 2198.73 464.373 2120.66C422.685 2025.89 411.426 1918.26 436.833 1818.26C462.24 1718.28 524.88 1626.79 612.684 1568.19C644.085 1547.24 679.24 1530.22 717.094 1525.23C756.838 1519.97 797.095 1528.17 835.84 1538.11C964.009 1571 1086.37 1623.43 1215.68 1651.98C1244.67 1658.38 1274.64 1663.59 1304.1 1659.4C1334.69 1655.05 1362.74 1640.84 1389.18 1625.39C1435.56 1598.27 1479.06 1566.58 1518.83 1531C1541.67 1510.58 1593.11 1433.08 1623.7 1434.72C1629.96 1480.21 1606.47 1540.79 1591.89 1584.04C1575.07 1633.95 1553.26 1682.24 1528.01 1728.72C1476.44 1823.73 1410.75 1911.13 1339.31 1993.1L1339.31 1993.13Z" fill="url(#paint3_linear_117_314)"/>
<path style="mix-blend-mode:screen" d="M1762.92 -54.6789C1674.55 92.5023 1575.78 235.286 1452.12 356.601C1328.46 477.916 1178.34 577.477 1009.24 626.034C915.333 652.993 814.434 663.818 719.124 641.856C578.535 609.484 463.488 508.7 384.837 391.809C289.365 249.91 239.388 78.8146 250.971 -89.9389C262.527 -258.692 336.858 -423.933 461.652 -542.854C506.283 -585.374 558.15 -622.56 617.901 -641.036C680.649 -660.448 748.203 -658.236 813.84 -652.772C1030.97 -634.712 1244.44 -583.475 1462.08 -572.754C1510.93 -570.36 1560.96 -570.151 1607.34 -584.984C1655.54 -600.415 1696.77 -631.095 1734.97 -663.363C1802.04 -719.961 1863.06 -783.195 1916.9 -851.659C1947.84 -891.004 2008.19 -1030.48 2058.16 -1036.23C2081.73 -964.335 2061.62 -859.882 2050.82 -785.927C2038.34 -700.522 2017.28 -616.445 1990.18 -534.293C1934.77 -366.424 1854.31 -206.934 1762.92 -54.731L1762.92 -54.6789Z" fill="url(#paint4_linear_117_314)"/>
<path style="mix-blend-mode:screen" d="M619.461 893.904C445.635 969.576 275.589 1056.46 126.792 1171.51C-22.0051 1286.55 -149.364 1431.36 -221.859 1601.39C-262.116 1695.83 -285.12 1799.24 -270.972 1900.41C-250.101 2049.65 -150.066 2179.84 -28.1613 2274.01C119.853 2388.35 305.37 2458.69 494.937 2464.99C684.531 2471.29 876.96 2412.16 1023.19 2295.69C1075.49 2254.05 1122.58 2204.3 1149.69 2144.37C1178.14 2081.45 1182.98 2011.16 1184 1942.52C1187.38 1715.5 1153.33 1488.67 1164.94 1261.88C1167.56 1211.01 1172.74 1159.12 1194.34 1112.62C1216.78 1064.32 1255.5 1024.93 1295.62 988.806C1366.06 925.416 1443.23 869.026 1525.47 820.625C1572.72 792.808 1734.91 745.395 1746.76 694.184C1669.09 661.942 1550.31 671.493 1466.61 674.667C1369.98 678.336 1273.83 691.061 1179.22 710.239C985.878 749.455 799.173 815.603 619.407 893.852L619.461 893.904Z" fill="url(#paint5_linear_117_314)"/>
</g>
<circle cx="199.16" cy="932.924" r="17.5159" stroke="#FF721F" stroke-width="5"/>
<path fill-rule="evenodd" clip-rule="evenodd" d="M827.862 1071.31C835.665 1071.31 841.991 1064.98 841.991 1057.18C841.991 1049.38 835.665 1043.05 827.862 1043.05C820.059 1043.05 813.733 1049.38 813.733 1057.18C813.733 1064.98 820.059 1071.31 827.862 1071.31ZM827.862 1077.2C838.916 1077.2 847.878 1068.23 847.878 1057.18C847.878 1046.13 838.916 1037.16 827.862 1037.16C816.808 1037.16 807.846 1046.13 807.846 1057.18C807.846 1068.23 816.808 1077.2 827.862 1077.2Z" fill="#FF721F"/>
<path fill-rule="evenodd" clip-rule="evenodd" d="M864.362 691.423C876.296 691.423 885.97 681.748 885.97 669.814C885.97 657.88 876.296 648.205 864.362 648.205C852.427 648.205 842.753 657.88 842.753 669.814C842.753 681.748 852.427 691.423 864.362 691.423ZM864.362 700.427C881.268 700.427 894.974 686.721 894.974 669.814C894.974 652.907 881.268 639.202 864.362 639.202C847.455 639.202 833.749 652.907 833.749 669.814C833.749 686.721 847.455 700.427 864.362 700.427Z" fill="#FF721F"/>
<circle cx="160.306" cy="971.778" r="15.3062" fill="#FF721F"/>
<circle cx="787.83" cy="711.023" r="11.774" fill="#FF721F"/>
<circle cx="844.597" cy="1004.6" r="10.5966" fill="#FF721F"/>
<circle cx="229.597" cy="997.597" r="10.5966" fill="#FF721F"/>
<ellipse cx="540.232" cy="1180.93" rx="144.232" ry="35.3221" fill="white" fill-opacity="0.5"/>
<circle cx="369.207" cy="788.391" r="21.1933" fill="#FF721F"/>
<path d="M587.054 855.252C536.339 901.767 478.125 938.056 425.19 959.183C371.946 980.433 325.568 985.809 296.83 972.67C268.093 959.532 260.394 929.432 273.498 889.83C286.525 850.458 319.85 802.79 370.566 756.274C421.282 709.759 479.495 673.47 532.43 652.344C585.674 631.093 632.052 625.717 660.79 638.856C689.527 651.994 697.226 682.094 684.122 721.697C671.095 761.068 637.77 808.736 587.054 855.252Z" stroke="white" stroke-width="8"/>
<path d="M398.524 1025.94V1090.52C398.524 1093.78 402.222 1095.67 404.867 1093.76L430.33 1075.36C431.728 1074.34 433.618 1074.34 435.016 1075.36L464.479 1096.65C465.877 1097.66 467.767 1097.66 469.165 1096.65L498.628 1075.36C500.026 1074.34 501.916 1074.34 503.315 1075.36L532.777 1096.65C534.175 1097.66 536.065 1097.66 537.464 1096.65L566.926 1075.36C568.325 1074.34 570.214 1074.34 571.613 1075.36L601.075 1096.65C602.474 1097.66 604.363 1097.66 605.762 1096.65L635.224 1075.36C636.623 1074.34 638.512 1074.34 639.911 1075.36L665.373 1093.76C668.018 1095.67 671.716 1093.78 671.716 1090.52V842.321C671.716 840.112 669.926 838.321 667.716 838.321H402.524C400.315 838.321 398.524 840.112 398.524 842.321V1025.94Z" fill="#FF721F"/>
<path d="M410.867 824.915H361.494C354.672 824.915 349.151 819.394 349.151 812.572V763.199C349.151 742.781 365.762 726.17 386.18 726.17H410.867C417.689 726.17 423.21 731.691 423.21 738.513V812.572C423.21 819.394 417.689 824.915 410.867 824.915Z" fill="#9F9F9F"/>
<path d="M721.088 812.572C721.088 819.394 715.567 824.915 708.745 824.915H659.372C652.55 824.915 647.029 819.394 647.029 812.572L622.343 738.513C622.343 731.691 627.864 726.17 634.686 726.17H684.058C704.477 726.17 721.088 742.781 721.088 763.199V812.572Z" fill="#9F9F9F"/>
<path d="M671.716 750.856V812.572C671.716 819.483 666.286 824.915 659.373 824.915H410.867C403.954 824.915 398.524 819.483 398.524 812.572V664.455C398.524 657.542 403.954 652.112 410.867 652.112H572.972L597.658 726.17L671.716 750.856Z" fill="white"/>
<path d="M708.745 800.229H361.494C341.004 800.229 324.465 816.767 324.465 837.258V987.02C324.465 1007.51 341.004 1024.05 361.494 1024.05H708.745C729.235 1024.05 745.774 1007.51 745.774 987.02V837.258C745.774 816.767 729.235 800.229 708.745 800.229Z" fill="#889EF4"/>
<path d="M572.971 738.513C572.971 745.425 578.401 750.856 585.314 750.856H671.715L572.971 652.112V738.513Z" fill="#D4D4D4"/>
<path d="M410.867 874.287H386.18C379.358 874.287 373.837 868.766 373.837 861.944C373.837 855.121 379.358 849.601 386.18 849.601H410.867C417.689 849.601 423.21 855.121 423.21 861.944C423.21 868.766 417.689 874.287 410.867 874.287Z" fill="#414141"/>
<path d="M671.716 915.429V1061.08C671.716 1067.99 666.286 1073.42 659.373 1073.42H410.867C403.954 1073.42 398.524 1067.99 398.524 1061.08V915.429H671.716Z" fill="#FF721F"/>
<path d="M696.402 912.962C696.402 919.873 690.972 925.305 684.059 925.305H386.18C379.268 925.305 373.837 919.873 373.837 912.962C373.837 906.049 379.268 900.619 386.18 900.619H684.059C690.972 900.619 696.402 906.049 696.402 912.962Z" fill="#414141"/>
<path d="M682.983 723.345C604.686 908.197 360.964 1005.92 299.15 972.956" stroke="white" stroke-width="8"/>
<rect x="432" y="987" width="50" height="50" fill="white"/>
<rect x="507" y="987" width="50" height="50" fill="white"/>
<rect x="582" y="987" width="50" height="50" fill="white"/>
</g>
<defs>
<radialGradient id="paint0_radial_117_314" cx="0" cy="0" r="1" gradientUnits="userSpaceOnUse" gradientTransform="translate(1541.73 629.328) rotate(90) scale(1641.97 1703.67)">
<stop stop-color="#889EF4"/>
<stop offset="1" stop-color="#103CE9"/>
</radialGradient>
<linearGradient id="paint1_linear_117_314" x1="1607.66" y1="1797.06" x2="204.873" y2="976.569" gradientUnits="userSpaceOnUse">
<stop stop-color="#889EF4"/>
<stop offset="1" stop-color="#103CE9"/>
</linearGradient>
<linearGradient id="paint2_linear_117_314" x1="1637.92" y1="-372.585" x2="-1011.55" y2="1070.43" gradientUnits="userSpaceOnUse">
<stop stop-color="#889EF4"/>
<stop offset="1" stop-color="#103CE9"/>
</linearGradient>
<linearGradient id="paint3_linear_117_314" x1="1354.6" y1="2004.78" x2="601.221" y2="1521.44" gradientUnits="userSpaceOnUse">
<stop stop-color="#889EF4"/>
<stop offset="1" stop-color="#103CE9"/>
</linearGradient>
<linearGradient id="paint4_linear_117_314" x1="1791.4" y1="-39.7772" x2="425.522" y2="-605.183" gradientUnits="userSpaceOnUse">
<stop stop-color="#74BBEA"/>
<stop offset="1" stop-color="#103CE9"/>
</linearGradient>
<linearGradient id="paint5_linear_117_314" x1="606.481" y1="863.133" x2="622.352" y2="895.27" gradientUnits="userSpaceOnUse">
<stop stop-color="#74BBEA"/>
<stop offset="1" stop-color="#103CE9"/>
</linearGradient>
<clipPath id="clip0_117_314">
<rect width="1080" height="1920" fill="white"/>
</clipPath>
</defs>
</svg>
