<svg width="1080" height="767" viewBox="0 0 1080 767" fill="none" xmlns="http://www.w3.org/2000/svg">
<mask id="mask0_70_439" style="mask-type:alpha" maskUnits="userSpaceOnUse" x="0" y="0" width="1080" height="1207">
<path d="M0 540C0 241.766 241.766 0 540 0C838.234 0 1080 241.766 1080 540L1080 1207L0 1207L0 540Z" fill="#EEEEEE"/>
</mask>
<g mask="url(#mask0_70_439)">
<mask id="mask1_70_439" style="mask-type:luminance" maskUnits="userSpaceOnUse" x="-783" y="-37" width="2537" height="1294">
<path d="M1723.01 -37H-752.101C-768.67 -37 -782.101 -23.5686 -782.101 -7.00003V1226.63C-782.101 1243.2 -768.67 1256.63 -752.101 1256.63H1723.01C1739.58 1256.63 1753.01 1243.2 1753.01 1226.63V-7C1753.01 -23.5685 1739.58 -37 1723.01 -37Z" fill="white"/>
</mask>
<g mask="url(#mask1_70_439)">
<path d="M1723.01 -37.0007H-752.1C-768.669 -37.0007 -782.1 -23.5693 -782.1 -7.00076V1226.63C-782.1 1243.2 -768.669 1256.63 -752.1 1256.63H1723.01C1739.58 1256.63 1753.01 1243.2 1753.01 1226.63V-7.00073C1753.01 -23.5693 1739.58 -37.0007 1723.01 -37.0007Z" fill="url(#paint0_radial_70_439)"/>
<path style="mix-blend-mode:screen" d="M-1115.88 2278.13C-1115.88 2278.13 -1115.88 2278.13 -1115.88 2278.13C-1182.9 1938.2 -1203.44 1579.03 -1096.61 1249.9C-989.791 920.737 -737.072 626.565 -406.779 545.326C-335.098 527.7 -261.295 520.165 -187.618 517.868C211.187 505.514 618.136 656.157 895.857 948.517C942.06 997.158 985.094 1050.1 1013.58 1111.32C1087.04 1269.27 1050.75 1465.03 951.313 1607.43C851.905 1749.82 698.15 1844.45 537.424 1904.96C376.698 1965.5 206.814 1995.42 39.5914 2033.45C-121.23 2070.03 -280.245 2114.34 -439.196 2158.61C-527.355 2183.16 -616.179 2207.96 -698.063 2249.39C-805.774 2303.88 -895.137 2384.96 -978.573 2471.96C-1024.08 2519.4 -1047.5 2540.78 -1074.88 2467.01C-1096.49 2408.8 -1103.87 2339.12 -1115.88 2278.12C-1115.88 2278.12 -1115.88 2278.12 -1115.88 2278.13Z" fill="url(#paint1_linear_70_439)"/>
<g style="mix-blend-mode:multiply">
<path d="M1027.78 1689.68C1027.8 1689.67 1027.79 1689.65 1027.77 1689.64C553.446 1623.14 82.2385 1513.46 -274.924 1314.44C-632.049 1115.42 -857.756 814.334 -765.158 526.991C-745.066 464.621 -710.834 404.153 -669.885 345.589C-448.491 28.6848 -13.8925 -237.562 524.933 -352.854C614.583 -372.047 707.836 -387.238 803 -388.091C1048.58 -390.354 1277.18 -293.338 1400.03 -165.546C1522.87 -37.754 1552.41 115.892 1534.12 263.074C1515.88 410.256 1453.1 553.895 1402.27 698.288C1353.4 837.169 1315.4 977.33 1277.45 1117.43C1256.38 1195.15 1235.31 1273.43 1239.51 1352.14C1245.08 1455.66 1295.58 1554.08 1357.11 1649.95C1390.69 1702.25 1404.07 1728.07 1293.56 1723.71C1206.33 1720.26 1112.89 1701.64 1027.79 1689.73C1027.77 1689.72 1027.76 1689.69 1027.78 1689.68Z" fill="url(#paint2_linear_70_439)" style="mix-blend-mode:screen"/>
</g>
<path style="mix-blend-mode:screen" d="M1567.3 -347.601C1567.31 -347.601 1567.32 -347.598 1567.33 -347.591C1663.81 -264.834 1755.83 -175.221 1829.06 -70.5384C1902.33 34.1486 1956.42 154.973 1970.9 282.784C1978.95 353.74 1974.36 427.606 1946.54 493.16C1905.5 589.859 1817.69 659.262 1722.62 700.4C1607.21 750.334 1476.15 763.82 1354.36 733.387C1232.62 702.955 1121.2 627.924 1049.83 522.752C1024.32 485.14 1003.6 443.032 997.516 397.69C991.115 350.085 1001.1 301.865 1013.2 255.456C1053.26 101.935 1117.11 -44.6335 1151.87 -199.513C1159.67 -234.247 1166.01 -270.145 1160.9 -305.429C1155.61 -342.071 1138.31 -375.673 1119.49 -407.335C1086.47 -462.896 1047.87 -514.997 1004.55 -562.635C984.375 -584.825 918.487 -629.544 895.373 -665.2C887.543 -677.279 897.654 -689.831 912.042 -689.415C963.333 -687.931 1023.99 -665.119 1069.13 -650.149C1129.91 -630 1188.73 -603.869 1245.32 -573.631C1361.01 -511.862 1467.45 -433.181 1567.27 -347.612C1567.28 -347.605 1567.29 -347.601 1567.3 -347.601Z" fill="url(#paint3_linear_70_439)"/>
<path style="mix-blend-mode:screen" d="M-45.5305 -496.998C-45.5344 -497.006 -45.5249 -497.013 -45.5179 -497.008C119.001 -368.654 276.611 -228.657 404.595 -62.4999C532.586 103.667 630.315 297.808 663.588 506.406C682.063 622.25 680.003 743.851 639.219 853.583C579.042 1015.45 440.055 1136.14 287.092 1211.01C101.395 1301.89 -112.759 1334.1 -314.839 1293.55C-516.919 1253.02 -705.341 1138.47 -830.259 971.368C-874.94 911.602 -912.048 844.075 -925.421 770.176C-939.459 692.559 -926.657 612.645 -910.21 535.545C-855.832 280.473 -761.938 35.0072 -716.337 -221.843C-706.102 -279.474 -698.37 -338.884 -709.334 -396.353C-720.742 -456.054 -751.639 -509.902 -784.849 -560.418C-843.156 -649.064 -910.4 -731.597 -984.996 -806.434C-1022.59 -844.152 -1149.79 -920.939 -1180.17 -979.943C-1186.75 -992.727 -1176.51 -1005.62 -1162.18 -1006.68C-1074.97 -1013.18 -965.495 -977.522 -885.493 -955.104C-784.215 -926.741 -685.821 -888.353 -590.659 -843.108C-396.227 -750.651 -215.673 -629.737 -45.5431 -496.987C-45.5361 -496.982 -45.5266 -496.99 -45.5305 -496.998Z" fill="url(#paint4_linear_70_439)"/>
<path style="mix-blend-mode:screen" d="M399.232 514.667C399.247 514.651 399.273 514.656 399.282 514.676C491.429 722.871 597.234 926.537 737.321 1104.76C877.418 1282.98 1053.77 1435.54 1260.82 1522.37C1375.82 1570.59 1501.75 1598.15 1624.96 1581.2C1806.7 1556.2 1965.23 1436.38 2079.92 1290.36C2219.16 1113.07 2304.81 890.854 2312.48 663.79C2320.15 436.693 2248.15 206.201 2106.31 31.0435C2055.61 -31.6005 1995.02 -88.0026 1922.04 -120.473C1845.42 -154.56 1759.83 -160.349 1676.23 -161.578C1399.78 -165.62 1123.55 -124.839 847.377 -138.745C785.425 -141.882 722.237 -148.092 665.609 -173.964C606.794 -200.839 558.817 -247.216 514.833 -295.274C437.639 -379.651 368.969 -472.081 310.028 -570.591C280.14 -620.524 231.679 -777.623 177.854 -823.672C166.799 -833.129 151.795 -825.935 147.457 -812.049C118.627 -719.769 128.733 -592.198 132.285 -500.088C136.753 -384.341 152.249 -269.175 175.603 -155.853C223.355 75.7235 303.901 299.346 399.182 514.657C399.191 514.677 399.217 514.682 399.232 514.667Z" fill="url(#paint5_linear_70_439)"/>
</g>
</g>
<defs>
<radialGradient id="paint0_radial_70_439" cx="0" cy="0" r="1" gradientUnits="userSpaceOnUse" gradientTransform="translate(82.912 -590.059) scale(1999.54 2040.67)">
<stop stop-color="#889EF4"/>
<stop offset="1" stop-color="#103CE9"/>
</radialGradient>
<linearGradient id="paint1_linear_70_439" x1="1504.93" y1="-669.032" x2="530.181" y2="1025.27" gradientUnits="userSpaceOnUse">
<stop offset="1" stop-color="#103CE9"/>
</linearGradient>
<linearGradient id="paint2_linear_70_439" x1="-1494.17" y1="-816.161" x2="218.687" y2="2381.17" gradientUnits="userSpaceOnUse">
<stop stop-color="#889EF4"/>
<stop offset="1" stop-color="#103CE9"/>
</linearGradient>
<linearGradient id="paint3_linear_70_439" x1="1581.51" y1="-365.915" x2="1006.59" y2="545.122" gradientUnits="userSpaceOnUse">
<stop stop-color="#889EF4"/>
<stop offset="1" stop-color="#103CE9"/>
</linearGradient>
<linearGradient id="paint4_linear_70_439" x1="-22.6762" y1="-29.6097" x2="661.402" y2="881.112" gradientUnits="userSpaceOnUse">
<stop offset="0.0001" stop-color="#103CE9"/>
<stop offset="1" stop-color="#103CE9"/>
</linearGradient>
<linearGradient id="paint5_linear_70_439" x1="361.792" y1="530.182" x2="400.671" y2="510.661" gradientUnits="userSpaceOnUse">
<stop offset="1" stop-color="#103CE9"/>
</linearGradient>
</defs>
</svg>
