<svg width="1080" height="1920" viewBox="0 0 1080 1920" fill="none" xmlns="http://www.w3.org/2000/svg">
<g clip-path="url(#clip0_117_258)">
<rect width="1080" height="1920" fill="#EEEEEE"/>
<mask id="mask0_117_258" style="mask-type:alpha" maskUnits="userSpaceOnUse" x="0" y="1153" width="1080" height="1207">
<path d="M0 1693C0 1394.77 241.766 1153 540 1153V1153C838.234 1153 1080 1394.77 1080 1693L1080 2360H0L0 1693Z" fill="#EEEEEE"/>
</mask>
<g mask="url(#mask0_117_258)">
<mask id="mask1_117_258" style="mask-type:luminance" maskUnits="userSpaceOnUse" x="-783" y="1116" width="2537" height="1294">
<path d="M1723.01 1116H-752.102C-768.67 1116 -782.102 1129.43 -782.102 1146V2379.63C-782.102 2396.2 -768.67 2409.63 -752.102 2409.63H1723.01C1739.58 2409.63 1753.01 2396.2 1753.01 2379.63V1146C1753.01 1129.43 1739.58 1116 1723.01 1116Z" fill="white"/>
</mask>
<g mask="url(#mask1_117_258)">
<path d="M1723.01 1116H-752.101C-768.669 1116 -782.101 1129.43 -782.101 1146V2379.63C-782.101 2396.2 -768.669 2409.63 -752.101 2409.63H1723.01C1739.58 2409.63 1753.01 2396.2 1753.01 2379.63V1146C1753.01 1129.43 1739.58 1116 1723.01 1116Z" fill="url(#paint0_radial_117_258)"/>
<path style="mix-blend-mode:screen" d="M-1115.88 3431.13C-1115.88 3431.13 -1115.88 3431.13 -1115.89 3431.13C-1182.9 3091.2 -1203.44 2732.03 -1096.62 2402.9C-989.792 2073.74 -737.073 1779.57 -406.779 1698.33C-335.099 1680.7 -261.295 1673.16 -187.619 1670.87C211.186 1658.51 618.135 1809.16 895.857 2101.52C942.059 2150.16 985.093 2203.1 1013.58 2264.32C1087.04 2422.27 1050.75 2618.03 951.313 2760.43C851.904 2902.82 698.15 2997.45 537.424 3057.96C376.698 3118.5 206.813 3148.42 39.591 3186.45C-121.23 3223.03 -280.245 3267.34 -439.197 3311.61C-527.355 3336.16 -616.18 3360.96 -698.064 3402.39C-805.774 3456.88 -895.137 3537.96 -978.574 3624.96C-1024.08 3672.4 -1047.5 3693.78 -1074.88 3620.01C-1096.49 3561.8 -1103.87 3492.12 -1115.88 3431.13C-1115.88 3431.12 -1115.88 3431.12 -1115.88 3431.13V3431.13Z" fill="url(#paint1_linear_117_258)"/>
<g style="mix-blend-mode:multiply">
<path d="M1027.78 2842.68C1027.8 2842.67 1027.79 2842.65 1027.77 2842.64C553.445 2776.14 82.2379 2666.46 -274.925 2467.44C-632.049 2268.42 -857.757 1967.33 -765.159 1679.99C-745.067 1617.62 -710.834 1557.15 -669.886 1498.59C-448.492 1181.68 -13.893 915.438 524.933 800.147C614.582 780.953 707.835 765.763 802.999 764.91C1048.58 762.646 1277.18 859.662 1400.03 987.454C1522.87 1115.25 1552.41 1268.89 1534.12 1416.07C1515.88 1563.26 1453.1 1706.89 1402.26 1851.29C1353.4 1990.17 1315.4 2130.33 1277.45 2270.43C1256.38 2348.15 1235.3 2426.43 1239.51 2505.14C1245.08 2608.66 1295.58 2707.08 1357.11 2802.95C1390.69 2855.25 1404.07 2881.07 1293.56 2876.71C1206.33 2873.26 1112.89 2854.64 1027.79 2842.73C1027.77 2842.72 1027.76 2842.69 1027.78 2842.68V2842.68Z" fill="url(#paint2_linear_117_258)" style="mix-blend-mode:screen"/>
</g>
<path style="mix-blend-mode:screen" d="M1567.3 805.399C1567.31 805.399 1567.32 805.402 1567.33 805.409C1663.81 888.166 1755.83 977.779 1829.06 1082.46C1902.33 1187.15 1956.42 1307.97 1970.9 1435.78C1978.95 1506.74 1974.36 1580.61 1946.54 1646.16C1905.5 1742.86 1817.69 1812.26 1722.62 1853.4C1607.21 1903.33 1476.14 1916.82 1354.36 1886.39C1232.62 1855.95 1121.2 1780.92 1049.83 1675.75C1024.32 1638.14 1003.6 1596.03 997.515 1550.69C991.114 1503.08 1001.1 1454.86 1013.2 1408.46C1053.26 1254.93 1117.11 1108.37 1151.87 953.487C1159.67 918.753 1166.01 882.855 1160.9 847.571C1155.61 810.929 1138.31 777.327 1119.49 745.665C1086.47 690.104 1047.87 638.003 1004.55 590.365C984.375 568.175 918.487 523.456 895.373 487.8C887.543 475.721 897.653 463.169 912.041 463.585C963.333 465.069 1023.99 487.881 1069.13 502.851C1129.91 523 1188.73 549.131 1245.32 579.369C1361.01 641.138 1467.45 719.819 1567.27 805.388C1567.28 805.395 1567.29 805.399 1567.3 805.399V805.399Z" fill="url(#paint3_linear_117_258)"/>
<path style="mix-blend-mode:screen" d="M-45.531 656.002C-45.5349 655.995 -45.5254 655.987 -45.5185 655.992C119 784.347 276.61 924.343 404.594 1090.5C532.586 1256.67 630.314 1450.81 663.588 1659.41C682.062 1775.25 680.003 1896.85 639.219 2006.58C579.042 2168.45 440.054 2289.14 287.092 2364.01C101.395 2454.89 -112.759 2487.1 -314.839 2446.55C-516.919 2406.02 -705.342 2291.47 -830.259 2124.37C-874.941 2064.6 -912.049 1997.07 -925.421 1923.18C-939.459 1845.56 -926.657 1765.64 -910.211 1688.54C-855.832 1433.47 -761.938 1188.01 -716.338 931.157C-706.102 873.526 -698.37 814.116 -709.335 756.647C-720.743 696.946 -751.639 643.099 -784.849 592.582C-843.157 503.936 -910.401 421.403 -984.996 346.567C-1022.59 308.848 -1149.79 232.061 -1180.17 173.057C-1186.75 160.273 -1176.51 147.383 -1162.18 146.316C-1074.97 139.824 -965.496 175.478 -885.493 197.896C-784.215 226.259 -685.821 264.648 -590.66 309.892C-396.227 402.349 -215.673 523.263 -45.5436 656.013C-45.5367 656.018 -45.5272 656.01 -45.531 656.002V656.002Z" fill="url(#paint4_linear_117_258)"/>
<path style="mix-blend-mode:screen" d="M399.231 1667.67C399.247 1667.65 399.273 1667.66 399.282 1667.68C491.429 1875.87 597.233 2079.54 737.321 2257.76C877.417 2435.98 1053.77 2588.54 1260.82 2675.37C1375.82 2723.59 1501.75 2751.15 1624.96 2734.2C1806.69 2709.2 1965.23 2589.38 2079.92 2443.36C2219.16 2266.07 2304.81 2043.85 2312.48 1816.79C2320.15 1589.69 2248.15 1359.2 2106.31 1184.04C2055.61 1121.4 1995.02 1065 1922.04 1032.53C1845.42 998.44 1759.83 992.651 1676.23 991.422C1399.78 987.38 1123.55 1028.16 847.376 1014.25C785.424 1011.12 722.237 1004.91 665.609 979.036C606.794 952.161 558.817 905.784 514.833 857.726C437.638 773.349 368.968 680.919 310.027 582.409C280.14 532.476 231.679 375.377 177.853 329.328C166.799 319.871 151.795 327.065 147.457 340.952C118.627 433.231 128.732 560.802 132.284 652.912C136.752 768.659 152.248 883.825 175.603 997.147C223.355 1228.72 303.901 1452.35 399.181 1667.66C399.19 1667.68 399.216 1667.68 399.231 1667.67V1667.67Z" fill="url(#paint5_linear_117_258)"/>
</g>
</g>
<path d="M623.591 1516.28C580.569 1555.74 531.208 1586.5 486.367 1604.4C441.215 1622.42 402.17 1626.86 378.088 1615.85C354.006 1604.84 347.403 1579.53 358.515 1545.95C369.55 1512.59 397.796 1472.18 440.817 1432.72C483.839 1393.26 533.2 1362.5 578.041 1344.6C623.193 1326.58 662.238 1322.14 686.32 1333.15C710.403 1344.16 717.006 1369.47 705.894 1403.05C694.858 1436.41 666.613 1476.82 623.591 1516.28Z" stroke="white" stroke-width="8"/>
<path fill-rule="evenodd" clip-rule="evenodd" d="M419.116 1341C408.07 1341 399.116 1349.95 399.116 1361V1363V1496V1587V1666.34C399.116 1669.75 403.111 1671.6 405.708 1669.39L431.773 1647.21C433.268 1645.93 435.464 1645.93 436.958 1647.21L467.023 1672.79C468.518 1674.07 470.714 1674.07 472.208 1672.79L502.273 1647.21C503.768 1645.93 505.964 1645.93 507.458 1647.21L537.523 1672.79C539.018 1674.07 541.214 1674.07 542.708 1672.79L572.773 1647.21C574.268 1645.93 576.464 1645.93 577.958 1647.21L608.023 1672.79C609.518 1674.07 611.714 1674.07 613.208 1672.79L643.273 1647.21C644.768 1645.93 646.964 1645.93 648.458 1647.21L674.523 1669.39C677.121 1671.6 681.116 1669.75 681.116 1666.34V1496V1363V1361C681.116 1349.95 672.161 1341 661.116 1341H419.116Z" fill="url(#paint6_linear_117_258)"/>
<line x1="506.116" y1="1408" x2="574.116" y2="1408" stroke="white" stroke-width="10"/>
<line x1="453.116" y1="1444" x2="628.116" y2="1444" stroke="white" stroke-width="10"/>
<path d="M597.616 1337.5C551.116 1351.5 458.616 1399.5 392.616 1484.5" stroke="white" stroke-width="6.2"/>
<circle cx="233.116" cy="1566" r="14.5" stroke="#FF721F" stroke-width="5"/>
<path fill-rule="evenodd" clip-rule="evenodd" d="M733.116 1726C739.743 1726 745.116 1720.63 745.116 1714C745.116 1707.37 739.743 1702 733.116 1702C726.488 1702 721.116 1707.37 721.116 1714C721.116 1720.63 726.488 1726 733.116 1726ZM733.116 1731C742.505 1731 750.116 1723.39 750.116 1714C750.116 1704.61 742.505 1697 733.116 1697C723.727 1697 716.116 1704.61 716.116 1714C716.116 1723.39 723.727 1731 733.116 1731Z" fill="#FF721F"/>
<path fill-rule="evenodd" clip-rule="evenodd" d="M764.116 1403.35C774.252 1403.35 782.469 1395.14 782.469 1385C782.469 1374.86 774.252 1366.65 764.116 1366.65C753.98 1366.65 745.763 1374.86 745.763 1385C745.763 1395.14 753.98 1403.35 764.116 1403.35ZM764.116 1411C778.475 1411 790.116 1399.36 790.116 1385C790.116 1370.64 778.475 1359 764.116 1359C749.756 1359 738.116 1370.64 738.116 1385C738.116 1399.36 749.756 1411 764.116 1411Z" fill="#FF721F"/>
<circle cx="200.116" cy="1599" r="13" fill="#FF721F"/>
<circle cx="293.116" cy="1636" r="9" fill="#FF721F"/>
<circle cx="699.116" cy="1420" r="10" fill="#FF721F"/>
<circle cx="773.116" cy="1688" r="9" fill="#FF721F"/>
<circle cx="399.116" cy="1477" r="18" fill="#FF721F"/>
<ellipse cx="540.5" cy="1777" rx="122.5" ry="30" fill="white" fill-opacity="0.5"/>
<rect x="440" y="1536" width="50" height="50" fill="white"/>
<rect x="515" y="1536" width="50" height="50" fill="white"/>
<rect x="590" y="1536" width="50" height="50" fill="white"/>
</g>
<defs>
<radialGradient id="paint0_radial_117_258" cx="0" cy="0" r="1" gradientUnits="userSpaceOnUse" gradientTransform="translate(82.9118 562.941) scale(1999.54 2040.67)">
<stop stop-color="#889EF4"/>
<stop offset="1" stop-color="#103CE9"/>
</radialGradient>
<linearGradient id="paint1_linear_117_258" x1="1504.93" y1="483.968" x2="530.18" y2="2178.27" gradientUnits="userSpaceOnUse">
<stop offset="1" stop-color="#103CE9"/>
</linearGradient>
<linearGradient id="paint2_linear_117_258" x1="-1494.17" y1="336.839" x2="218.687" y2="3534.17" gradientUnits="userSpaceOnUse">
<stop stop-color="#889EF4"/>
<stop offset="1" stop-color="#103CE9"/>
</linearGradient>
<linearGradient id="paint3_linear_117_258" x1="1581.51" y1="787.085" x2="1006.59" y2="1698.12" gradientUnits="userSpaceOnUse">
<stop stop-color="#889EF4"/>
<stop offset="1" stop-color="#103CE9"/>
</linearGradient>
<linearGradient id="paint4_linear_117_258" x1="-22.6766" y1="1123.39" x2="661.401" y2="2034.11" gradientUnits="userSpaceOnUse">
<stop offset="0.0001" stop-color="#103CE9"/>
<stop offset="1" stop-color="#103CE9"/>
</linearGradient>
<linearGradient id="paint5_linear_117_258" x1="361.792" y1="1683.18" x2="400.67" y2="1663.66" gradientUnits="userSpaceOnUse">
<stop offset="1" stop-color="#103CE9"/>
</linearGradient>
<linearGradient id="paint6_linear_117_258" x1="454.116" y1="1341" x2="736.116" y2="1770.26" gradientUnits="userSpaceOnUse">
<stop stop-color="#FF721F"/>
</linearGradient>
<clipPath id="clip0_117_258">
<rect width="1080" height="1920" fill="white"/>
</clipPath>
</defs>
</svg>
