<svg width="1080" height="1920" viewBox="0 0 1080 1920" fill="none" xmlns="http://www.w3.org/2000/svg">
<path d="M1080 2081.77L1080 0.00146484L0.000366211 0.00141764L0.000275214 2081.77L1080 2081.77Z" fill="url(#paint0_radial_71_1068)"/>
<path style="mix-blend-mode:screen" d="M-852.822 -274.09C-569.025 -329.127 -269.163 -345.989 5.61609 -258.269C280.422 -170.548 526.014 36.9785 593.838 308.207C608.553 367.069 614.844 427.675 616.761 488.176C627.075 815.665 501.309 1149.84 257.229 1377.9C216.621 1415.84 172.422 1451.18 121.311 1474.57C-10.557 1534.89 -173.988 1505.1 -292.869 1423.44C-411.75 1341.81 -490.752 1215.55 -541.269 1083.56C-591.813 951.578 -616.788 812.074 -648.54 674.755C-679.077 542.693 -716.067 412.113 -753.03 281.586C-773.523 209.193 -794.232 136.253 -828.819 69.0116C-874.314 -19.4376 -942.003 -92.82 -1014.63 -161.336C-1054.24 -198.704 -1072.09 -217.934 -1010.5 -240.417C-961.902 -258.165 -903.717 -264.228 -852.795 -274.09L-852.822 -274.09Z" fill="url(#paint1_linear_71_1068)"/>
<g style="mix-blend-mode:multiply">
<path d="M-454.086 1779.42C-398.564 1389.9 -306.995 1002.93 -140.841 709.625C25.314 416.364 276.682 231.019 516.574 307.058C568.644 323.557 619.126 351.668 668.019 385.294C932.59 567.097 1154.87 923.979 1251.12 1366.45C1267.15 1440.07 1279.83 1516.64 1280.54 1594.79C1282.43 1796.45 1201.43 1984.18 1094.75 2085.05C988.057 2185.93 859.785 2210.19 736.908 2195.17C614.031 2180.19 494.113 2128.63 373.565 2086.89C257.618 2046.76 140.603 2015.56 23.643 1984.4C-41.2465 1967.09 -106.602 1949.79 -172.313 1953.24C-258.732 1957.81 -340.905 1999.28 -420.942 2049.81C-464.604 2077.39 -486.16 2088.37 -482.518 1997.63C-479.641 1925.98 -464.083 1849.22 -454.14 1779.33L-454.086 1779.42Z" fill="url(#paint2_linear_71_1068)" style="mix-blend-mode:screen"/>
</g>
<path style="mix-blend-mode:screen" d="M1339.31 2074.13C1270.22 2153.37 1195.4 2228.94 1108 2289.07C1020.6 2349.24 919.728 2393.66 813.024 2405.55C753.786 2412.16 692.118 2408.38 637.389 2385.54C556.66 2351.84 498.717 2279.73 464.373 2201.66C422.685 2106.89 411.426 1999.26 436.833 1899.26C462.24 1799.28 524.88 1707.79 612.684 1649.19C644.085 1628.24 679.24 1611.22 717.094 1606.23C756.838 1600.97 797.094 1609.17 835.839 1619.11C964.008 1652 1086.37 1704.43 1215.68 1732.98C1244.67 1739.38 1274.64 1744.59 1304.1 1740.4C1334.69 1736.05 1362.74 1721.84 1389.18 1706.39C1435.56 1679.27 1479.06 1647.58 1518.83 1612C1541.67 1591.58 1593.11 1514.08 1623.7 1515.72C1629.96 1561.21 1606.47 1621.79 1591.89 1665.04C1575.07 1714.95 1553.26 1763.24 1528.01 1809.72C1476.44 1904.73 1410.75 1992.13 1339.31 2074.1L1339.31 2074.13Z" fill="url(#paint3_linear_71_1068)"/>
<path style="mix-blend-mode:screen" d="M1762.92 26.3211C1674.55 173.502 1575.78 316.286 1452.12 437.601C1328.46 558.916 1178.34 658.477 1009.24 707.034C915.333 733.993 814.434 744.818 719.124 722.856C578.535 690.484 463.488 589.7 384.837 472.809C289.365 330.91 239.388 159.815 250.971 -8.93892C262.527 -177.692 336.858 -342.933 461.652 -461.854C506.283 -504.374 558.15 -541.56 617.901 -560.036C680.649 -579.448 748.203 -577.236 813.84 -571.772C1030.97 -553.712 1244.44 -502.475 1462.08 -491.754C1510.93 -489.36 1560.96 -489.151 1607.34 -503.984C1655.54 -519.415 1696.77 -550.095 1734.97 -582.363C1802.04 -638.961 1863.06 -702.195 1916.9 -770.659C1947.84 -810.004 2008.19 -949.483 2058.16 -955.234C2081.73 -883.335 2061.62 -778.882 2050.82 -704.927C2038.34 -619.522 2017.28 -535.445 1990.18 -453.293C1934.77 -285.424 1854.31 -125.934 1762.92 26.269L1762.92 26.3211Z" fill="url(#paint4_linear_71_1068)"/>
<path style="mix-blend-mode:screen" d="M619.461 974.904C445.635 1050.58 275.589 1137.46 126.792 1252.51C-22.0052 1367.55 -149.364 1512.36 -221.859 1682.39C-262.116 1776.83 -285.12 1880.24 -270.972 1981.41C-250.101 2130.65 -150.066 2260.84 -28.1613 2355.01C119.853 2469.35 305.37 2539.69 494.937 2545.99C684.531 2552.29 876.96 2493.16 1023.19 2376.69C1075.49 2335.05 1122.58 2285.3 1149.69 2225.37C1178.14 2162.45 1182.98 2092.16 1184 2023.52C1187.38 1796.5 1153.33 1569.67 1164.94 1342.88C1167.56 1292.01 1172.74 1240.12 1194.34 1193.62C1216.78 1145.32 1255.5 1105.93 1295.62 1069.81C1366.06 1006.42 1443.23 950.026 1525.47 901.625C1572.72 873.808 1734.91 826.395 1746.76 775.184C1669.09 742.942 1550.31 752.493 1466.61 755.667C1369.98 759.336 1273.83 772.061 1179.22 791.239C985.878 830.455 799.173 896.603 619.407 974.852L619.461 974.904Z" fill="url(#paint5_linear_71_1068)"/>
<defs>
<radialGradient id="paint0_radial_71_1068" cx="0" cy="0" r="1" gradientUnits="userSpaceOnUse" gradientTransform="translate(1541.73 710.328) rotate(90) scale(1641.97 1703.67)">
<stop stop-color="#889EF4"/>
<stop offset="1" stop-color="#103CE9"/>
</radialGradient>
<linearGradient id="paint1_linear_71_1068" x1="1607.66" y1="1878.06" x2="204.873" y2="1057.57" gradientUnits="userSpaceOnUse">
<stop stop-color="#889EF4"/>
<stop offset="1" stop-color="#103CE9"/>
</linearGradient>
<linearGradient id="paint2_linear_71_1068" x1="1637.92" y1="-291.585" x2="-1011.55" y2="1151.43" gradientUnits="userSpaceOnUse">
<stop stop-color="#889EF4"/>
<stop offset="1" stop-color="#103CE9"/>
</linearGradient>
<linearGradient id="paint3_linear_71_1068" x1="1354.6" y1="2085.78" x2="601.221" y2="1602.44" gradientUnits="userSpaceOnUse">
<stop stop-color="#889EF4"/>
<stop offset="1" stop-color="#103CE9"/>
</linearGradient>
<linearGradient id="paint4_linear_71_1068" x1="1791.4" y1="41.2228" x2="425.522" y2="-524.183" gradientUnits="userSpaceOnUse">
<stop stop-color="#74BBEA"/>
<stop offset="1" stop-color="#103CE9"/>
</linearGradient>
<linearGradient id="paint5_linear_71_1068" x1="606.481" y1="944.133" x2="622.352" y2="976.27" gradientUnits="userSpaceOnUse">
<stop stop-color="#74BBEA"/>
<stop offset="1" stop-color="#103CE9"/>
</linearGradient>
</defs>
</svg>
