<svg width="1080" height="1920" viewBox="0 0 1080 1920" fill="none" xmlns="http://www.w3.org/2000/svg">
<mask id="mask0_104_448" style="mask-type:luminance" maskUnits="userSpaceOnUse" x="0" y="-82" width="1080" height="2082">
<path d="M2.48249e-05 -82L0 1999.77L1080 1999.77L1080 -82L2.48249e-05 -82Z" fill="white"/>
</mask>
<g mask="url(#mask0_104_448)">
<path d="M2.48249e-05 -82.0015L0 1999.77L1080 1999.77L1080 -82.0015L2.48249e-05 -82.0015Z" fill="url(#paint0_radial_104_448)"/>
<g style="mix-blend-mode:multiply">
<path d="M1544.09 307.353C1488.56 696.874 1397 1083.84 1230.84 1377.15C1064.69 1670.41 813.317 1855.75 573.426 1779.71C521.355 1763.21 470.874 1735.1 421.98 1701.48C157.41 1519.67 -64.8694 1162.79 -161.122 720.322C-177.146 646.704 -189.828 570.128 -190.54 491.981C-192.43 290.317 -111.434 102.595 -4.74595 1.71802C101.942 -99.1592 230.215 -123.415 353.092 -108.395C475.968 -93.4208 579.452 -241.741 700 -200C815.947 -159.873 943.04 -83.1599 1060 -52C1124.89 -34.694 1196.6 136.983 1262.31 133.531C1348.73 128.957 1430.91 87.4861 1510.94 36.9578C1554.6 9.38466 1576.16 -1.59959 1572.52 89.145C1569.64 160.79 1554.08 237.546 1544.14 307.443L1544.09 307.353Z" fill="url(#paint1_linear_104_448)" style="mix-blend-mode:screen"/>
</g>
<path style="mix-blend-mode:screen" d="M634.876 562.803C456.645 520.751 279.74 467.406 117.09 383.81C-45.5591 300.213 -194.144 184.791 -296.345 36.1886C-353.091 -46.3405 -395.472 -140.346 -402.587 -238.512C-413.044 -383.341 -345.481 -523.599 -250.136 -633.475C-134.38 -766.896 25.4215 -865.043 201.899 -903.245C378.376 -941.446 570.736 -918.225 731.271 -832.856C788.691 -802.331 842.854 -763.266 880.335 -711.119C919.686 -656.401 938.379 -590.698 953.142 -525.888C1001.99 -311.555 1051.46 -215.71 1108 -3.00002C1120.68 44.7116 1100.26 217.607 1129.88 257.946C1160.63 299.831 1204.87 330.554 1249.77 357.919C1328.58 405.951 1412.28 446.188 1499.14 478.021C1549.05 496.325 1710.66 513.609 1732.05 560.073C1665.7 603.788 1552.43 614.974 1473.3 626.198C1381.94 639.169 1289.24 643.489 1196.7 641.409C1007.5 637.171 819.144 606.33 634.868 562.828L634.876 562.803Z" fill="url(#paint2_linear_104_448)"/>
<path style="mix-blend-mode:screen" d="M369.221 1957.22C457.592 1810.03 556.358 1667.25 680.018 1545.94C803.678 1424.62 953.798 1325.06 1122.9 1276.5C1216.81 1249.54 1317.7 1238.72 1413.01 1260.68C1553.6 1293.05 1668.65 1393.84 1747.3 1510.73C1842.77 1652.63 1892.75 1823.72 1881.17 1992.48C1869.61 2161.23 1795.28 2326.47 1670.49 2445.39C1625.86 2487.91 1573.99 2525.1 1514.24 2543.57C1451.49 2562.99 1383.94 2560.77 1318.3 2555.31C1101.16 2537.25 887.702 2486.01 670.055 2475.29C621.212 2472.9 571.181 2472.69 524.795 2487.52C476.6 2502.95 435.371 2533.63 397.166 2565.9C330.098 2622.5 269.078 2685.73 215.24 2754.2C184.298 2793.54 123.953 2933.02 73.9762 2938.77C50.4052 2866.87 70.5202 2762.42 81.3203 2688.46C93.7943 2603.06 114.854 2518.98 141.962 2436.83C197.366 2268.96 277.826 2109.47 369.221 1957.27L369.221 1957.22Z" fill="url(#paint3_linear_104_448)"/>
<path style="mix-blend-mode:screen" d="M460.539 1024.87C634.365 949.195 804.411 862.307 953.208 747.263C1102.01 632.219 1229.36 487.406 1301.86 317.377C1342.12 222.943 1365.12 119.531 1350.97 18.3567C1330.1 -130.88 1230.07 -261.069 1108.16 -355.243C960.147 -469.584 774.63 -539.922 585.063 -546.219C395.469 -552.517 203.04 -493.394 56.8084 -376.919C4.50936 -335.284 -42.5786 -285.53 -69.6866 -225.601C-98.1446 -162.679 -102.978 -92.3933 -104.004 -23.7469C-107.379 203.27 -73.3317 430.105 -84.9416 656.888C-87.5607 707.761 -92.7446 759.649 -114.345 806.151C-136.782 854.448 -175.5 893.846 -215.622 929.964C-286.065 993.354 -363.231 1049.74 -445.473 1098.15C-492.723 1125.96 -654.912 1173.38 -666.765 1224.59C-589.086 1256.83 -470.313 1247.28 -386.613 1244.1C-289.98 1240.43 -193.833 1227.71 -99.2246 1208.53C94.1224 1169.32 280.828 1103.17 460.594 1024.92L460.539 1024.87Z" fill="url(#paint4_linear_104_448)"/>
</g>
<defs>
<radialGradient id="paint0_radial_104_448" cx="0" cy="0" r="1" gradientUnits="userSpaceOnUse" gradientTransform="translate(-461.727 1289.44) rotate(-90) scale(1641.97 1703.67)">
<stop stop-color="#889EF4"/>
<stop offset="1" stop-color="#103CE9"/>
</radialGradient>
<linearGradient id="paint1_linear_104_448" x1="-547.919" y1="2378.36" x2="2101.55" y2="935.344" gradientUnits="userSpaceOnUse">
<stop stop-color="#889EF4"/>
<stop offset="1" stop-color="#103CE9"/>
</linearGradient>
<linearGradient id="paint2_linear_104_448" x1="628.892" y1="594.17" x2="640.528" y2="533.485" gradientUnits="userSpaceOnUse">
<stop offset="1" stop-color="#103CE9"/>
</linearGradient>
<linearGradient id="paint3_linear_104_448" x1="340.742" y1="1942.31" x2="1706.62" y2="2507.72" gradientUnits="userSpaceOnUse">
<stop stop-color="#74BBEA"/>
<stop offset="1" stop-color="#103CE9"/>
</linearGradient>
<linearGradient id="paint4_linear_104_448" x1="473.519" y1="1055.64" x2="457.648" y2="1023.5" gradientUnits="userSpaceOnUse">
<stop stop-color="#74BBEA"/>
<stop offset="1" stop-color="#103CE9"/>
</linearGradient>
</defs>
</svg>
