<svg width="625" height="399" viewBox="0 0 625 399" fill="none" xmlns="http://www.w3.org/2000/svg">
<rect width="625" height="399" rx="20" fill="white"/>
<path d="M0 20C0 8.95431 8.95431 0 20 0H605C616.046 0 625 8.95431 625 20V92H0V20Z" fill="#FF721F"/>
<rect x="51" y="155" width="144" height="144" fill="#414141"/>
<rect x="480" y="107" width="95" height="95" fill="#414141"/>
<line x1="51" y1="117.5" x2="195" y2="117.5" stroke="#414141" stroke-width="11"/>
<path d="M44.8174 327.91C46.5454 327.91 48.0394 328.279 49.2994 329.017C50.5594 329.755 51.5314 330.808 52.2154 332.176C52.8994 333.544 53.2414 335.182 53.2414 337.09C53.2414 338.998 52.8994 340.636 52.2154 342.004C51.5314 343.372 50.5594 344.425 49.2994 345.163C48.0394 345.901 46.5454 346.27 44.8174 346.27C43.1074 346.27 41.6224 345.901 40.3624 345.163C39.1024 344.425 38.1304 343.372 37.4464 342.004C36.7624 340.636 36.4204 338.998 36.4204 337.09C36.4204 335.182 36.7624 333.544 37.4464 332.176C38.1304 330.808 39.1024 329.755 40.3624 329.017C41.6224 328.279 43.1074 327.91 44.8174 327.91ZM44.8174 330.421C43.7014 330.421 42.7384 330.682 41.9284 331.204C41.1364 331.726 40.5244 332.482 40.0924 333.472C39.6604 334.462 39.4444 335.668 39.4444 337.09C39.4444 338.494 39.6604 339.7 40.0924 340.708C40.5244 341.698 41.1364 342.454 41.9284 342.976C42.7384 343.498 43.7014 343.759 44.8174 343.759C45.9514 343.759 46.9144 343.498 47.7064 342.976C48.5164 342.454 49.1374 341.698 49.5694 340.708C50.0014 339.7 50.2174 338.494 50.2174 337.09C50.2174 335.668 50.0014 334.462 49.5694 333.472C49.1374 332.482 48.5164 331.726 47.7064 331.204C46.9144 330.682 45.9514 330.421 44.8174 330.421ZM69.7146 345.433L56.7276 339.412V336.469L69.7146 330.448V333.31L59.0226 337.9L69.7146 342.544V345.433ZM76.7215 328.18V346H73.8325V328.18H76.7215ZM95.2634 328.18V330.664H89.1614V346H86.2724V330.664H80.1704V328.18H95.2634ZM111.146 346H108.095L106.394 341.329H98.9151L97.2141 346H94.2441L100.967 328.18H104.423L111.146 346ZM99.7251 338.98H105.584L102.668 330.664L99.7251 338.98ZM128.442 341.275C128.082 342.355 127.542 343.273 126.822 344.029C126.102 344.767 125.256 345.325 124.284 345.703C123.312 346.081 122.241 346.27 121.071 346.27C119.361 346.27 117.876 345.901 116.616 345.163C115.356 344.425 114.384 343.372 113.7 342.004C113.016 340.636 112.674 338.998 112.674 337.09C112.674 335.182 113.016 333.544 113.7 332.176C114.384 330.808 115.356 329.755 116.616 329.017C117.876 328.279 119.352 327.91 121.044 327.91C122.214 327.91 123.267 328.072 124.203 328.396C125.157 328.72 125.967 329.206 126.633 329.854C127.299 330.502 127.812 331.312 128.172 332.284L125.445 333.499C125.085 332.437 124.563 331.663 123.879 331.177C123.195 330.673 122.304 330.421 121.206 330.421C120.108 330.421 119.145 330.682 118.317 331.204C117.489 331.726 116.841 332.482 116.373 333.472C115.923 334.462 115.698 335.668 115.698 337.09C115.698 338.494 115.914 339.7 116.346 340.708C116.778 341.698 117.399 342.454 118.209 342.976C119.019 343.498 119.991 343.759 121.125 343.759C122.223 343.759 123.168 343.48 123.96 342.922C124.77 342.346 125.346 341.491 125.688 340.357L128.442 341.275ZM139.528 327.91C141.256 327.91 142.75 328.279 144.01 329.017C145.27 329.755 146.242 330.808 146.926 332.176C147.61 333.544 147.952 335.182 147.952 337.09C147.952 338.998 147.61 340.636 146.926 342.004C146.242 343.372 145.27 344.425 144.01 345.163C142.75 345.901 141.256 346.27 139.528 346.27C137.818 346.27 136.333 345.901 135.073 345.163C133.813 344.425 132.841 343.372 132.157 342.004C131.473 340.636 131.131 338.998 131.131 337.09C131.131 335.182 131.473 333.544 132.157 332.176C132.841 330.808 133.813 329.755 135.073 329.017C136.333 328.279 137.818 327.91 139.528 327.91ZM139.528 330.421C138.412 330.421 137.449 330.682 136.639 331.204C135.847 331.726 135.235 332.482 134.803 333.472C134.371 334.462 134.155 335.668 134.155 337.09C134.155 338.494 134.371 339.7 134.803 340.708C135.235 341.698 135.847 342.454 136.639 342.976C137.449 343.498 138.412 343.759 139.528 343.759C140.662 343.759 141.625 343.498 142.417 342.976C143.227 342.454 143.848 341.698 144.28 340.708C144.712 339.7 144.928 338.494 144.928 337.09C144.928 335.668 144.712 334.462 144.28 333.472C143.848 332.482 143.227 331.726 142.417 331.204C141.625 330.682 140.662 330.421 139.528 330.421ZM159.485 346.27C157.811 346.27 156.362 345.901 155.138 345.163C153.914 344.425 152.96 343.381 152.276 342.031C151.592 340.663 151.25 339.016 151.25 337.09C151.25 335.2 151.601 333.571 152.303 332.203C153.023 330.835 154.031 329.782 155.327 329.044C156.641 328.288 158.144 327.91 159.836 327.91C161.69 327.91 163.184 328.252 164.318 328.936C165.47 329.62 166.388 330.682 167.072 332.122L164.399 333.391C164.057 332.401 163.49 331.663 162.698 331.177C161.924 330.673 160.979 330.421 159.863 330.421C158.747 330.421 157.766 330.682 156.92 331.204C156.092 331.726 155.444 332.491 154.976 333.499C154.508 334.489 154.274 335.686 154.274 337.09C154.274 338.512 154.481 339.727 154.895 340.735C155.309 341.725 155.93 342.481 156.758 343.003C157.604 343.525 158.639 343.786 159.863 343.786C160.529 343.786 161.15 343.705 161.726 343.543C162.302 343.363 162.806 343.111 163.238 342.787C163.67 342.445 164.003 342.022 164.237 341.518C164.489 340.996 164.615 340.384 164.615 339.682V339.169H159.431V336.82H167.18V346H165.02L164.858 342.409L165.398 342.679C164.966 343.813 164.246 344.695 163.238 345.325C162.248 345.955 160.997 346.27 159.485 346.27ZM186.394 328.18V346H182.965L176.08 334.768L174.352 331.609H174.325L174.433 334.498V346H171.787V328.18H175.189L182.047 339.385L183.802 342.598H183.829L183.721 339.682V328.18H186.394ZM199.065 327.91C200.793 327.91 202.287 328.279 203.547 329.017C204.807 329.755 205.779 330.808 206.463 332.176C207.147 333.544 207.489 335.182 207.489 337.09C207.489 338.998 207.147 340.636 206.463 342.004C205.779 343.372 204.807 344.425 203.547 345.163C202.287 345.901 200.793 346.27 199.065 346.27C197.355 346.27 195.87 345.901 194.61 345.163C193.35 344.425 192.378 343.372 191.694 342.004C191.01 340.636 190.668 338.998 190.668 337.09C190.668 335.182 191.01 333.544 191.694 332.176C192.378 330.808 193.35 329.755 194.61 329.017C195.87 328.279 197.355 327.91 199.065 327.91ZM199.065 330.421C197.949 330.421 196.986 330.682 196.176 331.204C195.384 331.726 194.772 332.482 194.34 333.472C193.908 334.462 193.692 335.668 193.692 337.09C193.692 338.494 193.908 339.7 194.34 340.708C194.772 341.698 195.384 342.454 196.176 342.976C196.986 343.498 197.949 343.759 199.065 343.759C200.199 343.759 201.162 343.498 201.954 342.976C202.764 342.454 203.385 341.698 203.817 340.708C204.249 339.7 204.465 338.494 204.465 337.09C204.465 335.668 204.249 334.462 203.817 333.472C203.385 332.482 202.764 331.726 201.954 331.204C201.162 330.682 200.199 330.421 199.065 330.421ZM230.011 328.18V346H227.338V335.686L227.554 330.772H227.527L222.1 346H219.697L214.27 330.772H214.243L214.459 335.686V346H211.786V328.18H216.079L219.67 338.494L220.912 342.733H220.966L222.235 338.494L225.799 328.18H230.011ZM235.305 346V328.18H248.211V330.664H238.194V335.794H246.024V338.224H238.194V343.516H248.589V346H235.305ZM264.647 345.433L251.66 339.412V336.469L264.647 330.448V333.31L253.955 337.9L264.647 342.544V345.433ZM280.942 345.433L267.955 339.412V336.469L280.942 330.448V333.31L270.25 337.9L280.942 342.544V345.433ZM299.667 328.18V346H296.238L289.353 334.768L287.625 331.609H287.598L287.706 334.498V346H285.06V328.18H288.462L295.32 339.385L297.075 342.598H297.102L296.994 339.682V328.18H299.667ZM312.339 327.91C314.067 327.91 315.561 328.279 316.821 329.017C318.081 329.755 319.053 330.808 319.737 332.176C320.421 333.544 320.763 335.182 320.763 337.09C320.763 338.998 320.421 340.636 319.737 342.004C319.053 343.372 318.081 344.425 316.821 345.163C315.561 345.901 314.067 346.27 312.339 346.27C310.629 346.27 309.144 345.901 307.884 345.163C306.624 344.425 305.652 343.372 304.968 342.004C304.284 340.636 303.942 338.998 303.942 337.09C303.942 335.182 304.284 333.544 304.968 332.176C305.652 330.808 306.624 329.755 307.884 329.017C309.144 328.279 310.629 327.91 312.339 327.91ZM312.339 330.421C311.223 330.421 310.26 330.682 309.45 331.204C308.658 331.726 308.046 332.482 307.614 333.472C307.182 334.462 306.966 335.668 306.966 337.09C306.966 338.494 307.182 339.7 307.614 340.708C308.046 341.698 308.658 342.454 309.45 342.976C310.26 343.498 311.223 343.759 312.339 343.759C313.473 343.759 314.436 343.498 315.228 342.976C316.038 342.454 316.659 341.698 317.091 340.708C317.523 339.7 317.739 338.494 317.739 337.09C317.739 335.668 317.523 334.462 317.091 333.472C316.659 332.482 316.038 331.726 315.228 331.204C314.436 330.682 313.473 330.421 312.339 330.421ZM343.284 328.18V346H340.611V335.686L340.827 330.772H340.8L335.373 346H332.97L327.543 330.772H327.516L327.732 335.686V346H325.059V328.18H329.352L332.943 338.494L334.185 342.733H334.239L335.508 338.494L339.072 328.18H343.284ZM348.579 346V328.18H361.485V330.664H351.468V335.794H359.298V338.224H351.468V343.516H361.863V346H348.579ZM377.921 345.433L364.934 339.412V336.469L377.921 330.448V333.31L367.229 337.9L377.921 342.544V345.433ZM394.216 345.433L381.229 339.412V336.469L394.216 330.448V333.31L383.524 337.9L394.216 342.544V345.433ZM410.511 345.433L397.524 339.412V336.469L410.511 330.448V333.31L399.819 337.9L410.511 342.544V345.433ZM426.805 345.433L413.818 339.412V336.469L426.805 330.448V333.31L416.113 337.9L426.805 342.544V345.433ZM443.1 345.433L430.113 339.412V336.469L443.1 330.448V333.31L432.408 337.9L443.1 342.544V345.433ZM459.395 345.433L446.408 339.412V336.469L459.395 330.448V333.31L448.703 337.9L459.395 342.544V345.433ZM475.69 345.433L462.703 339.412V336.469L475.69 330.448V333.31L464.998 337.9L475.69 342.544V345.433ZM491.985 345.433L478.998 339.412V336.469L491.985 330.448V333.31L481.293 337.9L491.985 342.544V345.433ZM508.28 345.433L495.293 339.412V336.469L508.28 330.448V333.31L497.588 337.9L508.28 342.544V345.433ZM524.575 345.433L511.588 339.412V336.469L524.575 330.448V333.31L513.883 337.9L524.575 342.544V345.433ZM540.87 345.433L527.883 339.412V336.469L540.87 330.448V333.31L530.178 337.9L540.87 342.544V345.433ZM557.165 345.433L544.178 339.412V336.469L557.165 330.448V333.31L546.473 337.9L557.165 342.544V345.433ZM573.46 345.433L560.473 339.412V336.469L573.46 330.448V333.31L562.768 337.9L573.46 342.544V345.433ZM589.755 345.433L576.768 339.412V336.469L589.755 330.448V333.31L579.063 337.9L589.755 342.544V345.433ZM34.875 378V360.18H41.895C44.037 360.18 45.603 360.612 46.593 361.476C47.583 362.34 48.078 363.537 48.078 365.067C48.078 366.003 47.808 366.84 47.268 367.578C46.728 368.298 45.936 368.757 44.892 368.955V368.982C46.044 369.162 46.935 369.639 47.565 370.413C48.213 371.169 48.537 372.051 48.537 373.059C48.537 374.589 47.979 375.795 46.863 376.677C45.747 377.559 44.127 378 42.003 378H34.875ZM37.71 375.597H42.138C43.272 375.597 44.118 375.363 44.676 374.895C45.252 374.427 45.54 373.77 45.54 372.924C45.54 372.078 45.252 371.421 44.676 370.953C44.118 370.485 43.272 370.251 42.138 370.251H37.71V375.597ZM37.71 367.848H41.679C43.947 367.848 45.081 366.975 45.081 365.229C45.081 363.483 43.947 362.61 41.679 362.61H37.71V367.848ZM59.043 360.18C61.833 360.18 64.002 360.954 65.55 362.502C67.116 364.032 67.899 366.228 67.899 369.09C67.899 371.952 67.116 374.157 65.55 375.705C64.002 377.235 61.833 378 59.043 378H52.752V360.18H59.043ZM59.043 375.543C60.933 375.543 62.373 374.985 63.363 373.869C64.371 372.735 64.875 371.142 64.875 369.09C64.875 367.038 64.371 365.454 63.363 364.338C62.373 363.204 60.933 362.637 59.043 362.637H55.641V375.543H59.043ZM77.2876 378.27C75.7036 378.27 74.3986 377.928 73.3726 377.244C72.3646 376.56 71.5636 375.57 70.9696 374.274L73.6696 372.87C73.9396 373.734 74.3446 374.445 74.8846 375.003C75.4426 375.543 76.2616 375.813 77.3416 375.813C78.0976 375.813 78.7366 375.678 79.2586 375.408C79.7986 375.12 80.2126 374.724 80.5006 374.22C80.7886 373.698 80.9326 373.077 80.9326 372.357C80.9326 371.601 80.7976 370.971 80.5276 370.467C80.2576 369.963 79.8706 369.585 79.3666 369.333C78.8626 369.063 78.2326 368.928 77.4766 368.928C76.9546 368.928 76.4686 368.982 76.0186 369.09C75.5686 369.198 75.1636 369.369 74.8036 369.603C74.4436 369.819 74.1286 370.107 73.8586 370.467L71.4826 370.008L72.5626 360.18H82.9306V362.664H74.8576L74.2096 367.686L74.1556 367.983H74.2096C74.6236 367.533 75.1546 367.182 75.8026 366.93C76.4686 366.678 77.2516 366.552 78.1516 366.552C79.3036 366.552 80.2936 366.795 81.1216 367.281C81.9496 367.749 82.5976 368.406 83.0656 369.252C83.5336 370.098 83.7676 371.079 83.7676 372.195C83.7676 373.167 83.6056 374.031 83.2816 374.787C82.9576 375.543 82.4986 376.182 81.9046 376.704C81.3106 377.226 80.6176 377.622 79.8256 377.892C79.0516 378.144 78.2056 378.27 77.2876 378.27ZM94.1364 359.91C95.0904 359.91 95.9364 360.045 96.6744 360.315C97.4124 360.567 98.0514 360.972 98.5914 361.53C99.1494 362.088 99.6084 362.817 99.9684 363.717L97.4304 364.932C97.1784 364.158 96.7734 363.546 96.2154 363.096C95.6754 362.646 94.9194 362.421 93.9474 362.421C93.2454 362.421 92.6244 362.592 92.0844 362.934C91.5444 363.276 91.0854 363.762 90.7074 364.392C90.3294 365.004 90.0414 365.733 89.8434 366.579C89.6454 367.407 89.5464 368.307 89.5464 369.279C89.5464 369.333 89.5464 369.396 89.5464 369.468C89.5464 369.522 89.5464 369.621 89.5464 369.765L89.6544 369.819C89.8524 369.099 90.2034 368.523 90.7074 368.091C91.2294 367.641 91.8144 367.308 92.4624 367.092C93.1104 366.876 93.7494 366.768 94.3794 366.768C95.5674 366.768 96.6024 367.002 97.4844 367.47C98.3664 367.92 99.0504 368.568 99.5364 369.414C100.04 370.26 100.292 371.268 100.292 372.438C100.292 373.626 100.031 374.661 99.5094 375.543C98.9874 376.407 98.2584 377.082 97.3224 377.568C96.4044 378.036 95.2974 378.27 94.0014 378.27C92.4894 378.27 91.2024 377.892 90.1404 377.136C89.0784 376.38 88.2684 375.318 87.7104 373.95C87.1524 372.582 86.8734 370.98 86.8734 369.144C86.8734 367.11 87.1884 365.409 87.8184 364.041C88.4664 362.673 89.3394 361.647 90.4374 360.963C91.5354 360.261 92.7684 359.91 94.1364 359.91ZM93.9474 369.171C93.2634 369.171 92.6604 369.315 92.1384 369.603C91.6164 369.873 91.2024 370.251 90.8964 370.737C90.6084 371.223 90.4644 371.79 90.4644 372.438C90.4644 373.068 90.6174 373.635 90.9234 374.139C91.2474 374.643 91.6704 375.048 92.1924 375.354C92.7144 375.642 93.2994 375.786 93.9474 375.786C95.0454 375.786 95.9004 375.489 96.5124 374.895C97.1244 374.301 97.4304 373.482 97.4304 372.438C97.4304 371.772 97.2954 371.196 97.0254 370.71C96.7554 370.206 96.3594 369.828 95.8374 369.576C95.3334 369.306 94.7034 369.171 93.9474 369.171ZM102.416 360.18H115.997V362.583C114.503 364.131 113.297 365.724 112.379 367.362C111.461 368.982 110.795 370.674 110.381 372.438C109.985 374.184 109.787 376.038 109.787 378H106.871C106.871 376.02 107.114 374.094 107.6 372.222C108.104 370.332 108.86 368.532 109.868 366.822C110.894 365.094 112.181 363.474 113.729 361.962L114.269 362.691H102.416V360.18ZM124.763 359.937C125.969 359.937 127.013 360.135 127.895 360.531C128.795 360.909 129.488 361.449 129.974 362.151C130.46 362.853 130.703 363.699 130.703 364.689C130.703 365.607 130.478 366.417 130.028 367.119C129.596 367.803 128.957 368.325 128.111 368.685V368.712C129.137 369.09 129.947 369.657 130.541 370.413C131.153 371.151 131.459 372.069 131.459 373.167C131.459 374.229 131.18 375.138 130.622 375.894C130.082 376.65 129.308 377.235 128.3 377.649C127.31 378.063 126.131 378.27 124.763 378.27C123.395 378.27 122.207 378.063 121.199 377.649C120.209 377.235 119.435 376.65 118.877 375.894C118.319 375.138 118.04 374.229 118.04 373.167C118.04 372.087 118.337 371.169 118.931 370.413C119.525 369.657 120.353 369.09 121.415 368.712V368.685C120.605 368.343 119.966 367.83 119.498 367.146C119.03 366.444 118.796 365.625 118.796 364.689C118.796 363.699 119.039 362.853 119.525 362.151C120.011 361.449 120.704 360.909 121.604 360.531C122.504 360.135 123.557 359.937 124.763 359.937ZM124.763 362.367C123.809 362.367 123.044 362.601 122.468 363.069C121.91 363.537 121.631 364.176 121.631 364.986C121.631 365.796 121.919 366.435 122.495 366.903C123.071 367.353 123.827 367.578 124.763 367.578C125.699 367.578 126.446 367.353 127.004 366.903C127.58 366.435 127.868 365.796 127.868 364.986C127.868 364.176 127.589 363.537 127.031 363.069C126.473 362.601 125.717 362.367 124.763 362.367ZM124.763 375.84C125.555 375.84 126.23 375.723 126.788 375.489C127.346 375.255 127.778 374.913 128.084 374.463C128.39 374.013 128.543 373.491 128.543 372.897C128.543 372.267 128.381 371.736 128.057 371.304C127.751 370.854 127.319 370.512 126.761 370.278C126.203 370.044 125.537 369.927 124.763 369.927C124.007 369.927 123.341 370.044 122.765 370.278C122.189 370.512 121.739 370.854 121.415 371.304C121.109 371.736 120.956 372.267 120.956 372.897C120.956 373.491 121.109 374.013 121.415 374.463C121.721 374.913 122.162 375.255 122.738 375.489C123.314 375.723 123.989 375.84 124.763 375.84ZM141.102 359.91C142.632 359.91 143.919 360.288 144.963 361.044C146.025 361.8 146.817 362.862 147.339 364.23C147.879 365.598 148.149 367.209 148.149 369.063C148.149 371.115 147.87 372.825 147.312 374.193C146.754 375.543 145.953 376.56 144.909 377.244C143.865 377.928 142.605 378.27 141.129 378.27C139.617 378.27 138.321 377.937 137.241 377.271C136.161 376.605 135.351 375.606 134.811 374.274L137.538 373.005C137.79 373.851 138.204 374.526 138.78 375.03C139.374 375.534 140.175 375.786 141.183 375.786C142.011 375.786 142.704 375.624 143.262 375.3C143.82 374.976 144.261 374.508 144.585 373.896C144.927 373.284 145.17 372.546 145.314 371.682C145.458 370.818 145.53 369.846 145.53 368.766C145.53 368.712 145.53 368.667 145.53 368.631C145.53 368.577 145.53 368.523 145.53 368.469H145.422C145.224 369.189 144.864 369.774 144.342 370.224C143.838 370.674 143.262 371.007 142.614 371.223C141.966 371.421 141.318 371.52 140.67 371.52C139.518 371.52 138.492 371.295 137.592 370.845C136.71 370.377 136.017 369.729 135.513 368.901C135.009 368.073 134.757 367.092 134.757 365.958C134.757 364.716 135.009 363.645 135.513 362.745C136.035 361.845 136.764 361.152 137.7 360.666C138.654 360.162 139.788 359.91 141.102 359.91ZM141.129 362.448C139.995 362.448 139.122 362.754 138.51 363.366C137.916 363.978 137.619 364.833 137.619 365.931C137.619 366.903 137.934 367.668 138.564 368.226C139.212 368.766 140.067 369.036 141.129 369.036C141.813 369.036 142.416 368.901 142.938 368.631C143.46 368.343 143.865 367.956 144.153 367.47C144.459 366.984 144.612 366.417 144.612 365.769C144.612 365.085 144.459 364.5 144.153 364.014C143.865 363.51 143.46 363.123 142.938 362.853C142.416 362.583 141.813 362.448 141.129 362.448ZM158.252 378.27C156.11 378.27 154.427 377.496 153.203 375.948C151.997 374.382 151.394 372.096 151.394 369.09C151.394 366.084 151.997 363.807 153.203 362.259C154.427 360.693 156.11 359.91 158.252 359.91C160.412 359.91 162.095 360.693 163.301 362.259C164.525 363.807 165.137 366.084 165.137 369.09C165.137 372.096 164.525 374.382 163.301 375.948C162.095 377.496 160.412 378.27 158.252 378.27ZM158.252 375.813C159.116 375.813 159.836 375.57 160.412 375.084C161.006 374.58 161.447 373.833 161.735 372.843C162.041 371.835 162.194 370.584 162.194 369.09C162.194 367.596 162.041 366.354 161.735 365.364C161.447 364.356 161.006 363.609 160.412 363.123C159.836 362.619 159.116 362.367 158.252 362.367C157.388 362.367 156.659 362.619 156.065 363.123C155.489 363.609 155.057 364.356 154.769 365.364C154.481 366.354 154.337 367.596 154.337 369.09C154.337 370.584 154.481 371.835 154.769 372.843C155.057 373.833 155.489 374.58 156.065 375.084C156.659 375.57 157.388 375.813 158.252 375.813ZM174.424 378.27C172.84 378.27 171.535 377.928 170.509 377.244C169.501 376.56 168.7 375.57 168.106 374.274L170.806 372.87C171.076 373.734 171.481 374.445 172.021 375.003C172.579 375.543 173.398 375.813 174.478 375.813C175.234 375.813 175.873 375.678 176.395 375.408C176.935 375.12 177.349 374.724 177.637 374.22C177.925 373.698 178.069 373.077 178.069 372.357C178.069 371.601 177.934 370.971 177.664 370.467C177.394 369.963 177.007 369.585 176.503 369.333C175.999 369.063 175.369 368.928 174.613 368.928C174.091 368.928 173.605 368.982 173.155 369.09C172.705 369.198 172.3 369.369 171.94 369.603C171.58 369.819 171.265 370.107 170.995 370.467L168.619 370.008L169.699 360.18H180.067V362.664H171.994L171.346 367.686L171.292 367.983H171.346C171.76 367.533 172.291 367.182 172.939 366.93C173.605 366.678 174.388 366.552 175.288 366.552C176.44 366.552 177.43 366.795 178.258 367.281C179.086 367.749 179.734 368.406 180.202 369.252C180.67 370.098 180.904 371.079 180.904 372.195C180.904 373.167 180.742 374.031 180.418 374.787C180.094 375.543 179.635 376.182 179.041 376.704C178.447 377.226 177.754 377.622 176.962 377.892C176.188 378.144 175.342 378.27 174.424 378.27ZM187.925 360.18V378H185.036V360.18H187.925ZM206.467 360.18V362.664H200.365V378H197.476V362.664H191.374V360.18H206.467ZM222.35 378H219.299L217.598 373.329H210.119L208.418 378H205.448L212.171 360.18H215.627L222.35 378ZM210.929 370.98H216.788L213.872 362.664L210.929 370.98ZM226.605 378V365.769C226.605 365.409 226.605 365.04 226.605 364.662C226.623 364.266 226.641 363.852 226.659 363.42C226.047 364.014 225.345 364.527 224.553 364.959C223.779 365.373 222.978 365.67 222.15 365.85L221.61 363.339C221.988 363.285 222.429 363.159 222.933 362.961C223.437 362.763 223.959 362.511 224.499 362.205C225.039 361.899 225.534 361.575 225.984 361.233C226.434 360.873 226.785 360.522 227.037 360.18H229.467V378H226.605ZM239.736 378.27C238.152 378.27 236.847 377.928 235.821 377.244C234.813 376.56 234.012 375.57 233.418 374.274L236.118 372.87C236.388 373.734 236.793 374.445 237.333 375.003C237.891 375.543 238.71 375.813 239.79 375.813C240.546 375.813 241.185 375.678 241.707 375.408C242.247 375.12 242.661 374.724 242.949 374.22C243.237 373.698 243.381 373.077 243.381 372.357C243.381 371.601 243.246 370.971 242.976 370.467C242.706 369.963 242.319 369.585 241.815 369.333C241.311 369.063 240.681 368.928 239.925 368.928C239.403 368.928 238.917 368.982 238.467 369.09C238.017 369.198 237.612 369.369 237.252 369.603C236.892 369.819 236.577 370.107 236.307 370.467L233.931 370.008L235.011 360.18H245.379V362.664H237.306L236.658 367.686L236.604 367.983H236.658C237.072 367.533 237.603 367.182 238.251 366.93C238.917 366.678 239.7 366.552 240.6 366.552C241.752 366.552 242.742 366.795 243.57 367.281C244.398 367.749 245.046 368.406 245.514 369.252C245.982 370.098 246.216 371.079 246.216 372.195C246.216 373.167 246.054 374.031 245.73 374.787C245.406 375.543 244.947 376.182 244.353 376.704C243.759 377.226 243.066 377.622 242.274 377.892C241.5 378.144 240.654 378.27 239.736 378.27ZM257.584 378V373.545H248.89V371.574C248.926 371.484 248.98 371.376 249.052 371.25C249.142 371.124 249.241 370.98 249.349 370.818L256.774 360.18H260.311V371.304H263.335V373.545H260.311V378H257.584ZM251.59 371.304H257.584V365.013C257.584 364.581 257.593 364.14 257.611 363.69C257.647 363.222 257.674 362.763 257.692 362.313H257.638C257.44 362.745 257.179 363.222 256.855 363.744C256.549 364.248 256.261 364.689 255.991 365.067L251.779 371.061C251.743 371.097 251.707 371.133 251.671 371.169C251.653 371.205 251.626 371.25 251.59 371.304ZM272.409 378.27C270.735 378.27 269.277 377.901 268.035 377.163C266.811 376.407 265.974 375.354 265.524 374.004L268.332 372.681C268.494 373.329 268.746 373.887 269.088 374.355C269.43 374.823 269.88 375.183 270.438 375.435C270.996 375.669 271.689 375.786 272.517 375.786C273.219 375.786 273.813 375.66 274.299 375.408C274.785 375.156 275.154 374.805 275.406 374.355C275.676 373.905 275.811 373.392 275.811 372.816C275.811 372.222 275.694 371.727 275.46 371.331C275.244 370.935 274.893 370.647 274.407 370.467C273.939 370.287 273.336 370.197 272.598 370.197C272.382 370.197 272.157 370.206 271.923 370.224C271.707 370.224 271.473 370.242 271.221 370.278V367.848C271.383 367.866 271.536 367.884 271.68 367.902C271.842 367.902 271.995 367.902 272.139 367.902C273.309 367.902 274.146 367.668 274.65 367.2C275.154 366.732 275.406 366.003 275.406 365.013C275.406 364.167 275.145 363.519 274.623 363.069C274.119 362.619 273.39 362.394 272.436 362.394C271.446 362.394 270.672 362.628 270.114 363.096C269.574 363.546 269.16 364.203 268.872 365.067L266.226 363.96C266.478 363.132 266.901 362.412 267.495 361.8C268.089 361.188 268.818 360.72 269.682 360.396C270.564 360.054 271.527 359.883 272.571 359.883C273.849 359.883 274.911 360.09 275.757 360.504C276.621 360.918 277.26 361.485 277.674 362.205C278.106 362.925 278.322 363.726 278.322 364.608C278.322 365.292 278.223 365.895 278.025 366.417C277.827 366.921 277.557 367.362 277.215 367.74C276.891 368.1 276.531 368.379 276.135 368.577C275.757 368.775 275.37 368.91 274.974 368.982V369.036C275.496 369.054 275.973 369.162 276.405 369.36C276.855 369.54 277.251 369.801 277.593 370.143C277.953 370.467 278.232 370.863 278.43 371.331C278.628 371.799 278.727 372.312 278.727 372.87C278.727 373.95 278.457 374.895 277.917 375.705C277.377 376.515 276.63 377.145 275.676 377.595C274.74 378.045 273.651 378.27 272.409 378.27ZM282.208 378V375.894C283.918 374.67 285.349 373.59 286.501 372.654C287.671 371.718 288.607 370.854 289.309 370.062C290.011 369.27 290.515 368.523 290.821 367.821C291.145 367.101 291.307 366.372 291.307 365.634C291.307 364.68 291.01 363.906 290.416 363.312C289.822 362.718 288.994 362.421 287.932 362.421C286.816 362.421 285.925 362.799 285.259 363.555C284.611 364.293 284.242 365.31 284.152 366.606L281.641 365.445C281.767 364.311 282.1 363.33 282.64 362.502C283.18 361.674 283.909 361.035 284.827 360.585C285.763 360.135 286.843 359.91 288.067 359.91C289.075 359.91 289.957 360.054 290.713 360.342C291.487 360.63 292.135 361.035 292.657 361.557C293.179 362.061 293.575 362.655 293.845 363.339C294.133 364.023 294.277 364.752 294.277 365.526C294.277 366.66 293.998 367.758 293.44 368.82C292.882 369.864 292 370.935 290.794 372.033C289.588 373.131 288.004 374.31 286.042 375.57V375.624C286.258 375.588 286.555 375.57 286.933 375.57C287.311 375.552 287.689 375.543 288.067 375.543C288.445 375.525 288.751 375.516 288.985 375.516H294.601V378H282.208ZM301.646 378V365.769C301.646 365.409 301.646 365.04 301.646 364.662C301.664 364.266 301.682 363.852 301.7 363.42C301.088 364.014 300.386 364.527 299.594 364.959C298.82 365.373 298.019 365.67 297.191 365.85L296.651 363.339C297.029 363.285 297.47 363.159 297.974 362.961C298.478 362.763 299 362.511 299.54 362.205C300.08 361.899 300.575 361.575 301.025 361.233C301.475 360.873 301.826 360.522 302.078 360.18H304.508V378H301.646ZM312.509 378V365.769C312.509 365.409 312.509 365.04 312.509 364.662C312.527 364.266 312.545 363.852 312.563 363.42C311.951 364.014 311.249 364.527 310.457 364.959C309.683 365.373 308.882 365.67 308.054 365.85L307.514 363.339C307.892 363.285 308.333 363.159 308.837 362.961C309.341 362.763 309.863 362.511 310.403 362.205C310.943 361.899 311.438 361.575 311.888 361.233C312.338 360.873 312.689 360.522 312.941 360.18H315.371V378H312.509ZM333.416 362.664H323.426V367.848H331.256V370.332H323.426V378H320.537V360.18H333.416V362.664ZM342.308 378.27C340.634 378.27 339.176 377.901 337.934 377.163C336.71 376.407 335.873 375.354 335.423 374.004L338.231 372.681C338.393 373.329 338.645 373.887 338.987 374.355C339.329 374.823 339.779 375.183 340.337 375.435C340.895 375.669 341.588 375.786 342.416 375.786C343.118 375.786 343.712 375.66 344.198 375.408C344.684 375.156 345.053 374.805 345.305 374.355C345.575 373.905 345.71 373.392 345.71 372.816C345.71 372.222 345.593 371.727 345.359 371.331C345.143 370.935 344.792 370.647 344.306 370.467C343.838 370.287 343.235 370.197 342.497 370.197C342.281 370.197 342.056 370.206 341.822 370.224C341.606 370.224 341.372 370.242 341.12 370.278V367.848C341.282 367.866 341.435 367.884 341.579 367.902C341.741 367.902 341.894 367.902 342.038 367.902C343.208 367.902 344.045 367.668 344.549 367.2C345.053 366.732 345.305 366.003 345.305 365.013C345.305 364.167 345.044 363.519 344.522 363.069C344.018 362.619 343.289 362.394 342.335 362.394C341.345 362.394 340.571 362.628 340.013 363.096C339.473 363.546 339.059 364.203 338.771 365.067L336.125 363.96C336.377 363.132 336.8 362.412 337.394 361.8C337.988 361.188 338.717 360.72 339.581 360.396C340.463 360.054 341.426 359.883 342.47 359.883C343.748 359.883 344.81 360.09 345.656 360.504C346.52 360.918 347.159 361.485 347.573 362.205C348.005 362.925 348.221 363.726 348.221 364.608C348.221 365.292 348.122 365.895 347.924 366.417C347.726 366.921 347.456 367.362 347.114 367.74C346.79 368.1 346.43 368.379 346.034 368.577C345.656 368.775 345.269 368.91 344.873 368.982V369.036C345.395 369.054 345.872 369.162 346.304 369.36C346.754 369.54 347.15 369.801 347.492 370.143C347.852 370.467 348.131 370.863 348.329 371.331C348.527 371.799 348.626 372.312 348.626 372.87C348.626 373.95 348.356 374.895 347.816 375.705C347.276 376.515 346.529 377.145 345.575 377.595C344.639 378.045 343.55 378.27 342.308 378.27ZM360.099 378V373.545H351.405V371.574C351.441 371.484 351.495 371.376 351.567 371.25C351.657 371.124 351.756 370.98 351.864 370.818L359.289 360.18H362.826V371.304H365.85V373.545H362.826V378H360.099ZM354.105 371.304H360.099V365.013C360.099 364.581 360.108 364.14 360.126 363.69C360.162 363.222 360.189 362.763 360.207 362.313H360.153C359.955 362.745 359.694 363.222 359.37 363.744C359.064 364.248 358.776 364.689 358.506 365.067L354.294 371.061C354.258 371.097 354.222 371.133 354.186 371.169C354.168 371.205 354.141 371.25 354.105 371.304ZM374.762 378.27C373.178 378.27 371.873 377.928 370.847 377.244C369.839 376.56 369.038 375.57 368.444 374.274L371.144 372.87C371.414 373.734 371.819 374.445 372.359 375.003C372.917 375.543 373.736 375.813 374.816 375.813C375.572 375.813 376.211 375.678 376.733 375.408C377.273 375.12 377.687 374.724 377.975 374.22C378.263 373.698 378.407 373.077 378.407 372.357C378.407 371.601 378.272 370.971 378.002 370.467C377.732 369.963 377.345 369.585 376.841 369.333C376.337 369.063 375.707 368.928 374.951 368.928C374.429 368.928 373.943 368.982 373.493 369.09C373.043 369.198 372.638 369.369 372.278 369.603C371.918 369.819 371.603 370.107 371.333 370.467L368.957 370.008L370.037 360.18H380.405V362.664H372.332L371.684 367.686L371.63 367.983H371.684C372.098 367.533 372.629 367.182 373.277 366.93C373.943 366.678 374.726 366.552 375.626 366.552C376.778 366.552 377.768 366.795 378.596 367.281C379.424 367.749 380.072 368.406 380.54 369.252C381.008 370.098 381.242 371.079 381.242 372.195C381.242 373.167 381.08 374.031 380.756 374.787C380.432 375.543 379.973 376.182 379.379 376.704C378.785 377.226 378.092 377.622 377.3 377.892C376.526 378.144 375.68 378.27 374.762 378.27ZM390.477 378.27C388.893 378.27 387.588 377.928 386.562 377.244C385.554 376.56 384.753 375.57 384.159 374.274L386.859 372.87C387.129 373.734 387.534 374.445 388.074 375.003C388.632 375.543 389.451 375.813 390.531 375.813C391.287 375.813 391.926 375.678 392.448 375.408C392.988 375.12 393.402 374.724 393.69 374.22C393.978 373.698 394.122 373.077 394.122 372.357C394.122 371.601 393.987 370.971 393.717 370.467C393.447 369.963 393.06 369.585 392.556 369.333C392.052 369.063 391.422 368.928 390.666 368.928C390.144 368.928 389.658 368.982 389.208 369.09C388.758 369.198 388.353 369.369 387.993 369.603C387.633 369.819 387.318 370.107 387.048 370.467L384.672 370.008L385.752 360.18H396.12V362.664H388.047L387.399 367.686L387.345 367.983H387.399C387.813 367.533 388.344 367.182 388.992 366.93C389.658 366.678 390.441 366.552 391.341 366.552C392.493 366.552 393.483 366.795 394.311 367.281C395.139 367.749 395.787 368.406 396.255 369.252C396.723 370.098 396.957 371.079 396.957 372.195C396.957 373.167 396.795 374.031 396.471 374.787C396.147 375.543 395.688 376.182 395.094 376.704C394.5 377.226 393.807 377.622 393.015 377.892C392.241 378.144 391.395 378.27 390.477 378.27ZM407.326 359.91C408.28 359.91 409.126 360.045 409.864 360.315C410.602 360.567 411.241 360.972 411.781 361.53C412.339 362.088 412.798 362.817 413.158 363.717L410.62 364.932C410.368 364.158 409.963 363.546 409.405 363.096C408.865 362.646 408.109 362.421 407.137 362.421C406.435 362.421 405.814 362.592 405.274 362.934C404.734 363.276 404.275 363.762 403.897 364.392C403.519 365.004 403.231 365.733 403.033 366.579C402.835 367.407 402.736 368.307 402.736 369.279C402.736 369.333 402.736 369.396 402.736 369.468C402.736 369.522 402.736 369.621 402.736 369.765L402.844 369.819C403.042 369.099 403.393 368.523 403.897 368.091C404.419 367.641 405.004 367.308 405.652 367.092C406.3 366.876 406.939 366.768 407.569 366.768C408.757 366.768 409.792 367.002 410.674 367.47C411.556 367.92 412.24 368.568 412.726 369.414C413.23 370.26 413.482 371.268 413.482 372.438C413.482 373.626 413.221 374.661 412.699 375.543C412.177 376.407 411.448 377.082 410.512 377.568C409.594 378.036 408.487 378.27 407.191 378.27C405.679 378.27 404.392 377.892 403.33 377.136C402.268 376.38 401.458 375.318 400.9 373.95C400.342 372.582 400.063 370.98 400.063 369.144C400.063 367.11 400.378 365.409 401.008 364.041C401.656 362.673 402.529 361.647 403.627 360.963C404.725 360.261 405.958 359.91 407.326 359.91ZM407.137 369.171C406.453 369.171 405.85 369.315 405.328 369.603C404.806 369.873 404.392 370.251 404.086 370.737C403.798 371.223 403.654 371.79 403.654 372.438C403.654 373.068 403.807 373.635 404.113 374.139C404.437 374.643 404.86 375.048 405.382 375.354C405.904 375.642 406.489 375.786 407.137 375.786C408.235 375.786 409.09 375.489 409.702 374.895C410.314 374.301 410.62 373.482 410.62 372.438C410.62 371.772 410.485 371.196 410.215 370.71C409.945 370.206 409.549 369.828 409.027 369.576C408.523 369.306 407.893 369.171 407.137 369.171ZM415.606 360.18H429.187V362.583C427.693 364.131 426.487 365.724 425.569 367.362C424.651 368.982 423.985 370.674 423.571 372.438C423.175 374.184 422.977 376.038 422.977 378H420.061C420.061 376.02 420.304 374.094 420.79 372.222C421.294 370.332 422.05 368.532 423.058 366.822C424.084 365.094 425.371 363.474 426.919 361.962L427.459 362.691H415.606V360.18ZM438.413 359.91C439.367 359.91 440.213 360.045 440.951 360.315C441.689 360.567 442.328 360.972 442.868 361.53C443.426 362.088 443.885 362.817 444.245 363.717L441.707 364.932C441.455 364.158 441.05 363.546 440.492 363.096C439.952 362.646 439.196 362.421 438.224 362.421C437.522 362.421 436.901 362.592 436.361 362.934C435.821 363.276 435.362 363.762 434.984 364.392C434.606 365.004 434.318 365.733 434.12 366.579C433.922 367.407 433.823 368.307 433.823 369.279C433.823 369.333 433.823 369.396 433.823 369.468C433.823 369.522 433.823 369.621 433.823 369.765L433.931 369.819C434.129 369.099 434.48 368.523 434.984 368.091C435.506 367.641 436.091 367.308 436.739 367.092C437.387 366.876 438.026 366.768 438.656 366.768C439.844 366.768 440.879 367.002 441.761 367.47C442.643 367.92 443.327 368.568 443.813 369.414C444.317 370.26 444.569 371.268 444.569 372.438C444.569 373.626 444.308 374.661 443.786 375.543C443.264 376.407 442.535 377.082 441.599 377.568C440.681 378.036 439.574 378.27 438.278 378.27C436.766 378.27 435.479 377.892 434.417 377.136C433.355 376.38 432.545 375.318 431.987 373.95C431.429 372.582 431.15 370.98 431.15 369.144C431.15 367.11 431.465 365.409 432.095 364.041C432.743 362.673 433.616 361.647 434.714 360.963C435.812 360.261 437.045 359.91 438.413 359.91ZM438.224 369.171C437.54 369.171 436.937 369.315 436.415 369.603C435.893 369.873 435.479 370.251 435.173 370.737C434.885 371.223 434.741 371.79 434.741 372.438C434.741 373.068 434.894 373.635 435.2 374.139C435.524 374.643 435.947 375.048 436.469 375.354C436.991 375.642 437.576 375.786 438.224 375.786C439.322 375.786 440.177 375.489 440.789 374.895C441.401 374.301 441.707 373.482 441.707 372.438C441.707 371.772 441.572 371.196 441.302 370.71C441.032 370.206 440.636 369.828 440.114 369.576C439.61 369.306 438.98 369.171 438.224 369.171ZM460.859 377.433L447.872 371.412V368.469L460.859 362.448V365.31L450.167 369.9L460.859 374.544V377.433ZM477.154 377.433L464.167 371.412V368.469L477.154 362.448V365.31L466.462 369.9L477.154 374.544V377.433ZM493.448 377.433L480.461 371.412V368.469L493.448 362.448V365.31L482.756 369.9L493.448 374.544V377.433ZM509.743 377.433L496.756 371.412V368.469L509.743 362.448V365.31L499.051 369.9L509.743 374.544V377.433ZM526.038 377.433L513.051 371.412V368.469L526.038 362.448V365.31L515.346 369.9L526.038 374.544V377.433ZM542.333 377.433L529.346 371.412V368.469L542.333 362.448V365.31L531.641 369.9L542.333 374.544V377.433ZM558.628 377.433L545.641 371.412V368.469L558.628 362.448V365.31L547.936 369.9L558.628 374.544V377.433ZM568.578 378.27C566.436 378.27 564.753 377.496 563.529 375.948C562.323 374.382 561.72 372.096 561.72 369.09C561.72 366.084 562.323 363.807 563.529 362.259C564.753 360.693 566.436 359.91 568.578 359.91C570.738 359.91 572.421 360.693 573.627 362.259C574.851 363.807 575.463 366.084 575.463 369.09C575.463 372.096 574.851 374.382 573.627 375.948C572.421 377.496 570.738 378.27 568.578 378.27ZM568.578 375.813C569.442 375.813 570.162 375.57 570.738 375.084C571.332 374.58 571.773 373.833 572.061 372.843C572.367 371.835 572.52 370.584 572.52 369.09C572.52 367.596 572.367 366.354 572.061 365.364C571.773 364.356 571.332 363.609 570.738 363.123C570.162 362.619 569.442 362.367 568.578 362.367C567.714 362.367 566.985 362.619 566.391 363.123C565.815 363.609 565.383 364.356 565.095 365.364C564.807 366.354 564.663 367.596 564.663 369.09C564.663 370.584 564.807 371.835 565.095 372.843C565.383 373.833 565.815 374.58 566.391 375.084C566.985 375.57 567.714 375.813 568.578 375.813ZM585.424 359.937C586.63 359.937 587.674 360.135 588.556 360.531C589.456 360.909 590.149 361.449 590.635 362.151C591.121 362.853 591.364 363.699 591.364 364.689C591.364 365.607 591.139 366.417 590.689 367.119C590.257 367.803 589.618 368.325 588.772 368.685V368.712C589.798 369.09 590.608 369.657 591.202 370.413C591.814 371.151 592.12 372.069 592.12 373.167C592.12 374.229 591.841 375.138 591.283 375.894C590.743 376.65 589.969 377.235 588.961 377.649C587.971 378.063 586.792 378.27 585.424 378.27C584.056 378.27 582.868 378.063 581.86 377.649C580.87 377.235 580.096 376.65 579.538 375.894C578.98 375.138 578.701 374.229 578.701 373.167C578.701 372.087 578.998 371.169 579.592 370.413C580.186 369.657 581.014 369.09 582.076 368.712V368.685C581.266 368.343 580.627 367.83 580.159 367.146C579.691 366.444 579.457 365.625 579.457 364.689C579.457 363.699 579.7 362.853 580.186 362.151C580.672 361.449 581.365 360.909 582.265 360.531C583.165 360.135 584.218 359.937 585.424 359.937ZM585.424 362.367C584.47 362.367 583.705 362.601 583.129 363.069C582.571 363.537 582.292 364.176 582.292 364.986C582.292 365.796 582.58 366.435 583.156 366.903C583.732 367.353 584.488 367.578 585.424 367.578C586.36 367.578 587.107 367.353 587.665 366.903C588.241 366.435 588.529 365.796 588.529 364.986C588.529 364.176 588.25 363.537 587.692 363.069C587.134 362.601 586.378 362.367 585.424 362.367ZM585.424 375.84C586.216 375.84 586.891 375.723 587.449 375.489C588.007 375.255 588.439 374.913 588.745 374.463C589.051 374.013 589.204 373.491 589.204 372.897C589.204 372.267 589.042 371.736 588.718 371.304C588.412 370.854 587.98 370.512 587.422 370.278C586.864 370.044 586.198 369.927 585.424 369.927C584.668 369.927 584.002 370.044 583.426 370.278C582.85 370.512 582.4 370.854 582.076 371.304C581.77 371.736 581.617 372.267 581.617 372.897C581.617 373.491 581.77 374.013 582.076 374.463C582.382 374.913 582.823 375.255 583.399 375.489C583.975 375.723 584.65 375.84 585.424 375.84Z" fill="#414141"/>
</svg>
