<svg width="203" height="149" viewBox="0 0 203 149" fill="none" xmlns="http://www.w3.org/2000/svg">
<g clip-path="url(#clip0_1_6)">
<path d="M156.352 19.9836H133.795L130.976 13.1143C128.156 5.30815 120.637 0 112.178 0H79.9102C71.4515 0 63.9326 5.30815 61.1131 13.1143L58.6068 19.9836H36.0503C24.772 19.9836 16 29.0387 16 39.9673V119.902C16 131.143 24.772 139.885 36.0503 139.885H156.352C167.317 139.885 176.402 131.143 176.402 119.902V39.9673C176.402 29.0387 167.317 19.9836 156.352 19.9836ZM161.364 119.902C161.364 122.712 158.858 124.898 156.352 124.898H36.0503C33.2307 124.898 31.0377 122.712 31.0377 119.902V39.9673C31.0377 37.4693 33.2307 34.9714 36.0503 34.9714H68.9452L75.2109 18.4224C75.8375 16.549 77.7172 14.9877 79.9102 14.9877H112.178C114.371 14.9877 116.251 16.549 116.878 18.4224L123.144 34.9714H156.352C158.858 34.9714 161.364 37.4693 161.364 39.9673V119.902ZM96.201 44.9632C76.7773 44.9632 61.1131 60.8876 61.1131 79.9345C61.1131 99.2937 76.7773 114.906 96.201 114.906C115.311 114.906 131.289 99.2937 131.289 79.9345C131.289 60.8876 115.311 44.9632 96.201 44.9632ZM96.201 99.9182C84.9227 99.9182 76.1507 91.1753 76.1507 79.9345C76.1507 69.006 84.9227 59.9509 96.201 59.9509C107.166 59.9509 116.251 69.006 116.251 79.9345C116.251 91.1753 107.166 99.9182 96.201 99.9182Z" fill="white"/>
</g>
<line x1="3.14529" y1="144.895" x2="200.145" y2="7.89505" stroke="white" stroke-width="10"/>
<defs>
<clipPath id="clip0_1_6">
<rect width="161" height="140" fill="white" transform="translate(16)"/>
</clipPath>
</defs>
</svg>
