<svg width="161" height="140" viewBox="0 0 161 140" fill="none" xmlns="http://www.w3.org/2000/svg">
<path d="M140.352 19.9836H117.795L114.976 13.1143C112.156 5.30815 104.637 0 96.1785 0H63.9102C55.4515 0 47.9326 5.30815 45.1131 13.1143L42.6068 19.9836H20.0503C8.77198 19.9836 0 29.0387 0 39.9673V119.902C0 131.143 8.77198 139.885 20.0503 139.885H140.352C151.317 139.885 160.402 131.143 160.402 119.902V39.9673C160.402 29.0387 151.317 19.9836 140.352 19.9836ZM145.364 119.902C145.364 122.712 142.858 124.898 140.352 124.898H20.0503C17.2307 124.898 15.0377 122.712 15.0377 119.902V39.9673C15.0377 37.4693 17.2307 34.9714 20.0503 34.9714H52.9452L59.2109 18.4224C59.8375 16.549 61.7172 14.9877 63.9102 14.9877H96.1785C98.3715 14.9877 100.251 16.549 100.878 18.4224L107.144 34.9714H140.352C142.858 34.9714 145.364 37.4693 145.364 39.9673V119.902ZM80.201 44.9632C60.7773 44.9632 45.1131 60.8876 45.1131 79.9345C45.1131 99.2937 60.7773 114.906 80.201 114.906C99.3114 114.906 115.289 99.2937 115.289 79.9345C115.289 60.8876 99.3114 44.9632 80.201 44.9632ZM80.201 99.9182C68.9227 99.9182 60.1507 91.1753 60.1507 79.9345C60.1507 69.006 68.9227 59.9509 80.201 59.9509C91.166 59.9509 100.251 69.006 100.251 79.9345C100.251 91.1753 91.166 99.9182 80.201 99.9182Z" fill="white"/>
</svg>
