<svg width="52" height="72" viewBox="0 0 52 72" fill="none" xmlns="http://www.w3.org/2000/svg">
<path d="M37.512 26.0164L37.5046 26.0202L37.4973 26.0241L26.7045 31.7753C21.935 34.1866 19.25 39.0008 19.25 44.2539V46.8285C19.25 49.315 21.0394 51.3647 23.6 51.3647C25.9907 51.3647 27.95 49.336 27.95 46.8285V44.2539C27.95 42.2613 28.9958 40.5443 30.7057 39.6135C30.7065 39.6131 30.7074 39.6126 30.7082 39.6121L41.5027 33.8601C47.1428 30.8547 50.75 24.9992 50.75 18.5078C50.75 9.01353 43.071 1.25 33.65 1.25H17.6C8.47434 1.25 1.25 8.71536 1.25 17.7506V20.1737C1.25 22.7014 3.07901 24.5585 5.6 24.5585C7.95044 24.5585 9.95 22.7218 9.95 20.1737V17.7506C9.95 13.6058 13.3796 10.0195 17.6 10.0195H33.65C38.179 10.0195 42.05 13.9174 42.05 18.5078C42.05 21.7148 40.2533 24.6326 37.512 26.0164ZM23.6 59.4059C20.464 59.4059 18.05 62.0356 18.05 65.0022C18.05 68.1052 20.4494 70.75 23.6 70.75C26.5857 70.75 29.15 68.1207 29.15 65.0022C29.15 62.0202 26.571 59.4059 23.6 59.4059Z" fill="white" stroke="white" stroke-width="1.5"/>
</svg>
