<svg width="76" height="73" viewBox="0 0 76 73" fill="none" xmlns="http://www.w3.org/2000/svg">
<path d="M75.1937 27.4415V7.17497C75.1937 4.95472 73.3058 3.27933 70.8009 3.44166C69.6192 3.44402 68.6064 3.94882 67.9295 4.62282L61.5834 10.9416C55.0365 4.66582 46.1448 0.75 36.6202 0.75C16.7648 0.75 0.75 16.6942 0.75 36.4665C0.75 56.0812 16.7655 72.0246 36.6202 72.0246C42.7874 72.0246 48.8685 70.2314 53.4098 67.9406C55.6805 66.7952 57.5755 65.5209 58.9069 64.2756C59.5727 63.653 60.1028 63.0328 60.468 62.4343C60.8323 61.8373 61.041 61.2477 61.041 60.6914C61.041 59.3434 60.4458 58.3257 59.6397 57.6498C58.84 56.9792 57.8292 56.6414 56.9746 56.6414C56.0949 56.6414 55.1815 57.1416 54.1511 57.8207C53.8032 58.0499 53.4399 58.3011 53.0546 58.5675C52.2732 59.1078 51.4017 59.7104 50.386 60.3185C47.3758 62.1208 43.1659 63.9247 36.7792 63.9247C21.3324 63.9247 9.04191 51.6857 9.04191 36.3082C9.04191 21.0881 21.3333 8.69163 36.7792 8.69163C44.0917 8.69163 50.7965 11.7527 55.9796 16.5246L47.9018 24.7223C47.0362 25.4188 46.7064 26.4504 46.7064 27.5999C46.7064 29.8042 48.4166 31.4915 50.7728 31.4915H71.1272C73.3246 31.4915 75.1937 29.804 75.1937 27.4415Z" fill="white" stroke="white" stroke-width="0.5"/>
</svg>
