<svg width="155" height="212" viewBox="0 0 155 212" fill="none" xmlns="http://www.w3.org/2000/svg">
<path d="M150 142V167C150 191.062 131.25 210.125 107.812 211.688C106.875 212 105.938 212 105 212H70C55.625 212 42.1875 205.438 33.75 194.188L27.8125 186.062C25.9375 183.562 25 180.438 25 177V162C25 157.625 26.875 153.25 30.3125 150.438L39.6875 142.938V157C39.6875 159.812 41.875 162 44.6875 162C47.1875 162 49.6875 159.812 49.6875 157.312L50 64.5C50 57.625 55.3125 52 62.5 52C69.375 52 75 57.625 75 64.5V116.062C77.5 113.562 80.9375 112 85 112C92.1875 112 98.125 117.312 99.6875 124.5C102.188 120.125 106.875 117 112.5 117C119.688 117 125.625 122.312 127.188 129.5C129.375 127.938 131.875 127 135 127C143.125 127 150 133.875 150 142Z" fill="black"/>
<circle cx="71" cy="71" r="50.5" stroke="black" stroke-width="11"/>
<circle cx="70.5" cy="70.5" r="68" stroke="black" stroke-width="5"/>
</svg>
